G04*
G04 #@! TF.GenerationSoftware,Altium Limited,Altium Designer,20.0.10 (225)*
G04*
G04 Layer_Color=8421504*
%FSLAX24Y24*%
%MOIN*%
G70*
G01*
G75*
%ADD17R,0.1024X0.0433*%
%ADD18R,0.0433X0.1024*%
%ADD19R,0.0512X0.0394*%
%ADD20R,0.0600X0.0256*%
%ADD21R,0.0394X0.0512*%
%ADD22R,0.0118X0.0581*%
%ADD23R,0.0581X0.0118*%
%ADD24O,0.0571X0.0236*%
%ADD25R,0.0827X0.1654*%
%ADD26R,0.0472X0.0394*%
%ADD27R,0.0472X0.1299*%
%ADD28R,0.0551X0.0118*%
G54D17*
X46470Y6387D02*
D03*
Y7450D02*
D03*
Y4923D02*
D03*
Y3860D02*
D03*
X46580Y18727D02*
D03*
Y19790D02*
D03*
X46540Y22333D02*
D03*
Y21270D02*
D03*
X46542Y35045D02*
D03*
Y33982D02*
D03*
X46532Y36535D02*
D03*
Y37598D02*
D03*
X46570Y15081D02*
D03*
Y14018D02*
D03*
X46620Y11317D02*
D03*
Y12380D02*
D03*
X46670Y30011D02*
D03*
Y28949D02*
D03*
X46680Y26187D02*
D03*
Y27250D02*
D03*
G54D18*
X38468Y23260D02*
D03*
X39532D02*
D03*
X38298Y19660D02*
D03*
X39362D02*
D03*
X38327Y9560D02*
D03*
X39390D02*
D03*
X39671Y34040D02*
D03*
X38609D02*
D03*
X39620Y38790D02*
D03*
X38557D02*
D03*
X39410Y12460D02*
D03*
X38347D02*
D03*
X39410Y16776D02*
D03*
X38347D02*
D03*
X39553Y26780D02*
D03*
X38490D02*
D03*
X39652Y31310D02*
D03*
X38589D02*
D03*
X39320Y5460D02*
D03*
X38257D02*
D03*
G54D19*
X29900Y29750D02*
D03*
Y29120D02*
D03*
X24882Y34780D02*
D03*
Y35410D02*
D03*
X29944Y33760D02*
D03*
Y34390D02*
D03*
X24940Y10590D02*
D03*
Y11220D02*
D03*
X28620Y8135D02*
D03*
Y7505D02*
D03*
X20940Y11280D02*
D03*
Y10650D02*
D03*
X27670Y8150D02*
D03*
Y7520D02*
D03*
X21470Y31700D02*
D03*
Y31070D02*
D03*
X22290Y4740D02*
D03*
Y4110D02*
D03*
X24842Y30905D02*
D03*
Y30275D02*
D03*
X31260Y34380D02*
D03*
Y33750D02*
D03*
X29884Y37245D02*
D03*
Y36615D02*
D03*
G54D20*
X26362Y36025D02*
D03*
Y35525D02*
D03*
Y35025D02*
D03*
Y34525D02*
D03*
X28497D02*
D03*
Y35025D02*
D03*
Y35525D02*
D03*
Y36025D02*
D03*
G54D21*
X27772Y37205D02*
D03*
X28402D02*
D03*
X36135Y35160D02*
D03*
X35505D02*
D03*
X36005Y27400D02*
D03*
X35375D02*
D03*
X35945Y20180D02*
D03*
X35315D02*
D03*
X29690Y16490D02*
D03*
X30320D02*
D03*
X29720Y15370D02*
D03*
X30350D02*
D03*
X29820Y14100D02*
D03*
X30450D02*
D03*
X29840Y12910D02*
D03*
X30470D02*
D03*
X35840Y13210D02*
D03*
X35210D02*
D03*
X35830Y6220D02*
D03*
X35200D02*
D03*
X29760Y8090D02*
D03*
X30390D02*
D03*
X30590Y20350D02*
D03*
X29960D02*
D03*
X31700Y22160D02*
D03*
X32330D02*
D03*
X21140Y18890D02*
D03*
X21770D02*
D03*
G54D22*
X26718Y17443D02*
D03*
X26521D02*
D03*
X26324D02*
D03*
X26127D02*
D03*
X25931D02*
D03*
X25734D02*
D03*
X25537D02*
D03*
X25340D02*
D03*
X25143D02*
D03*
X24946D02*
D03*
X24750D02*
D03*
X24553D02*
D03*
Y14106D02*
D03*
X24750D02*
D03*
X24946D02*
D03*
X25143D02*
D03*
X25340D02*
D03*
X25537D02*
D03*
X25734D02*
D03*
X25931D02*
D03*
X26127D02*
D03*
X26324D02*
D03*
X26521D02*
D03*
X26718D02*
D03*
G54D23*
X23967Y16858D02*
D03*
Y16661D02*
D03*
Y16464D02*
D03*
Y16267D02*
D03*
Y16070D02*
D03*
Y15873D02*
D03*
Y15677D02*
D03*
Y15480D02*
D03*
Y15283D02*
D03*
Y15086D02*
D03*
Y14889D02*
D03*
Y14692D02*
D03*
X27304D02*
D03*
Y14889D02*
D03*
Y15086D02*
D03*
Y15283D02*
D03*
Y15480D02*
D03*
Y15677D02*
D03*
Y15873D02*
D03*
Y16070D02*
D03*
Y16267D02*
D03*
Y16464D02*
D03*
Y16661D02*
D03*
Y16858D02*
D03*
G54D24*
X41899Y22525D02*
D03*
Y22025D02*
D03*
Y21525D02*
D03*
Y21025D02*
D03*
Y20525D02*
D03*
Y20025D02*
D03*
Y19525D02*
D03*
X44045Y22525D02*
D03*
Y22025D02*
D03*
Y21525D02*
D03*
Y21025D02*
D03*
Y20525D02*
D03*
Y20025D02*
D03*
Y19525D02*
D03*
X41869Y29605D02*
D03*
Y29105D02*
D03*
Y28605D02*
D03*
Y28105D02*
D03*
Y27605D02*
D03*
Y27105D02*
D03*
Y26605D02*
D03*
X44015Y29605D02*
D03*
Y29105D02*
D03*
Y28605D02*
D03*
Y28105D02*
D03*
Y27605D02*
D03*
Y27105D02*
D03*
Y26605D02*
D03*
X41632Y15285D02*
D03*
Y14785D02*
D03*
Y14285D02*
D03*
Y13785D02*
D03*
Y13285D02*
D03*
Y12785D02*
D03*
Y12285D02*
D03*
X43778Y15285D02*
D03*
Y14785D02*
D03*
Y14285D02*
D03*
Y13785D02*
D03*
Y13285D02*
D03*
Y12785D02*
D03*
Y12285D02*
D03*
X43912Y34445D02*
D03*
Y34945D02*
D03*
Y35445D02*
D03*
Y35945D02*
D03*
Y36445D02*
D03*
Y36945D02*
D03*
Y37445D02*
D03*
X41766Y34445D02*
D03*
Y34945D02*
D03*
Y35445D02*
D03*
Y35945D02*
D03*
Y36445D02*
D03*
Y36945D02*
D03*
Y37445D02*
D03*
X43805Y4715D02*
D03*
Y5215D02*
D03*
Y5715D02*
D03*
Y6215D02*
D03*
Y6715D02*
D03*
Y7215D02*
D03*
Y7715D02*
D03*
X41659Y4715D02*
D03*
Y5215D02*
D03*
Y5715D02*
D03*
Y6215D02*
D03*
Y6715D02*
D03*
Y7215D02*
D03*
Y7715D02*
D03*
G54D25*
X19510Y4733D02*
D03*
Y1820D02*
D03*
X18530Y32820D02*
D03*
Y29907D02*
D03*
G54D26*
X26016Y30866D02*
D03*
Y29960D02*
D03*
Y29054D02*
D03*
G54D27*
X28693Y29960D02*
D03*
G54D28*
X36656Y35906D02*
D03*
Y36103D02*
D03*
Y36300D02*
D03*
Y36497D02*
D03*
Y36694D02*
D03*
X34924D02*
D03*
Y36497D02*
D03*
Y36300D02*
D03*
Y36103D02*
D03*
Y35906D02*
D03*
X36398Y13951D02*
D03*
Y14148D02*
D03*
Y14345D02*
D03*
Y14542D02*
D03*
Y14739D02*
D03*
X34666D02*
D03*
Y14542D02*
D03*
Y14345D02*
D03*
Y14148D02*
D03*
Y13951D02*
D03*
X36456Y28106D02*
D03*
Y28303D02*
D03*
Y28500D02*
D03*
Y28697D02*
D03*
Y28894D02*
D03*
X34724D02*
D03*
Y28697D02*
D03*
Y28500D02*
D03*
Y28303D02*
D03*
Y28106D02*
D03*
X36398Y6911D02*
D03*
Y7108D02*
D03*
Y7305D02*
D03*
Y7502D02*
D03*
Y7699D02*
D03*
X34666D02*
D03*
Y7502D02*
D03*
Y7305D02*
D03*
Y7108D02*
D03*
Y6911D02*
D03*
X36488Y20911D02*
D03*
Y21108D02*
D03*
Y21305D02*
D03*
Y21502D02*
D03*
Y21699D02*
D03*
X34756D02*
D03*
Y21502D02*
D03*
Y21305D02*
D03*
Y21108D02*
D03*
Y20911D02*
D03*
M02*
