G04*
G04 #@! TF.GenerationSoftware,Altium Limited,Altium Designer,20.0.10 (225)*
G04*
G04 Layer_Color=8388736*
%FSLAX24Y24*%
%MOIN*%
G70*
G01*
G75*
%ADD29R,0.1104X0.0513*%
%ADD30R,0.0513X0.1104*%
%ADD31R,0.0592X0.0474*%
%ADD32R,0.0680X0.0336*%
%ADD33R,0.0474X0.0592*%
%ADD34R,0.0198X0.0661*%
%ADD35R,0.0661X0.0198*%
%ADD36O,0.0651X0.0316*%
%ADD37R,0.0907X0.1734*%
%ADD38R,0.0552X0.0474*%
%ADD39R,0.0552X0.1379*%
%ADD40R,0.0631X0.0198*%
%ADD41C,0.0671*%
%ADD42C,0.0680*%
%ADD43C,0.0611*%
%ADD44C,0.0493*%
%ADD45C,0.0880*%
%ADD46C,0.0631*%
%ADD47C,0.0710*%
%ADD48C,0.0513*%
%ADD49C,0.1486*%
%ADD50C,0.0580*%
G54D29*
X46470Y6387D02*
D03*
Y7450D02*
D03*
Y4923D02*
D03*
Y3860D02*
D03*
X46580Y18727D02*
D03*
Y19790D02*
D03*
X46540Y22333D02*
D03*
Y21270D02*
D03*
X46542Y35045D02*
D03*
Y33982D02*
D03*
X46532Y36535D02*
D03*
Y37598D02*
D03*
X46570Y15081D02*
D03*
Y14018D02*
D03*
X46620Y11317D02*
D03*
Y12380D02*
D03*
X46670Y30011D02*
D03*
Y28949D02*
D03*
X46680Y26187D02*
D03*
Y27250D02*
D03*
G54D30*
X38468Y23260D02*
D03*
X39532D02*
D03*
X38298Y19660D02*
D03*
X39362D02*
D03*
X38327Y9560D02*
D03*
X39390D02*
D03*
X39671Y34040D02*
D03*
X38609D02*
D03*
X39620Y38790D02*
D03*
X38557D02*
D03*
X39410Y12460D02*
D03*
X38347D02*
D03*
X39410Y16776D02*
D03*
X38347D02*
D03*
X39553Y26780D02*
D03*
X38490D02*
D03*
X39652Y31310D02*
D03*
X38589D02*
D03*
X39320Y5460D02*
D03*
X38257D02*
D03*
G54D31*
X29900Y29750D02*
D03*
Y29120D02*
D03*
X24882Y34780D02*
D03*
Y35410D02*
D03*
X29944Y33760D02*
D03*
Y34390D02*
D03*
X24940Y10590D02*
D03*
Y11220D02*
D03*
X28620Y8135D02*
D03*
Y7505D02*
D03*
X20940Y11280D02*
D03*
Y10650D02*
D03*
X27670Y8150D02*
D03*
Y7520D02*
D03*
X21470Y31700D02*
D03*
Y31070D02*
D03*
X22290Y4740D02*
D03*
Y4110D02*
D03*
X24842Y30905D02*
D03*
Y30275D02*
D03*
X31260Y34380D02*
D03*
Y33750D02*
D03*
X29884Y37245D02*
D03*
Y36615D02*
D03*
G54D32*
X26362Y36025D02*
D03*
Y35525D02*
D03*
Y35025D02*
D03*
Y34525D02*
D03*
X28497D02*
D03*
Y35025D02*
D03*
Y35525D02*
D03*
Y36025D02*
D03*
G54D33*
X27772Y37205D02*
D03*
X28402D02*
D03*
X36135Y35160D02*
D03*
X35505D02*
D03*
X36005Y27400D02*
D03*
X35375D02*
D03*
X35945Y20180D02*
D03*
X35315D02*
D03*
X29690Y16490D02*
D03*
X30320D02*
D03*
X29720Y15370D02*
D03*
X30350D02*
D03*
X29820Y14100D02*
D03*
X30450D02*
D03*
X29840Y12910D02*
D03*
X30470D02*
D03*
X35840Y13210D02*
D03*
X35210D02*
D03*
X35830Y6220D02*
D03*
X35200D02*
D03*
X29760Y8090D02*
D03*
X30390D02*
D03*
X30590Y20350D02*
D03*
X29960D02*
D03*
X31700Y22160D02*
D03*
X32330D02*
D03*
X21140Y18890D02*
D03*
X21770D02*
D03*
G54D34*
X26718Y17443D02*
D03*
X26521D02*
D03*
X26324D02*
D03*
X26127D02*
D03*
X25931D02*
D03*
X25734D02*
D03*
X25537D02*
D03*
X25340D02*
D03*
X25143D02*
D03*
X24946D02*
D03*
X24750D02*
D03*
X24553D02*
D03*
Y14106D02*
D03*
X24750D02*
D03*
X24946D02*
D03*
X25143D02*
D03*
X25340D02*
D03*
X25537D02*
D03*
X25734D02*
D03*
X25931D02*
D03*
X26127D02*
D03*
X26324D02*
D03*
X26521D02*
D03*
X26718D02*
D03*
G54D35*
X23967Y16858D02*
D03*
Y16661D02*
D03*
Y16464D02*
D03*
Y16267D02*
D03*
Y16070D02*
D03*
Y15873D02*
D03*
Y15677D02*
D03*
Y15480D02*
D03*
Y15283D02*
D03*
Y15086D02*
D03*
Y14889D02*
D03*
Y14692D02*
D03*
X27304D02*
D03*
Y14889D02*
D03*
Y15086D02*
D03*
Y15283D02*
D03*
Y15480D02*
D03*
Y15677D02*
D03*
Y15873D02*
D03*
Y16070D02*
D03*
Y16267D02*
D03*
Y16464D02*
D03*
Y16661D02*
D03*
Y16858D02*
D03*
G54D36*
X41899Y22525D02*
D03*
Y22025D02*
D03*
Y21525D02*
D03*
Y21025D02*
D03*
Y20525D02*
D03*
Y20025D02*
D03*
Y19525D02*
D03*
X44045Y22525D02*
D03*
Y22025D02*
D03*
Y21525D02*
D03*
Y21025D02*
D03*
Y20525D02*
D03*
Y20025D02*
D03*
Y19525D02*
D03*
X41869Y29605D02*
D03*
Y29105D02*
D03*
Y28605D02*
D03*
Y28105D02*
D03*
Y27605D02*
D03*
Y27105D02*
D03*
Y26605D02*
D03*
X44015Y29605D02*
D03*
Y29105D02*
D03*
Y28605D02*
D03*
Y28105D02*
D03*
Y27605D02*
D03*
Y27105D02*
D03*
Y26605D02*
D03*
X41632Y15285D02*
D03*
Y14785D02*
D03*
Y14285D02*
D03*
Y13785D02*
D03*
Y13285D02*
D03*
Y12785D02*
D03*
Y12285D02*
D03*
X43778Y15285D02*
D03*
Y14785D02*
D03*
Y14285D02*
D03*
Y13785D02*
D03*
Y13285D02*
D03*
Y12785D02*
D03*
Y12285D02*
D03*
X43912Y34445D02*
D03*
Y34945D02*
D03*
Y35445D02*
D03*
Y35945D02*
D03*
Y36445D02*
D03*
Y36945D02*
D03*
Y37445D02*
D03*
X41766Y34445D02*
D03*
Y34945D02*
D03*
Y35445D02*
D03*
Y35945D02*
D03*
Y36445D02*
D03*
Y36945D02*
D03*
Y37445D02*
D03*
X43805Y4715D02*
D03*
Y5215D02*
D03*
Y5715D02*
D03*
Y6215D02*
D03*
Y6715D02*
D03*
Y7215D02*
D03*
Y7715D02*
D03*
X41659Y4715D02*
D03*
Y5215D02*
D03*
Y5715D02*
D03*
Y6215D02*
D03*
Y6715D02*
D03*
Y7215D02*
D03*
Y7715D02*
D03*
G54D37*
X19510Y4733D02*
D03*
Y1820D02*
D03*
X18530Y32820D02*
D03*
Y29907D02*
D03*
G54D38*
X26016Y30866D02*
D03*
Y29960D02*
D03*
Y29054D02*
D03*
G54D39*
X28693Y29960D02*
D03*
G54D40*
X36656Y35906D02*
D03*
Y36103D02*
D03*
Y36300D02*
D03*
Y36497D02*
D03*
Y36694D02*
D03*
X34924D02*
D03*
Y36497D02*
D03*
Y36300D02*
D03*
Y36103D02*
D03*
Y35906D02*
D03*
X36398Y13951D02*
D03*
Y14148D02*
D03*
Y14345D02*
D03*
Y14542D02*
D03*
Y14739D02*
D03*
X34666D02*
D03*
Y14542D02*
D03*
Y14345D02*
D03*
Y14148D02*
D03*
Y13951D02*
D03*
X36456Y28106D02*
D03*
Y28303D02*
D03*
Y28500D02*
D03*
Y28697D02*
D03*
Y28894D02*
D03*
X34724D02*
D03*
Y28697D02*
D03*
Y28500D02*
D03*
Y28303D02*
D03*
Y28106D02*
D03*
X36398Y6911D02*
D03*
Y7108D02*
D03*
Y7305D02*
D03*
Y7502D02*
D03*
Y7699D02*
D03*
X34666D02*
D03*
Y7502D02*
D03*
Y7305D02*
D03*
Y7108D02*
D03*
Y6911D02*
D03*
X36488Y20911D02*
D03*
Y21108D02*
D03*
Y21305D02*
D03*
Y21502D02*
D03*
Y21699D02*
D03*
X34756D02*
D03*
Y21502D02*
D03*
Y21305D02*
D03*
Y21108D02*
D03*
Y20911D02*
D03*
G54D41*
X36820Y1020D02*
D03*
X35820D02*
D03*
X34820D02*
D03*
X33820D02*
D03*
X29165Y40551D02*
D03*
X28165D02*
D03*
X27165D02*
D03*
X26165D02*
D03*
X25165D02*
D03*
X24165D02*
D03*
X1300Y8700D02*
D03*
X22570Y11490D02*
D03*
X23570D02*
D03*
X22570Y10490D02*
D03*
X23570D02*
D03*
X22570Y9490D02*
D03*
X23570D02*
D03*
X55000Y15700D02*
D03*
Y16700D02*
D03*
X57800Y15700D02*
D03*
Y16700D02*
D03*
X60600Y15700D02*
D03*
Y16700D02*
D03*
X63400Y15700D02*
D03*
Y16700D02*
D03*
X66200Y15700D02*
D03*
Y16700D02*
D03*
Y18900D02*
D03*
Y19900D02*
D03*
X63400Y18900D02*
D03*
Y19900D02*
D03*
X60600Y18900D02*
D03*
Y19900D02*
D03*
X57800Y18900D02*
D03*
Y19900D02*
D03*
X55000Y18900D02*
D03*
Y19900D02*
D03*
Y22100D02*
D03*
Y23100D02*
D03*
X57800Y22100D02*
D03*
Y23100D02*
D03*
X60600Y22100D02*
D03*
Y23100D02*
D03*
X63400Y22100D02*
D03*
Y23100D02*
D03*
X66200Y25300D02*
D03*
Y26300D02*
D03*
X63400Y25300D02*
D03*
Y26300D02*
D03*
X60600Y25300D02*
D03*
Y26300D02*
D03*
X57800Y25300D02*
D03*
Y26300D02*
D03*
X55000Y25300D02*
D03*
Y26300D02*
D03*
X1300Y14800D02*
D03*
Y12200D02*
D03*
Y5500D02*
D03*
X1250Y2250D02*
D03*
X66200Y23100D02*
D03*
Y22100D02*
D03*
X31630Y20290D02*
D03*
X32630D02*
D03*
X28732Y5207D02*
D03*
X27748D02*
D03*
Y5994D02*
D03*
X28732D02*
D03*
G54D42*
X27559Y25591D02*
D03*
X19685Y37402D02*
D03*
Y7874D02*
D03*
X53150Y3937D02*
D03*
Y37402D02*
D03*
G54D43*
X3260Y21740D02*
D03*
X5228Y21740D02*
D03*
X3366Y40150D02*
D03*
X5334Y40150D02*
D03*
G54D44*
X47390Y9410D02*
D03*
X46890D02*
D03*
X46390D02*
D03*
X46832Y32395D02*
D03*
X46332D02*
D03*
X45832D02*
D03*
X50270Y14860D02*
D03*
X49770D02*
D03*
X49270D02*
D03*
X50010Y18770D02*
D03*
X49510D02*
D03*
X49010D02*
D03*
X47820Y17250D02*
D03*
X47320D02*
D03*
X46820D02*
D03*
X50050Y26310D02*
D03*
X49550D02*
D03*
X49050D02*
D03*
X43542Y24625D02*
D03*
X43042D02*
D03*
X42542D02*
D03*
X43602Y10215D02*
D03*
X43102D02*
D03*
X42602D02*
D03*
X50110Y22700D02*
D03*
X49610D02*
D03*
X49110D02*
D03*
X45802Y39255D02*
D03*
X46302D02*
D03*
X46802D02*
D03*
X49472Y37832D02*
D03*
Y37332D02*
D03*
Y36832D02*
D03*
X48950Y33910D02*
D03*
X49450D02*
D03*
X49950D02*
D03*
X42290Y16590D02*
D03*
X42790D02*
D03*
X43290D02*
D03*
X49040Y11620D02*
D03*
X49540D02*
D03*
X50040D02*
D03*
X42300Y31330D02*
D03*
X42800D02*
D03*
X43300D02*
D03*
X49552Y29705D02*
D03*
Y29205D02*
D03*
Y28705D02*
D03*
X46190Y1060D02*
D03*
X46690D02*
D03*
X47190D02*
D03*
X48880Y7510D02*
D03*
X49380D02*
D03*
X49880D02*
D03*
X48930Y3860D02*
D03*
X49430D02*
D03*
X49930D02*
D03*
X45972Y23845D02*
D03*
X46472D02*
D03*
X46972D02*
D03*
G54D45*
X3686Y2396D02*
D03*
Y6333D02*
D03*
Y13223D02*
D03*
Y17160D02*
D03*
X3300Y38547D02*
D03*
Y34610D02*
D03*
Y27720D02*
D03*
Y23783D02*
D03*
G54D46*
X7620Y37790D02*
D03*
Y35790D02*
D03*
Y25790D02*
D03*
X14620D02*
D03*
Y27790D02*
D03*
G54D47*
X15410Y20590D02*
D03*
X7221D02*
D03*
Y2873D02*
D03*
X10371D02*
D03*
X18909Y16403D02*
D03*
X19909D02*
D03*
G54D48*
X26423Y20893D02*
D03*
X24501D02*
D03*
G54D49*
X25870Y4140D02*
D03*
X30610D02*
D03*
G54D50*
X39240Y20580D02*
D03*
X38350Y18550D02*
D03*
X38320Y11300D02*
D03*
X41460Y25830D02*
D03*
X40430Y12000D02*
D03*
X41120Y19040D02*
D03*
X31900Y11910D02*
D03*
X31850Y13910D02*
D03*
X26750Y38050D02*
D03*
X25140Y36750D02*
D03*
X25100Y13150D02*
D03*
X23420Y18831D02*
D03*
X25140Y29030D02*
D03*
X23869Y14109D02*
D03*
X24850Y15150D02*
D03*
X50421Y34618D02*
D03*
X25430Y12380D02*
D03*
X25240Y18400D02*
D03*
X24650Y18290D02*
D03*
X45370Y6215D02*
D03*
X44500Y5690D02*
D03*
X44211Y6695D02*
D03*
X32730Y5500D02*
D03*
X36780Y6220D02*
D03*
X29870Y14690D02*
D03*
X44790Y14310D02*
D03*
X45570Y13785D02*
D03*
X38550Y37070D02*
D03*
X45647Y35945D02*
D03*
X40140Y36310D02*
D03*
X45180Y35465D02*
D03*
Y36490D02*
D03*
X45200Y37340D02*
D03*
X38500Y29160D02*
D03*
X44830Y27580D02*
D03*
X45531Y28105D02*
D03*
X41123Y28110D02*
D03*
X41013Y27540D02*
D03*
X44990Y29165D02*
D03*
X44980Y28585D02*
D03*
X38350Y24300D02*
D03*
X45150Y21500D02*
D03*
X45662Y21000D02*
D03*
X30350Y18880D02*
D03*
X29360Y17890D02*
D03*
X28765Y15845D02*
D03*
X26380Y16210D02*
D03*
X26137Y16737D02*
D03*
X23060Y31120D02*
D03*
X26600Y14920D02*
D03*
X26370Y15620D02*
D03*
X27520Y17490D02*
D03*
X31850Y6450D02*
D03*
X28140Y13920D02*
D03*
X29142Y13082D02*
D03*
X34640Y8200D02*
D03*
X33920Y8760D02*
D03*
X28695Y8910D02*
D03*
X27210Y14010D02*
D03*
X30590Y20970D02*
D03*
X26350Y18330D02*
D03*
X23010Y14880D02*
D03*
X37700Y21150D02*
D03*
X34040Y28930D02*
D03*
X33510Y29620D02*
D03*
X34040Y21750D02*
D03*
X33530Y22480D02*
D03*
X33490Y15540D02*
D03*
X33990Y37370D02*
D03*
X34020Y36680D02*
D03*
X29250Y16930D02*
D03*
X34020Y14760D02*
D03*
X42790Y33700D02*
D03*
X40895Y35945D02*
D03*
X41315Y21025D02*
D03*
X40930Y21590D02*
D03*
X45130Y20540D02*
D03*
X44820Y13240D02*
D03*
X40963Y13717D02*
D03*
X40846Y5595D02*
D03*
X40905Y6215D02*
D03*
X40942Y6794D02*
D03*
X37672Y7108D02*
D03*
X37160Y7920D02*
D03*
X36980Y8530D02*
D03*
X39830Y14110D02*
D03*
X37662Y14148D02*
D03*
X40710Y14330D02*
D03*
X36970Y13110D02*
D03*
X37730Y15080D02*
D03*
X36398Y15478D02*
D03*
X37106Y20510D02*
D03*
X37390Y21970D02*
D03*
X36550Y22380D02*
D03*
X40310Y27320D02*
D03*
X37520Y27250D02*
D03*
X37480Y27940D02*
D03*
X37520Y29370D02*
D03*
X36640Y29780D02*
D03*
X39247Y36147D02*
D03*
X37430Y35460D02*
D03*
X37463Y36103D02*
D03*
X37380Y36970D02*
D03*
X36760Y37540D02*
D03*
X45240Y38060D02*
D03*
M02*
