G04*
G04 #@! TF.GenerationSoftware,Altium Limited,Altium Designer,20.0.10 (225)*
G04*
G04 Layer_Color=32896*
%FSLAX24Y24*%
%MOIN*%
G70*
G01*
G75*
%ADD12C,0.0079*%
G36*
X25604Y22604D02*
X25619Y22601D01*
X25632Y22597D01*
X25643Y22592D01*
X25648Y22590D01*
X25652Y22587D01*
X25656Y22585D01*
X25658Y22583D01*
X25661Y22581D01*
X25662Y22580D01*
X25663Y22580D01*
X25664Y22579D01*
X25674Y22568D01*
X25683Y22557D01*
X25689Y22545D01*
X25695Y22532D01*
X25698Y22522D01*
X25700Y22517D01*
X25701Y22514D01*
X25702Y22510D01*
X25702Y22508D01*
X25703Y22506D01*
Y22506D01*
X25656Y22497D01*
X25653Y22510D01*
X25650Y22520D01*
X25646Y22529D01*
X25642Y22536D01*
X25638Y22542D01*
X25635Y22546D01*
X25633Y22548D01*
X25632Y22549D01*
X25625Y22555D01*
X25617Y22559D01*
X25610Y22562D01*
X25603Y22564D01*
X25596Y22565D01*
X25591Y22566D01*
X25587D01*
X25577Y22566D01*
X25568Y22563D01*
X25560Y22561D01*
X25553Y22558D01*
X25548Y22555D01*
X25545Y22552D01*
X25542Y22550D01*
X25541Y22549D01*
X25535Y22542D01*
X25531Y22535D01*
X25528Y22528D01*
X25526Y22521D01*
X25525Y22515D01*
X25523Y22511D01*
Y22507D01*
Y22507D01*
Y22506D01*
Y22500D01*
X25525Y22495D01*
X25527Y22485D01*
X25531Y22477D01*
X25536Y22470D01*
X25540Y22465D01*
X25544Y22461D01*
X25547Y22459D01*
X25547Y22458D01*
X25548D01*
X25557Y22453D01*
X25566Y22449D01*
X25576Y22446D01*
X25584Y22445D01*
X25591Y22444D01*
X25597Y22442D01*
X25604D01*
X25607Y22443D01*
X25609D01*
X25615Y22401D01*
X25608Y22403D01*
X25601Y22404D01*
X25596Y22405D01*
X25591Y22406D01*
X25587Y22406D01*
X25582D01*
X25570Y22405D01*
X25560Y22403D01*
X25550Y22400D01*
X25542Y22396D01*
X25536Y22392D01*
X25532Y22389D01*
X25529Y22386D01*
X25528Y22385D01*
X25521Y22377D01*
X25515Y22368D01*
X25511Y22359D01*
X25509Y22350D01*
X25507Y22343D01*
X25507Y22337D01*
X25506Y22335D01*
Y22333D01*
Y22332D01*
Y22331D01*
X25507Y22319D01*
X25510Y22308D01*
X25513Y22299D01*
X25518Y22290D01*
X25522Y22284D01*
X25526Y22279D01*
X25528Y22275D01*
X25530Y22274D01*
X25538Y22267D01*
X25548Y22261D01*
X25557Y22257D01*
X25566Y22254D01*
X25574Y22253D01*
X25580Y22252D01*
X25582Y22252D01*
X25586D01*
X25596Y22252D01*
X25605Y22254D01*
X25613Y22257D01*
X25620Y22260D01*
X25626Y22263D01*
X25630Y22266D01*
X25632Y22268D01*
X25633Y22269D01*
X25640Y22277D01*
X25646Y22285D01*
X25651Y22295D01*
X25654Y22305D01*
X25657Y22313D01*
X25658Y22317D01*
X25659Y22320D01*
X25659Y22323D01*
X25660Y22325D01*
X25661Y22326D01*
Y22327D01*
X25708Y22321D01*
X25707Y22312D01*
X25705Y22304D01*
X25700Y22288D01*
X25694Y22275D01*
X25691Y22269D01*
X25687Y22264D01*
X25684Y22259D01*
X25681Y22255D01*
X25678Y22251D01*
X25675Y22248D01*
X25673Y22246D01*
X25672Y22244D01*
X25671Y22243D01*
X25670Y22243D01*
X25663Y22238D01*
X25657Y22233D01*
X25650Y22229D01*
X25643Y22225D01*
X25629Y22220D01*
X25616Y22217D01*
X25609Y22215D01*
X25604Y22214D01*
X25599Y22214D01*
X25594Y22213D01*
X25591Y22213D01*
X25586D01*
X25576Y22213D01*
X25566Y22214D01*
X25557Y22216D01*
X25548Y22218D01*
X25540Y22221D01*
X25532Y22224D01*
X25525Y22227D01*
X25519Y22230D01*
X25513Y22233D01*
X25508Y22237D01*
X25503Y22239D01*
X25500Y22242D01*
X25497Y22244D01*
X25495Y22246D01*
X25494Y22247D01*
X25493Y22248D01*
X25487Y22254D01*
X25481Y22262D01*
X25476Y22269D01*
X25472Y22276D01*
X25468Y22283D01*
X25465Y22290D01*
X25461Y22303D01*
X25460Y22309D01*
X25459Y22315D01*
X25457Y22320D01*
X25457Y22324D01*
X25456Y22328D01*
Y22330D01*
Y22332D01*
Y22333D01*
X25457Y22346D01*
X25459Y22358D01*
X25462Y22369D01*
X25466Y22378D01*
X25469Y22385D01*
X25472Y22390D01*
X25475Y22394D01*
X25475Y22395D01*
X25483Y22403D01*
X25491Y22410D01*
X25500Y22416D01*
X25509Y22420D01*
X25517Y22424D01*
X25523Y22426D01*
X25525Y22426D01*
X25527Y22427D01*
X25528Y22427D01*
X25528D01*
X25519Y22432D01*
X25511Y22437D01*
X25505Y22443D01*
X25499Y22448D01*
X25495Y22452D01*
X25491Y22456D01*
X25490Y22459D01*
X25489Y22460D01*
X25485Y22467D01*
X25481Y22475D01*
X25478Y22483D01*
X25477Y22490D01*
X25476Y22496D01*
X25475Y22501D01*
Y22504D01*
Y22505D01*
X25476Y22515D01*
X25477Y22524D01*
X25480Y22532D01*
X25482Y22540D01*
X25485Y22546D01*
X25487Y22551D01*
X25489Y22553D01*
X25490Y22555D01*
X25495Y22563D01*
X25502Y22570D01*
X25508Y22576D01*
X25515Y22582D01*
X25521Y22586D01*
X25526Y22589D01*
X25529Y22591D01*
X25530Y22591D01*
X25530D01*
X25540Y22596D01*
X25550Y22599D01*
X25560Y22602D01*
X25569Y22603D01*
X25576Y22605D01*
X25582Y22605D01*
X25596D01*
X25604Y22604D01*
D02*
G37*
G36*
X26076Y22219D02*
X26025D01*
Y22390D01*
X25959D01*
X25953Y22389D01*
X25949D01*
X25945Y22389D01*
X25942Y22388D01*
X25940D01*
X25939Y22388D01*
X25938D01*
X25929Y22385D01*
X25925Y22383D01*
X25922Y22381D01*
X25919Y22380D01*
X25916Y22379D01*
X25915Y22378D01*
X25915Y22378D01*
X25910Y22374D01*
X25906Y22370D01*
X25898Y22362D01*
X25894Y22358D01*
X25891Y22355D01*
X25889Y22353D01*
X25889Y22352D01*
X25883Y22344D01*
X25877Y22336D01*
X25871Y22327D01*
X25865Y22319D01*
X25860Y22311D01*
X25856Y22305D01*
X25854Y22303D01*
X25853Y22301D01*
X25852Y22300D01*
Y22299D01*
X25801Y22219D01*
X25738D01*
X25804Y22324D01*
X25812Y22335D01*
X25819Y22345D01*
X25826Y22353D01*
X25833Y22361D01*
X25838Y22366D01*
X25843Y22371D01*
X25845Y22374D01*
X25846Y22375D01*
X25851Y22378D01*
X25856Y22382D01*
X25866Y22388D01*
X25870Y22390D01*
X25874Y22393D01*
X25876Y22394D01*
X25877Y22394D01*
X25867Y22396D01*
X25858Y22398D01*
X25849Y22400D01*
X25841Y22403D01*
X25834Y22405D01*
X25827Y22409D01*
X25821Y22411D01*
X25815Y22414D01*
X25811Y22418D01*
X25806Y22420D01*
X25803Y22422D01*
X25800Y22425D01*
X25798Y22426D01*
X25796Y22428D01*
X25796Y22429D01*
X25795Y22429D01*
X25791Y22435D01*
X25787Y22440D01*
X25780Y22452D01*
X25775Y22464D01*
X25772Y22475D01*
X25770Y22484D01*
X25769Y22488D01*
Y22492D01*
X25769Y22495D01*
Y22497D01*
Y22498D01*
Y22499D01*
X25769Y22510D01*
X25771Y22521D01*
X25774Y22531D01*
X25777Y22539D01*
X25780Y22546D01*
X25782Y22552D01*
X25784Y22555D01*
X25785Y22556D01*
Y22556D01*
X25792Y22565D01*
X25798Y22573D01*
X25805Y22580D01*
X25812Y22585D01*
X25818Y22588D01*
X25823Y22591D01*
X25826Y22592D01*
X25827Y22593D01*
X25828D01*
X25833Y22595D01*
X25839Y22596D01*
X25851Y22599D01*
X25864Y22601D01*
X25876Y22602D01*
X25888Y22603D01*
X25893D01*
X25898Y22603D01*
X26076D01*
Y22219D01*
D02*
G37*
G36*
X25299Y22604D02*
X25313Y22602D01*
X25325Y22598D01*
X25335Y22594D01*
X25343Y22590D01*
X25346Y22588D01*
X25349Y22586D01*
X25351Y22585D01*
X25353Y22583D01*
X25354Y22582D01*
X25354D01*
X25364Y22573D01*
X25372Y22563D01*
X25380Y22552D01*
X25385Y22542D01*
X25390Y22533D01*
X25392Y22529D01*
X25393Y22525D01*
X25394Y22522D01*
X25395Y22520D01*
X25396Y22519D01*
Y22519D01*
X25398Y22510D01*
X25400Y22502D01*
X25404Y22484D01*
X25406Y22465D01*
X25408Y22448D01*
X25409Y22440D01*
X25409Y22432D01*
Y22426D01*
X25410Y22420D01*
Y22415D01*
Y22411D01*
Y22409D01*
Y22409D01*
X25409Y22389D01*
X25408Y22371D01*
X25406Y22354D01*
X25404Y22339D01*
X25401Y22324D01*
X25397Y22311D01*
X25394Y22300D01*
X25391Y22290D01*
X25387Y22281D01*
X25384Y22273D01*
X25381Y22267D01*
X25378Y22262D01*
X25375Y22257D01*
X25374Y22254D01*
X25372Y22253D01*
X25372Y22252D01*
X25366Y22245D01*
X25359Y22239D01*
X25352Y22234D01*
X25345Y22229D01*
X25338Y22225D01*
X25330Y22222D01*
X25323Y22220D01*
X25316Y22218D01*
X25310Y22216D01*
X25304Y22215D01*
X25298Y22214D01*
X25294Y22213D01*
X25290Y22213D01*
X25284D01*
X25269Y22214D01*
X25255Y22216D01*
X25244Y22220D01*
X25234Y22224D01*
X25225Y22228D01*
X25223Y22230D01*
X25220Y22232D01*
X25218Y22233D01*
X25216Y22234D01*
X25215Y22235D01*
X25215D01*
X25205Y22244D01*
X25197Y22254D01*
X25189Y22265D01*
X25184Y22275D01*
X25179Y22285D01*
X25177Y22289D01*
X25176Y22293D01*
X25175Y22295D01*
X25174Y22298D01*
X25173Y22299D01*
Y22299D01*
X25170Y22308D01*
X25168Y22316D01*
X25165Y22334D01*
X25162Y22352D01*
X25160Y22370D01*
X25160Y22378D01*
X25159Y22385D01*
Y22391D01*
X25159Y22398D01*
Y22402D01*
Y22406D01*
Y22408D01*
Y22409D01*
Y22419D01*
X25159Y22429D01*
Y22438D01*
X25160Y22447D01*
X25161Y22455D01*
X25162Y22462D01*
X25162Y22469D01*
X25163Y22475D01*
X25164Y22481D01*
X25165Y22486D01*
X25165Y22490D01*
X25166Y22493D01*
X25167Y22496D01*
X25167Y22497D01*
X25168Y22499D01*
Y22499D01*
X25171Y22511D01*
X25175Y22522D01*
X25179Y22532D01*
X25183Y22540D01*
X25187Y22547D01*
X25189Y22552D01*
X25191Y22555D01*
X25192Y22556D01*
X25198Y22565D01*
X25204Y22572D01*
X25210Y22578D01*
X25217Y22583D01*
X25222Y22587D01*
X25227Y22590D01*
X25229Y22592D01*
X25230Y22592D01*
X25230D01*
X25239Y22597D01*
X25249Y22600D01*
X25258Y22602D01*
X25266Y22603D01*
X25273Y22605D01*
X25279Y22605D01*
X25284D01*
X25299Y22604D01*
D02*
G37*
G36*
X24272Y15784D02*
X24278Y15775D01*
X24286Y15767D01*
X24292Y15759D01*
X24299Y15752D01*
X24304Y15747D01*
X24306Y15745D01*
X24308Y15743D01*
X24308Y15743D01*
X24309Y15742D01*
X24321Y15733D01*
X24332Y15724D01*
X24343Y15716D01*
X24354Y15710D01*
X24364Y15704D01*
X24368Y15702D01*
X24371Y15700D01*
X24374Y15699D01*
X24376Y15698D01*
X24377Y15697D01*
X24378D01*
Y15652D01*
X24369Y15655D01*
X24361Y15659D01*
X24353Y15663D01*
X24345Y15667D01*
X24338Y15670D01*
X24333Y15673D01*
X24329Y15675D01*
X24329Y15675D01*
X24328D01*
X24318Y15682D01*
X24309Y15688D01*
X24302Y15693D01*
X24296Y15698D01*
X24290Y15702D01*
X24287Y15705D01*
X24284Y15708D01*
X24283Y15708D01*
Y15408D01*
X24236D01*
Y15794D01*
X24267D01*
X24272Y15784D01*
D02*
G37*
G36*
X24634Y15798D02*
X24652Y15795D01*
X24667Y15791D01*
X24675Y15789D01*
X24681Y15787D01*
X24687Y15785D01*
X24693Y15783D01*
X24697Y15781D01*
X24702Y15779D01*
X24705Y15778D01*
X24707Y15776D01*
X24709Y15776D01*
X24709Y15775D01*
X24724Y15766D01*
X24737Y15755D01*
X24748Y15744D01*
X24757Y15733D01*
X24765Y15723D01*
X24767Y15718D01*
X24770Y15714D01*
X24772Y15712D01*
X24773Y15709D01*
X24773Y15708D01*
X24774Y15707D01*
X24782Y15690D01*
X24787Y15672D01*
X24791Y15654D01*
X24794Y15638D01*
X24795Y15631D01*
X24796Y15624D01*
X24796Y15618D01*
Y15613D01*
X24797Y15609D01*
Y15606D01*
Y15603D01*
Y15603D01*
X24796Y15583D01*
X24793Y15563D01*
X24791Y15546D01*
X24788Y15538D01*
X24787Y15531D01*
X24785Y15524D01*
X24783Y15518D01*
X24781Y15512D01*
X24780Y15508D01*
X24778Y15505D01*
X24778Y15502D01*
X24777Y15500D01*
Y15500D01*
X24768Y15483D01*
X24759Y15468D01*
X24749Y15455D01*
X24744Y15450D01*
X24740Y15445D01*
X24735Y15441D01*
X24731Y15437D01*
X24727Y15433D01*
X24723Y15431D01*
X24721Y15429D01*
X24719Y15427D01*
X24718Y15427D01*
X24717Y15426D01*
X24710Y15422D01*
X24702Y15418D01*
X24685Y15412D01*
X24669Y15407D01*
X24652Y15405D01*
X24645Y15404D01*
X24638Y15402D01*
X24632Y15402D01*
X24627D01*
X24622Y15401D01*
X24616D01*
X24605Y15402D01*
X24595Y15403D01*
X24585Y15404D01*
X24575Y15406D01*
X24566Y15409D01*
X24558Y15412D01*
X24550Y15415D01*
X24543Y15418D01*
X24537Y15421D01*
X24531Y15424D01*
X24526Y15426D01*
X24522Y15429D01*
X24519Y15431D01*
X24516Y15432D01*
X24515Y15433D01*
X24515Y15434D01*
X24507Y15441D01*
X24500Y15447D01*
X24494Y15455D01*
X24488Y15463D01*
X24478Y15478D01*
X24470Y15494D01*
X24467Y15501D01*
X24464Y15508D01*
X24462Y15514D01*
X24460Y15519D01*
X24459Y15523D01*
X24458Y15527D01*
X24457Y15529D01*
Y15530D01*
X24508Y15542D01*
X24510Y15533D01*
X24513Y15525D01*
X24516Y15517D01*
X24519Y15510D01*
X24522Y15503D01*
X24525Y15498D01*
X24529Y15492D01*
X24533Y15487D01*
X24535Y15483D01*
X24539Y15480D01*
X24541Y15476D01*
X24544Y15473D01*
X24546Y15472D01*
X24548Y15470D01*
X24548Y15470D01*
X24549Y15469D01*
X24554Y15465D01*
X24560Y15461D01*
X24573Y15455D01*
X24584Y15451D01*
X24596Y15448D01*
X24606Y15446D01*
X24610Y15445D01*
X24614D01*
X24617Y15445D01*
X24621D01*
X24634Y15445D01*
X24646Y15447D01*
X24657Y15450D01*
X24667Y15453D01*
X24675Y15457D01*
X24678Y15458D01*
X24681Y15460D01*
X24683Y15461D01*
X24685Y15462D01*
X24686Y15462D01*
X24686D01*
X24697Y15470D01*
X24706Y15478D01*
X24714Y15488D01*
X24720Y15497D01*
X24725Y15505D01*
X24728Y15511D01*
X24729Y15514D01*
X24730Y15516D01*
X24731Y15517D01*
Y15517D01*
X24735Y15532D01*
X24738Y15546D01*
X24741Y15561D01*
X24743Y15574D01*
X24743Y15580D01*
X24744Y15586D01*
Y15591D01*
X24745Y15594D01*
Y15598D01*
Y15601D01*
Y15602D01*
Y15603D01*
X24744Y15617D01*
X24743Y15631D01*
X24741Y15643D01*
X24738Y15654D01*
X24737Y15663D01*
X24736Y15667D01*
X24735Y15670D01*
X24734Y15673D01*
X24733Y15675D01*
X24733Y15676D01*
Y15677D01*
X24727Y15689D01*
X24721Y15701D01*
X24715Y15710D01*
X24707Y15719D01*
X24701Y15725D01*
X24696Y15730D01*
X24692Y15733D01*
X24692Y15734D01*
X24691D01*
X24680Y15741D01*
X24667Y15747D01*
X24655Y15750D01*
X24643Y15753D01*
X24632Y15754D01*
X24628Y15755D01*
X24624D01*
X24621Y15755D01*
X24617D01*
X24603Y15755D01*
X24590Y15753D01*
X24580Y15749D01*
X24570Y15746D01*
X24563Y15742D01*
X24558Y15739D01*
X24554Y15737D01*
X24553Y15736D01*
X24544Y15728D01*
X24536Y15718D01*
X24529Y15708D01*
X24524Y15698D01*
X24519Y15689D01*
X24518Y15685D01*
X24516Y15682D01*
X24515Y15679D01*
X24514Y15677D01*
X24514Y15675D01*
Y15675D01*
X24464Y15687D01*
X24467Y15697D01*
X24470Y15705D01*
X24475Y15714D01*
X24479Y15722D01*
X24483Y15729D01*
X24488Y15736D01*
X24493Y15743D01*
X24497Y15748D01*
X24501Y15753D01*
X24505Y15757D01*
X24509Y15761D01*
X24512Y15764D01*
X24515Y15767D01*
X24517Y15768D01*
X24518Y15769D01*
X24519Y15769D01*
X24526Y15774D01*
X24534Y15779D01*
X24542Y15783D01*
X24550Y15786D01*
X24567Y15791D01*
X24582Y15795D01*
X24589Y15796D01*
X24595Y15797D01*
X24601Y15798D01*
X24606Y15798D01*
X24610Y15799D01*
X24616D01*
X24634Y15798D01*
D02*
G37*
G36*
X24112Y15742D02*
X23924D01*
X23937Y15725D01*
X23950Y15708D01*
X23961Y15692D01*
X23971Y15675D01*
X23976Y15668D01*
X23980Y15662D01*
X23984Y15655D01*
X23986Y15651D01*
X23989Y15646D01*
X23990Y15643D01*
X23991Y15641D01*
X23992Y15641D01*
X24003Y15618D01*
X24013Y15596D01*
X24021Y15575D01*
X24025Y15566D01*
X24028Y15556D01*
X24031Y15548D01*
X24034Y15540D01*
X24036Y15533D01*
X24038Y15528D01*
X24039Y15523D01*
X24040Y15520D01*
X24041Y15517D01*
Y15517D01*
X24046Y15494D01*
X24049Y15483D01*
X24050Y15473D01*
X24052Y15463D01*
X24054Y15454D01*
X24055Y15446D01*
X24056Y15438D01*
X24056Y15432D01*
X24057Y15426D01*
X24057Y15420D01*
Y15416D01*
X24058Y15412D01*
Y15410D01*
Y15409D01*
Y15408D01*
X24010D01*
X24008Y15429D01*
X24005Y15448D01*
X24003Y15466D01*
X24001Y15475D01*
X23999Y15482D01*
X23998Y15489D01*
X23996Y15495D01*
X23995Y15501D01*
X23994Y15505D01*
X23993Y15508D01*
X23993Y15511D01*
X23992Y15513D01*
Y15513D01*
X23984Y15539D01*
X23975Y15563D01*
X23970Y15574D01*
X23966Y15586D01*
X23961Y15596D01*
X23956Y15606D01*
X23953Y15614D01*
X23949Y15622D01*
X23945Y15629D01*
X23943Y15635D01*
X23940Y15640D01*
X23938Y15643D01*
X23937Y15646D01*
X23937Y15646D01*
X23930Y15658D01*
X23923Y15669D01*
X23917Y15680D01*
X23910Y15690D01*
X23904Y15699D01*
X23898Y15708D01*
X23892Y15715D01*
X23887Y15722D01*
X23882Y15729D01*
X23877Y15734D01*
X23873Y15739D01*
X23869Y15743D01*
X23867Y15746D01*
X23865Y15748D01*
X23864Y15749D01*
X23863Y15750D01*
Y15787D01*
X24112D01*
Y15742D01*
D02*
G37*
G36*
X28022Y18484D02*
X28028Y18475D01*
X28036Y18467D01*
X28042Y18459D01*
X28049Y18452D01*
X28054Y18447D01*
X28056Y18445D01*
X28058Y18443D01*
X28058Y18443D01*
X28059Y18442D01*
X28071Y18433D01*
X28082Y18424D01*
X28093Y18416D01*
X28104Y18410D01*
X28114Y18404D01*
X28118Y18402D01*
X28121Y18400D01*
X28124Y18399D01*
X28126Y18398D01*
X28127Y18397D01*
X28128D01*
Y18352D01*
X28119Y18355D01*
X28111Y18359D01*
X28103Y18363D01*
X28095Y18367D01*
X28088Y18370D01*
X28083Y18373D01*
X28079Y18375D01*
X28079Y18375D01*
X28078D01*
X28068Y18382D01*
X28059Y18388D01*
X28052Y18393D01*
X28046Y18398D01*
X28040Y18402D01*
X28037Y18405D01*
X28034Y18408D01*
X28033Y18408D01*
Y18108D01*
X27986D01*
Y18494D01*
X28017D01*
X28022Y18484D01*
D02*
G37*
G36*
X27740Y18493D02*
X27751Y18492D01*
X27761Y18490D01*
X27770Y18487D01*
X27779Y18483D01*
X27787Y18480D01*
X27794Y18475D01*
X27801Y18471D01*
X27806Y18468D01*
X27812Y18463D01*
X27816Y18460D01*
X27820Y18457D01*
X27822Y18453D01*
X27825Y18451D01*
X27826Y18450D01*
X27826Y18449D01*
X27834Y18439D01*
X27840Y18428D01*
X27845Y18415D01*
X27850Y18403D01*
X27854Y18389D01*
X27857Y18376D01*
X27860Y18362D01*
X27862Y18349D01*
X27864Y18337D01*
X27865Y18325D01*
X27866Y18314D01*
X27867Y18306D01*
Y18298D01*
X27867Y18292D01*
Y18290D01*
Y18288D01*
Y18288D01*
Y18287D01*
X27867Y18269D01*
X27866Y18253D01*
X27864Y18237D01*
X27861Y18223D01*
X27859Y18210D01*
X27856Y18198D01*
X27852Y18188D01*
X27849Y18178D01*
X27845Y18171D01*
X27842Y18163D01*
X27839Y18158D01*
X27836Y18153D01*
X27834Y18149D01*
X27832Y18147D01*
X27831Y18145D01*
X27830Y18145D01*
X27823Y18137D01*
X27815Y18130D01*
X27807Y18125D01*
X27800Y18120D01*
X27791Y18115D01*
X27784Y18112D01*
X27776Y18109D01*
X27768Y18107D01*
X27761Y18105D01*
X27755Y18104D01*
X27749Y18102D01*
X27744Y18102D01*
X27740D01*
X27737Y18101D01*
X27734D01*
X27721Y18102D01*
X27710Y18104D01*
X27699Y18106D01*
X27690Y18110D01*
X27683Y18112D01*
X27677Y18115D01*
X27675Y18116D01*
X27673Y18117D01*
X27673Y18117D01*
X27672D01*
X27663Y18124D01*
X27654Y18132D01*
X27647Y18140D01*
X27640Y18147D01*
X27635Y18155D01*
X27632Y18160D01*
X27631Y18162D01*
X27630Y18164D01*
X27629Y18165D01*
Y18165D01*
X27624Y18177D01*
X27620Y18189D01*
X27617Y18200D01*
X27615Y18211D01*
X27614Y18220D01*
Y18223D01*
X27613Y18226D01*
Y18229D01*
Y18231D01*
Y18232D01*
Y18232D01*
X27614Y18242D01*
X27615Y18252D01*
X27617Y18261D01*
X27618Y18269D01*
X27621Y18277D01*
X27624Y18285D01*
X27627Y18292D01*
X27630Y18298D01*
X27633Y18303D01*
X27636Y18308D01*
X27639Y18312D01*
X27642Y18316D01*
X27643Y18319D01*
X27645Y18321D01*
X27646Y18322D01*
X27647Y18322D01*
X27653Y18328D01*
X27659Y18334D01*
X27667Y18338D01*
X27673Y18342D01*
X27680Y18346D01*
X27687Y18349D01*
X27699Y18353D01*
X27705Y18354D01*
X27710Y18355D01*
X27715Y18356D01*
X27719Y18357D01*
X27723Y18357D01*
X27727D01*
X27737Y18357D01*
X27746Y18355D01*
X27755Y18353D01*
X27763Y18351D01*
X27770Y18348D01*
X27775Y18347D01*
X27778Y18345D01*
X27779Y18344D01*
X27779D01*
X27788Y18339D01*
X27796Y18333D01*
X27803Y18327D01*
X27809Y18320D01*
X27814Y18314D01*
X27817Y18310D01*
X27820Y18307D01*
X27820Y18306D01*
Y18316D01*
X27820Y18326D01*
X27819Y18335D01*
X27818Y18344D01*
X27817Y18352D01*
X27816Y18359D01*
X27815Y18365D01*
X27814Y18372D01*
X27812Y18377D01*
X27811Y18382D01*
X27810Y18385D01*
X27810Y18389D01*
X27809Y18391D01*
X27808Y18393D01*
X27807Y18394D01*
Y18394D01*
X27802Y18405D01*
X27796Y18415D01*
X27790Y18423D01*
X27785Y18430D01*
X27780Y18435D01*
X27776Y18439D01*
X27773Y18442D01*
X27772Y18442D01*
X27765Y18447D01*
X27759Y18449D01*
X27752Y18452D01*
X27745Y18453D01*
X27740Y18454D01*
X27736Y18455D01*
X27732D01*
X27722Y18454D01*
X27713Y18452D01*
X27705Y18448D01*
X27698Y18445D01*
X27692Y18441D01*
X27688Y18438D01*
X27686Y18435D01*
X27685Y18434D01*
X27681Y18429D01*
X27677Y18423D01*
X27674Y18417D01*
X27672Y18410D01*
X27669Y18404D01*
X27668Y18399D01*
X27667Y18395D01*
X27667Y18395D01*
Y18394D01*
X27619Y18398D01*
X27623Y18414D01*
X27628Y18428D01*
X27633Y18440D01*
X27639Y18450D01*
X27645Y18458D01*
X27648Y18461D01*
X27650Y18464D01*
X27652Y18465D01*
X27654Y18467D01*
X27654Y18468D01*
X27655Y18468D01*
X27660Y18473D01*
X27667Y18476D01*
X27679Y18483D01*
X27691Y18488D01*
X27703Y18490D01*
X27713Y18493D01*
X27718Y18493D01*
X27721D01*
X27725Y18494D01*
X27729D01*
X27740Y18493D01*
D02*
G37*
G36*
X28384Y18498D02*
X28402Y18495D01*
X28417Y18491D01*
X28425Y18489D01*
X28431Y18487D01*
X28437Y18485D01*
X28443Y18483D01*
X28447Y18481D01*
X28452Y18479D01*
X28455Y18478D01*
X28457Y18476D01*
X28459Y18476D01*
X28459Y18475D01*
X28474Y18466D01*
X28487Y18455D01*
X28498Y18444D01*
X28507Y18433D01*
X28515Y18423D01*
X28517Y18418D01*
X28520Y18414D01*
X28522Y18412D01*
X28523Y18409D01*
X28523Y18408D01*
X28524Y18407D01*
X28532Y18390D01*
X28537Y18372D01*
X28541Y18354D01*
X28544Y18338D01*
X28545Y18331D01*
X28546Y18324D01*
X28546Y18318D01*
Y18313D01*
X28547Y18309D01*
Y18306D01*
Y18303D01*
Y18303D01*
X28546Y18283D01*
X28543Y18263D01*
X28541Y18246D01*
X28538Y18238D01*
X28537Y18231D01*
X28535Y18224D01*
X28533Y18218D01*
X28531Y18212D01*
X28530Y18208D01*
X28528Y18205D01*
X28528Y18202D01*
X28527Y18200D01*
Y18200D01*
X28518Y18183D01*
X28509Y18168D01*
X28499Y18155D01*
X28494Y18150D01*
X28490Y18145D01*
X28485Y18141D01*
X28481Y18137D01*
X28477Y18133D01*
X28473Y18131D01*
X28471Y18129D01*
X28469Y18127D01*
X28468Y18127D01*
X28467Y18126D01*
X28460Y18122D01*
X28452Y18118D01*
X28435Y18112D01*
X28419Y18107D01*
X28402Y18105D01*
X28395Y18104D01*
X28388Y18102D01*
X28382Y18102D01*
X28377D01*
X28372Y18101D01*
X28366D01*
X28355Y18102D01*
X28345Y18103D01*
X28335Y18104D01*
X28325Y18106D01*
X28316Y18109D01*
X28308Y18112D01*
X28300Y18115D01*
X28293Y18118D01*
X28287Y18121D01*
X28281Y18124D01*
X28276Y18126D01*
X28272Y18129D01*
X28269Y18131D01*
X28266Y18132D01*
X28265Y18133D01*
X28265Y18134D01*
X28257Y18141D01*
X28250Y18147D01*
X28244Y18155D01*
X28238Y18163D01*
X28228Y18178D01*
X28220Y18194D01*
X28217Y18201D01*
X28214Y18208D01*
X28212Y18214D01*
X28210Y18219D01*
X28209Y18223D01*
X28208Y18227D01*
X28207Y18229D01*
Y18230D01*
X28258Y18242D01*
X28260Y18233D01*
X28263Y18225D01*
X28266Y18217D01*
X28269Y18210D01*
X28272Y18203D01*
X28275Y18198D01*
X28279Y18192D01*
X28283Y18187D01*
X28285Y18183D01*
X28289Y18180D01*
X28291Y18176D01*
X28294Y18173D01*
X28296Y18172D01*
X28298Y18170D01*
X28298Y18170D01*
X28299Y18169D01*
X28304Y18165D01*
X28310Y18161D01*
X28323Y18155D01*
X28334Y18151D01*
X28346Y18148D01*
X28356Y18146D01*
X28360Y18145D01*
X28364D01*
X28367Y18145D01*
X28371D01*
X28384Y18145D01*
X28396Y18147D01*
X28407Y18150D01*
X28417Y18153D01*
X28425Y18157D01*
X28428Y18158D01*
X28431Y18160D01*
X28433Y18161D01*
X28435Y18162D01*
X28436Y18162D01*
X28436D01*
X28447Y18170D01*
X28456Y18178D01*
X28464Y18188D01*
X28470Y18197D01*
X28475Y18205D01*
X28478Y18211D01*
X28479Y18214D01*
X28480Y18216D01*
X28481Y18217D01*
Y18217D01*
X28485Y18232D01*
X28488Y18246D01*
X28491Y18261D01*
X28493Y18274D01*
X28493Y18280D01*
X28494Y18286D01*
Y18291D01*
X28495Y18294D01*
Y18298D01*
Y18301D01*
Y18302D01*
Y18303D01*
X28494Y18317D01*
X28493Y18331D01*
X28491Y18343D01*
X28488Y18354D01*
X28487Y18363D01*
X28486Y18367D01*
X28485Y18370D01*
X28484Y18373D01*
X28483Y18375D01*
X28483Y18376D01*
Y18377D01*
X28477Y18389D01*
X28471Y18401D01*
X28465Y18410D01*
X28457Y18419D01*
X28451Y18425D01*
X28446Y18430D01*
X28442Y18433D01*
X28442Y18434D01*
X28441D01*
X28430Y18441D01*
X28417Y18447D01*
X28405Y18450D01*
X28393Y18453D01*
X28382Y18454D01*
X28378Y18455D01*
X28374D01*
X28371Y18455D01*
X28367D01*
X28353Y18455D01*
X28340Y18453D01*
X28330Y18449D01*
X28320Y18446D01*
X28313Y18442D01*
X28308Y18439D01*
X28304Y18437D01*
X28303Y18436D01*
X28294Y18428D01*
X28286Y18418D01*
X28279Y18408D01*
X28274Y18398D01*
X28269Y18389D01*
X28268Y18385D01*
X28266Y18382D01*
X28265Y18379D01*
X28264Y18377D01*
X28264Y18375D01*
Y18375D01*
X28214Y18387D01*
X28217Y18397D01*
X28220Y18405D01*
X28225Y18414D01*
X28229Y18422D01*
X28233Y18429D01*
X28238Y18436D01*
X28243Y18443D01*
X28247Y18448D01*
X28251Y18453D01*
X28255Y18457D01*
X28259Y18461D01*
X28262Y18464D01*
X28265Y18467D01*
X28267Y18468D01*
X28268Y18469D01*
X28269Y18469D01*
X28276Y18474D01*
X28284Y18479D01*
X28292Y18483D01*
X28300Y18486D01*
X28317Y18491D01*
X28332Y18495D01*
X28339Y18496D01*
X28345Y18497D01*
X28351Y18498D01*
X28356Y18498D01*
X28360Y18499D01*
X28366D01*
X28384Y18498D01*
D02*
G37*
G36*
X26771Y12503D02*
X26786Y12500D01*
X26799Y12495D01*
X26810Y12491D01*
X26815Y12488D01*
X26819Y12486D01*
X26822Y12484D01*
X26825Y12481D01*
X26827Y12480D01*
X26829Y12479D01*
X26830Y12478D01*
X26831Y12478D01*
X26841Y12467D01*
X26850Y12455D01*
X26856Y12443D01*
X26862Y12431D01*
X26865Y12420D01*
X26867Y12416D01*
X26868Y12412D01*
X26869Y12409D01*
X26869Y12407D01*
X26870Y12405D01*
Y12404D01*
X26822Y12396D01*
X26820Y12408D01*
X26817Y12419D01*
X26813Y12428D01*
X26809Y12435D01*
X26805Y12440D01*
X26802Y12444D01*
X26800Y12447D01*
X26799Y12448D01*
X26792Y12453D01*
X26784Y12458D01*
X26777Y12460D01*
X26770Y12463D01*
X26763Y12464D01*
X26758Y12465D01*
X26754D01*
X26744Y12464D01*
X26735Y12462D01*
X26727Y12459D01*
X26720Y12457D01*
X26715Y12453D01*
X26711Y12450D01*
X26709Y12448D01*
X26708Y12448D01*
X26702Y12441D01*
X26698Y12434D01*
X26695Y12427D01*
X26693Y12420D01*
X26692Y12414D01*
X26690Y12409D01*
Y12406D01*
Y12405D01*
Y12405D01*
Y12399D01*
X26692Y12393D01*
X26694Y12384D01*
X26698Y12375D01*
X26703Y12368D01*
X26707Y12363D01*
X26711Y12359D01*
X26714Y12357D01*
X26714Y12357D01*
X26715D01*
X26724Y12352D01*
X26733Y12348D01*
X26743Y12345D01*
X26751Y12343D01*
X26758Y12342D01*
X26764Y12341D01*
X26771D01*
X26774Y12342D01*
X26776D01*
X26782Y12300D01*
X26775Y12302D01*
X26768Y12303D01*
X26763Y12304D01*
X26758Y12304D01*
X26754Y12305D01*
X26749D01*
X26737Y12304D01*
X26726Y12302D01*
X26717Y12298D01*
X26709Y12294D01*
X26703Y12291D01*
X26699Y12287D01*
X26696Y12285D01*
X26695Y12284D01*
X26688Y12276D01*
X26682Y12267D01*
X26678Y12258D01*
X26676Y12249D01*
X26674Y12242D01*
X26674Y12236D01*
X26673Y12233D01*
Y12232D01*
Y12231D01*
Y12230D01*
X26674Y12218D01*
X26677Y12207D01*
X26680Y12197D01*
X26685Y12189D01*
X26689Y12182D01*
X26693Y12177D01*
X26695Y12174D01*
X26697Y12173D01*
X26705Y12165D01*
X26715Y12160D01*
X26724Y12156D01*
X26733Y12153D01*
X26741Y12151D01*
X26747Y12151D01*
X26749Y12150D01*
X26753D01*
X26763Y12151D01*
X26772Y12153D01*
X26780Y12156D01*
X26787Y12159D01*
X26793Y12162D01*
X26797Y12165D01*
X26799Y12167D01*
X26800Y12167D01*
X26807Y12175D01*
X26813Y12184D01*
X26817Y12193D01*
X26821Y12203D01*
X26824Y12212D01*
X26825Y12216D01*
X26826Y12219D01*
X26826Y12222D01*
X26827Y12224D01*
X26827Y12225D01*
Y12226D01*
X26875Y12220D01*
X26874Y12211D01*
X26872Y12202D01*
X26867Y12187D01*
X26861Y12173D01*
X26857Y12168D01*
X26854Y12162D01*
X26851Y12157D01*
X26847Y12153D01*
X26845Y12150D01*
X26842Y12147D01*
X26840Y12145D01*
X26839Y12143D01*
X26837Y12142D01*
X26837Y12141D01*
X26830Y12136D01*
X26824Y12131D01*
X26817Y12127D01*
X26810Y12124D01*
X26796Y12119D01*
X26783Y12115D01*
X26776Y12114D01*
X26771Y12113D01*
X26766Y12112D01*
X26761Y12112D01*
X26758Y12111D01*
X26753D01*
X26743Y12112D01*
X26733Y12113D01*
X26724Y12115D01*
X26715Y12117D01*
X26706Y12120D01*
X26699Y12122D01*
X26692Y12126D01*
X26686Y12129D01*
X26680Y12132D01*
X26675Y12135D01*
X26670Y12138D01*
X26667Y12141D01*
X26664Y12143D01*
X26662Y12145D01*
X26661Y12146D01*
X26660Y12146D01*
X26654Y12153D01*
X26648Y12160D01*
X26643Y12167D01*
X26639Y12175D01*
X26635Y12181D01*
X26632Y12188D01*
X26628Y12202D01*
X26627Y12208D01*
X26625Y12213D01*
X26624Y12218D01*
X26624Y12223D01*
X26623Y12226D01*
Y12229D01*
Y12231D01*
Y12231D01*
X26624Y12245D01*
X26626Y12257D01*
X26629Y12267D01*
X26633Y12276D01*
X26636Y12283D01*
X26639Y12289D01*
X26642Y12292D01*
X26642Y12293D01*
X26650Y12302D01*
X26658Y12309D01*
X26667Y12314D01*
X26676Y12319D01*
X26684Y12322D01*
X26690Y12324D01*
X26692Y12325D01*
X26694Y12326D01*
X26695Y12326D01*
X26695D01*
X26686Y12331D01*
X26678Y12336D01*
X26672Y12342D01*
X26666Y12347D01*
X26662Y12351D01*
X26658Y12355D01*
X26657Y12357D01*
X26656Y12358D01*
X26652Y12366D01*
X26648Y12374D01*
X26645Y12382D01*
X26644Y12389D01*
X26643Y12395D01*
X26642Y12399D01*
Y12403D01*
Y12404D01*
X26643Y12413D01*
X26644Y12423D01*
X26647Y12431D01*
X26649Y12438D01*
X26652Y12444D01*
X26654Y12449D01*
X26656Y12452D01*
X26657Y12453D01*
X26662Y12462D01*
X26669Y12469D01*
X26675Y12475D01*
X26682Y12480D01*
X26688Y12484D01*
X26693Y12488D01*
X26696Y12489D01*
X26697Y12490D01*
X26697D01*
X26707Y12494D01*
X26717Y12498D01*
X26727Y12500D01*
X26736Y12502D01*
X26743Y12503D01*
X26749Y12504D01*
X26763D01*
X26771Y12503D01*
D02*
G37*
G36*
X27032Y12494D02*
X27038Y12485D01*
X27046Y12477D01*
X27052Y12469D01*
X27059Y12462D01*
X27064Y12457D01*
X27066Y12455D01*
X27068Y12453D01*
X27068Y12453D01*
X27069Y12452D01*
X27081Y12443D01*
X27092Y12434D01*
X27103Y12426D01*
X27114Y12420D01*
X27124Y12414D01*
X27128Y12412D01*
X27131Y12410D01*
X27134Y12409D01*
X27136Y12408D01*
X27137Y12407D01*
X27138D01*
Y12362D01*
X27129Y12365D01*
X27121Y12369D01*
X27113Y12373D01*
X27105Y12377D01*
X27098Y12380D01*
X27093Y12383D01*
X27089Y12385D01*
X27089Y12385D01*
X27088D01*
X27078Y12392D01*
X27069Y12398D01*
X27062Y12403D01*
X27056Y12408D01*
X27050Y12412D01*
X27047Y12415D01*
X27044Y12418D01*
X27043Y12418D01*
Y12118D01*
X26996D01*
Y12504D01*
X27027D01*
X27032Y12494D01*
D02*
G37*
G36*
X27394Y12508D02*
X27412Y12505D01*
X27427Y12501D01*
X27435Y12499D01*
X27441Y12497D01*
X27447Y12495D01*
X27453Y12493D01*
X27457Y12491D01*
X27462Y12489D01*
X27465Y12488D01*
X27467Y12486D01*
X27469Y12486D01*
X27469Y12485D01*
X27484Y12476D01*
X27497Y12465D01*
X27508Y12454D01*
X27517Y12443D01*
X27525Y12433D01*
X27527Y12428D01*
X27530Y12424D01*
X27532Y12422D01*
X27533Y12419D01*
X27533Y12418D01*
X27534Y12417D01*
X27542Y12400D01*
X27547Y12382D01*
X27551Y12364D01*
X27554Y12348D01*
X27555Y12341D01*
X27556Y12334D01*
X27556Y12328D01*
Y12323D01*
X27557Y12319D01*
Y12316D01*
Y12313D01*
Y12313D01*
X27556Y12293D01*
X27553Y12273D01*
X27551Y12256D01*
X27548Y12248D01*
X27547Y12241D01*
X27545Y12234D01*
X27543Y12228D01*
X27541Y12222D01*
X27540Y12218D01*
X27538Y12215D01*
X27538Y12212D01*
X27537Y12210D01*
Y12210D01*
X27528Y12193D01*
X27519Y12178D01*
X27509Y12165D01*
X27504Y12160D01*
X27500Y12155D01*
X27495Y12151D01*
X27491Y12147D01*
X27487Y12143D01*
X27483Y12141D01*
X27481Y12139D01*
X27479Y12137D01*
X27478Y12137D01*
X27477Y12136D01*
X27470Y12132D01*
X27462Y12128D01*
X27445Y12122D01*
X27429Y12117D01*
X27412Y12115D01*
X27405Y12114D01*
X27398Y12112D01*
X27392Y12112D01*
X27387D01*
X27382Y12111D01*
X27376D01*
X27365Y12112D01*
X27355Y12113D01*
X27345Y12114D01*
X27335Y12116D01*
X27326Y12119D01*
X27318Y12122D01*
X27310Y12125D01*
X27303Y12128D01*
X27297Y12131D01*
X27291Y12134D01*
X27286Y12136D01*
X27282Y12139D01*
X27279Y12141D01*
X27276Y12142D01*
X27275Y12143D01*
X27275Y12144D01*
X27267Y12151D01*
X27260Y12157D01*
X27254Y12165D01*
X27248Y12173D01*
X27238Y12188D01*
X27230Y12204D01*
X27227Y12211D01*
X27224Y12218D01*
X27222Y12224D01*
X27220Y12229D01*
X27219Y12233D01*
X27218Y12237D01*
X27217Y12239D01*
Y12240D01*
X27268Y12252D01*
X27270Y12243D01*
X27273Y12235D01*
X27276Y12227D01*
X27279Y12220D01*
X27282Y12213D01*
X27285Y12208D01*
X27289Y12202D01*
X27293Y12197D01*
X27295Y12193D01*
X27299Y12190D01*
X27301Y12186D01*
X27304Y12183D01*
X27306Y12182D01*
X27308Y12180D01*
X27308Y12180D01*
X27309Y12179D01*
X27314Y12175D01*
X27320Y12171D01*
X27333Y12165D01*
X27344Y12161D01*
X27356Y12158D01*
X27366Y12156D01*
X27370Y12155D01*
X27374D01*
X27377Y12155D01*
X27381D01*
X27394Y12155D01*
X27406Y12157D01*
X27417Y12160D01*
X27427Y12163D01*
X27435Y12167D01*
X27438Y12168D01*
X27441Y12170D01*
X27443Y12171D01*
X27445Y12172D01*
X27446Y12172D01*
X27446D01*
X27457Y12180D01*
X27466Y12188D01*
X27474Y12198D01*
X27480Y12207D01*
X27485Y12215D01*
X27488Y12221D01*
X27489Y12224D01*
X27490Y12226D01*
X27491Y12227D01*
Y12227D01*
X27495Y12242D01*
X27498Y12256D01*
X27501Y12271D01*
X27503Y12284D01*
X27503Y12290D01*
X27504Y12296D01*
Y12301D01*
X27505Y12304D01*
Y12308D01*
Y12311D01*
Y12312D01*
Y12313D01*
X27504Y12327D01*
X27503Y12341D01*
X27501Y12353D01*
X27498Y12364D01*
X27497Y12373D01*
X27496Y12377D01*
X27495Y12380D01*
X27494Y12383D01*
X27493Y12385D01*
X27493Y12386D01*
Y12387D01*
X27487Y12399D01*
X27481Y12411D01*
X27475Y12420D01*
X27467Y12429D01*
X27461Y12435D01*
X27456Y12440D01*
X27452Y12443D01*
X27452Y12444D01*
X27451D01*
X27440Y12451D01*
X27427Y12457D01*
X27415Y12460D01*
X27403Y12463D01*
X27392Y12464D01*
X27388Y12465D01*
X27384D01*
X27381Y12465D01*
X27377D01*
X27363Y12465D01*
X27350Y12463D01*
X27340Y12459D01*
X27330Y12456D01*
X27323Y12452D01*
X27318Y12449D01*
X27314Y12447D01*
X27313Y12446D01*
X27304Y12438D01*
X27296Y12428D01*
X27289Y12418D01*
X27284Y12408D01*
X27279Y12399D01*
X27278Y12395D01*
X27276Y12392D01*
X27275Y12389D01*
X27274Y12387D01*
X27274Y12385D01*
Y12385D01*
X27224Y12397D01*
X27227Y12407D01*
X27230Y12415D01*
X27235Y12424D01*
X27239Y12432D01*
X27243Y12439D01*
X27248Y12446D01*
X27253Y12453D01*
X27257Y12458D01*
X27261Y12463D01*
X27265Y12467D01*
X27269Y12471D01*
X27272Y12474D01*
X27275Y12477D01*
X27277Y12478D01*
X27278Y12479D01*
X27279Y12479D01*
X27286Y12484D01*
X27294Y12489D01*
X27302Y12493D01*
X27310Y12496D01*
X27327Y12501D01*
X27342Y12505D01*
X27349Y12506D01*
X27355Y12507D01*
X27361Y12508D01*
X27366Y12508D01*
X27370Y12509D01*
X27376D01*
X27394Y12508D01*
D02*
G37*
G36*
X21286Y14143D02*
X21296Y14143D01*
X21304Y14141D01*
X21313Y14139D01*
X21321Y14137D01*
X21328Y14135D01*
X21334Y14132D01*
X21341Y14129D01*
X21346Y14126D01*
X21351Y14124D01*
X21354Y14121D01*
X21358Y14119D01*
X21361Y14118D01*
X21362Y14116D01*
X21363Y14115D01*
X21364Y14115D01*
X21369Y14109D01*
X21374Y14103D01*
X21379Y14097D01*
X21383Y14090D01*
X21390Y14077D01*
X21394Y14063D01*
X21396Y14057D01*
X21398Y14051D01*
X21399Y14046D01*
X21400Y14042D01*
X21400Y14038D01*
Y14035D01*
X21401Y14033D01*
Y14033D01*
X21353Y14028D01*
X21352Y14040D01*
X21349Y14052D01*
X21346Y14062D01*
X21342Y14069D01*
X21339Y14076D01*
X21336Y14080D01*
X21333Y14083D01*
X21332Y14084D01*
X21324Y14091D01*
X21315Y14096D01*
X21306Y14100D01*
X21297Y14102D01*
X21290Y14104D01*
X21283Y14104D01*
X21281Y14105D01*
X21277D01*
X21266Y14104D01*
X21255Y14102D01*
X21246Y14099D01*
X21238Y14095D01*
X21232Y14092D01*
X21228Y14089D01*
X21226Y14087D01*
X21225Y14085D01*
X21218Y14078D01*
X21213Y14070D01*
X21209Y14062D01*
X21207Y14054D01*
X21205Y14048D01*
X21205Y14043D01*
X21204Y14039D01*
Y14039D01*
Y14038D01*
X21205Y14028D01*
X21207Y14018D01*
X21211Y14008D01*
X21215Y13999D01*
X21220Y13992D01*
X21223Y13986D01*
X21225Y13984D01*
X21226Y13982D01*
X21227Y13982D01*
Y13981D01*
X21231Y13975D01*
X21237Y13969D01*
X21243Y13962D01*
X21250Y13956D01*
X21263Y13942D01*
X21277Y13929D01*
X21284Y13923D01*
X21291Y13917D01*
X21297Y13912D01*
X21302Y13908D01*
X21306Y13904D01*
X21309Y13902D01*
X21311Y13900D01*
X21312Y13899D01*
X21326Y13888D01*
X21338Y13877D01*
X21349Y13867D01*
X21357Y13858D01*
X21364Y13851D01*
X21369Y13846D01*
X21372Y13843D01*
X21373Y13842D01*
Y13842D01*
X21381Y13832D01*
X21387Y13823D01*
X21393Y13815D01*
X21397Y13807D01*
X21400Y13800D01*
X21403Y13795D01*
X21404Y13792D01*
X21404Y13791D01*
Y13791D01*
X21407Y13785D01*
X21408Y13779D01*
X21409Y13774D01*
X21409Y13769D01*
X21410Y13764D01*
Y13761D01*
Y13759D01*
Y13758D01*
X21155D01*
Y13803D01*
X21344D01*
X21338Y13813D01*
X21334Y13817D01*
X21332Y13821D01*
X21329Y13824D01*
X21327Y13826D01*
X21325Y13828D01*
X21324Y13828D01*
X21322Y13831D01*
X21318Y13834D01*
X21311Y13841D01*
X21302Y13850D01*
X21292Y13858D01*
X21283Y13865D01*
X21280Y13868D01*
X21276Y13872D01*
X21273Y13874D01*
X21271Y13876D01*
X21270Y13877D01*
X21270Y13877D01*
X21261Y13885D01*
X21252Y13892D01*
X21244Y13899D01*
X21237Y13906D01*
X21230Y13912D01*
X21225Y13917D01*
X21219Y13922D01*
X21215Y13927D01*
X21210Y13931D01*
X21207Y13934D01*
X21204Y13937D01*
X21201Y13940D01*
X21198Y13943D01*
X21197Y13944D01*
X21190Y13954D01*
X21183Y13962D01*
X21177Y13971D01*
X21173Y13977D01*
X21170Y13983D01*
X21167Y13988D01*
X21166Y13991D01*
X21166Y13992D01*
X21162Y14000D01*
X21160Y14008D01*
X21158Y14016D01*
X21157Y14023D01*
X21156Y14029D01*
X21156Y14033D01*
Y14036D01*
Y14037D01*
X21156Y14045D01*
X21157Y14053D01*
X21159Y14061D01*
X21161Y14068D01*
X21166Y14081D01*
X21172Y14092D01*
X21175Y14097D01*
X21178Y14100D01*
X21181Y14104D01*
X21183Y14107D01*
X21186Y14109D01*
X21187Y14111D01*
X21188Y14112D01*
X21188Y14113D01*
X21195Y14118D01*
X21201Y14123D01*
X21208Y14127D01*
X21216Y14130D01*
X21230Y14136D01*
X21245Y14140D01*
X21251Y14141D01*
X21257Y14142D01*
X21262Y14143D01*
X21267Y14143D01*
X21271Y14144D01*
X21276D01*
X21286Y14143D01*
D02*
G37*
G36*
X21560Y14134D02*
X21566Y14125D01*
X21574Y14116D01*
X21580Y14109D01*
X21587Y14102D01*
X21592Y14097D01*
X21594Y14095D01*
X21596Y14093D01*
X21596Y14093D01*
X21597Y14092D01*
X21609Y14083D01*
X21620Y14074D01*
X21631Y14066D01*
X21642Y14060D01*
X21652Y14054D01*
X21656Y14052D01*
X21659Y14050D01*
X21662Y14049D01*
X21664Y14048D01*
X21665Y14047D01*
X21666D01*
Y14002D01*
X21657Y14005D01*
X21649Y14009D01*
X21641Y14013D01*
X21633Y14017D01*
X21626Y14020D01*
X21621Y14023D01*
X21618Y14025D01*
X21617Y14025D01*
X21616D01*
X21606Y14032D01*
X21598Y14038D01*
X21590Y14043D01*
X21584Y14048D01*
X21578Y14052D01*
X21575Y14055D01*
X21572Y14058D01*
X21571Y14058D01*
Y13758D01*
X21524D01*
Y14144D01*
X21555D01*
X21560Y14134D01*
D02*
G37*
G36*
X21922Y14148D02*
X21940Y14145D01*
X21955Y14141D01*
X21963Y14139D01*
X21969Y14137D01*
X21975Y14135D01*
X21981Y14133D01*
X21985Y14131D01*
X21990Y14129D01*
X21993Y14128D01*
X21995Y14126D01*
X21997Y14126D01*
X21997Y14125D01*
X22012Y14116D01*
X22025Y14105D01*
X22036Y14094D01*
X22045Y14083D01*
X22053Y14073D01*
X22055Y14068D01*
X22058Y14064D01*
X22060Y14062D01*
X22061Y14059D01*
X22062Y14058D01*
X22062Y14057D01*
X22070Y14040D01*
X22075Y14022D01*
X22079Y14004D01*
X22082Y13988D01*
X22083Y13981D01*
X22084Y13974D01*
X22084Y13968D01*
Y13963D01*
X22085Y13959D01*
Y13956D01*
Y13953D01*
Y13953D01*
X22084Y13933D01*
X22081Y13913D01*
X22079Y13896D01*
X22076Y13888D01*
X22075Y13881D01*
X22073Y13874D01*
X22071Y13868D01*
X22069Y13862D01*
X22068Y13858D01*
X22067Y13855D01*
X22066Y13852D01*
X22065Y13850D01*
Y13850D01*
X22057Y13833D01*
X22047Y13818D01*
X22037Y13805D01*
X22032Y13800D01*
X22028Y13795D01*
X22023Y13791D01*
X22019Y13787D01*
X22015Y13784D01*
X22012Y13781D01*
X22009Y13779D01*
X22007Y13777D01*
X22006Y13777D01*
X22005Y13776D01*
X21998Y13772D01*
X21990Y13768D01*
X21973Y13762D01*
X21957Y13757D01*
X21941Y13755D01*
X21933Y13754D01*
X21926Y13752D01*
X21920Y13752D01*
X21915D01*
X21911Y13751D01*
X21904D01*
X21893Y13752D01*
X21883Y13753D01*
X21873Y13754D01*
X21863Y13756D01*
X21854Y13759D01*
X21846Y13762D01*
X21838Y13765D01*
X21831Y13768D01*
X21825Y13771D01*
X21819Y13774D01*
X21815Y13776D01*
X21810Y13779D01*
X21807Y13781D01*
X21805Y13782D01*
X21803Y13784D01*
X21803Y13784D01*
X21795Y13791D01*
X21788Y13797D01*
X21782Y13805D01*
X21776Y13813D01*
X21766Y13828D01*
X21758Y13844D01*
X21755Y13851D01*
X21752Y13858D01*
X21750Y13864D01*
X21748Y13869D01*
X21747Y13873D01*
X21746Y13877D01*
X21745Y13879D01*
Y13880D01*
X21796Y13892D01*
X21798Y13883D01*
X21801Y13875D01*
X21804Y13867D01*
X21807Y13860D01*
X21810Y13853D01*
X21813Y13848D01*
X21817Y13842D01*
X21821Y13837D01*
X21823Y13833D01*
X21827Y13830D01*
X21830Y13826D01*
X21832Y13823D01*
X21834Y13822D01*
X21836Y13820D01*
X21836Y13820D01*
X21837Y13819D01*
X21842Y13815D01*
X21848Y13811D01*
X21861Y13805D01*
X21872Y13801D01*
X21884Y13798D01*
X21894Y13796D01*
X21898Y13795D01*
X21902D01*
X21905Y13795D01*
X21909D01*
X21922Y13795D01*
X21934Y13797D01*
X21945Y13800D01*
X21955Y13803D01*
X21963Y13807D01*
X21966Y13808D01*
X21969Y13810D01*
X21971Y13811D01*
X21973Y13812D01*
X21974Y13812D01*
X21974D01*
X21985Y13820D01*
X21994Y13828D01*
X22002Y13838D01*
X22008Y13847D01*
X22013Y13855D01*
X22016Y13861D01*
X22017Y13864D01*
X22018Y13866D01*
X22019Y13867D01*
Y13867D01*
X22023Y13882D01*
X22027Y13896D01*
X22029Y13911D01*
X22031Y13924D01*
X22032Y13930D01*
X22032Y13936D01*
Y13941D01*
X22033Y13944D01*
Y13948D01*
Y13951D01*
Y13952D01*
Y13953D01*
X22032Y13967D01*
X22031Y13981D01*
X22029Y13993D01*
X22027Y14004D01*
X22025Y14013D01*
X22024Y14017D01*
X22023Y14020D01*
X22022Y14023D01*
X22022Y14025D01*
X22021Y14026D01*
Y14027D01*
X22015Y14039D01*
X22009Y14051D01*
X22003Y14060D01*
X21995Y14069D01*
X21989Y14075D01*
X21984Y14080D01*
X21980Y14083D01*
X21980Y14084D01*
X21979D01*
X21968Y14091D01*
X21955Y14097D01*
X21943Y14100D01*
X21931Y14103D01*
X21921Y14104D01*
X21916Y14105D01*
X21912D01*
X21909Y14105D01*
X21905D01*
X21891Y14105D01*
X21878Y14103D01*
X21868Y14099D01*
X21858Y14096D01*
X21851Y14092D01*
X21846Y14089D01*
X21842Y14087D01*
X21841Y14086D01*
X21832Y14078D01*
X21824Y14068D01*
X21817Y14058D01*
X21812Y14048D01*
X21807Y14039D01*
X21806Y14035D01*
X21805Y14032D01*
X21803Y14029D01*
X21802Y14027D01*
X21802Y14025D01*
Y14025D01*
X21752Y14037D01*
X21755Y14047D01*
X21758Y14055D01*
X21763Y14064D01*
X21767Y14072D01*
X21771Y14079D01*
X21776Y14086D01*
X21781Y14093D01*
X21785Y14098D01*
X21790Y14103D01*
X21793Y14107D01*
X21797Y14111D01*
X21800Y14114D01*
X21803Y14116D01*
X21805Y14118D01*
X21806Y14119D01*
X21807Y14119D01*
X21815Y14124D01*
X21822Y14129D01*
X21830Y14133D01*
X21838Y14136D01*
X21855Y14141D01*
X21870Y14145D01*
X21877Y14146D01*
X21883Y14147D01*
X21889Y14148D01*
X21894Y14148D01*
X21898Y14149D01*
X21904D01*
X21922Y14148D01*
D02*
G37*
G36*
X23490Y23383D02*
X23505Y23380D01*
X23518Y23375D01*
X23529Y23371D01*
X23534Y23368D01*
X23538Y23366D01*
X23542Y23364D01*
X23545Y23361D01*
X23547Y23360D01*
X23548Y23359D01*
X23550Y23358D01*
X23550Y23358D01*
X23561Y23347D01*
X23569Y23335D01*
X23576Y23323D01*
X23581Y23311D01*
X23585Y23300D01*
X23586Y23296D01*
X23587Y23292D01*
X23588Y23289D01*
X23588Y23287D01*
X23589Y23285D01*
Y23284D01*
X23542Y23276D01*
X23540Y23288D01*
X23536Y23299D01*
X23532Y23308D01*
X23528Y23315D01*
X23525Y23320D01*
X23521Y23324D01*
X23519Y23327D01*
X23518Y23328D01*
X23511Y23333D01*
X23503Y23338D01*
X23496Y23340D01*
X23489Y23343D01*
X23482Y23344D01*
X23477Y23345D01*
X23473D01*
X23463Y23344D01*
X23454Y23342D01*
X23446Y23339D01*
X23440Y23337D01*
X23435Y23333D01*
X23431Y23330D01*
X23428Y23328D01*
X23427Y23328D01*
X23421Y23321D01*
X23417Y23314D01*
X23414Y23307D01*
X23412Y23300D01*
X23411Y23294D01*
X23410Y23289D01*
Y23286D01*
Y23285D01*
Y23285D01*
Y23279D01*
X23411Y23273D01*
X23414Y23264D01*
X23417Y23255D01*
X23422Y23248D01*
X23426Y23243D01*
X23430Y23239D01*
X23433Y23237D01*
X23434Y23237D01*
X23434D01*
X23444Y23232D01*
X23452Y23228D01*
X23462Y23225D01*
X23470Y23223D01*
X23477Y23222D01*
X23484Y23221D01*
X23491D01*
X23493Y23222D01*
X23496D01*
X23501Y23180D01*
X23494Y23182D01*
X23487Y23183D01*
X23482Y23184D01*
X23477Y23184D01*
X23473Y23185D01*
X23468D01*
X23456Y23184D01*
X23446Y23182D01*
X23436Y23178D01*
X23429Y23174D01*
X23422Y23171D01*
X23418Y23167D01*
X23415Y23165D01*
X23414Y23164D01*
X23407Y23156D01*
X23401Y23147D01*
X23397Y23138D01*
X23395Y23129D01*
X23394Y23122D01*
X23393Y23116D01*
X23392Y23113D01*
Y23112D01*
Y23111D01*
Y23110D01*
X23394Y23098D01*
X23396Y23087D01*
X23400Y23077D01*
X23404Y23069D01*
X23409Y23062D01*
X23412Y23057D01*
X23415Y23054D01*
X23416Y23053D01*
X23425Y23045D01*
X23434Y23040D01*
X23444Y23036D01*
X23452Y23033D01*
X23460Y23031D01*
X23466Y23031D01*
X23469Y23030D01*
X23472D01*
X23482Y23031D01*
X23491Y23033D01*
X23500Y23036D01*
X23506Y23039D01*
X23512Y23042D01*
X23516Y23045D01*
X23518Y23047D01*
X23520Y23047D01*
X23526Y23055D01*
X23532Y23064D01*
X23537Y23073D01*
X23541Y23083D01*
X23543Y23092D01*
X23545Y23096D01*
X23545Y23099D01*
X23546Y23102D01*
X23546Y23104D01*
X23547Y23105D01*
Y23106D01*
X23594Y23100D01*
X23593Y23091D01*
X23591Y23082D01*
X23586Y23067D01*
X23580Y23053D01*
X23577Y23048D01*
X23573Y23042D01*
X23570Y23037D01*
X23567Y23033D01*
X23564Y23030D01*
X23561Y23027D01*
X23560Y23025D01*
X23558Y23023D01*
X23557Y23022D01*
X23556Y23021D01*
X23550Y23016D01*
X23543Y23011D01*
X23536Y23007D01*
X23529Y23004D01*
X23515Y22999D01*
X23502Y22995D01*
X23496Y22994D01*
X23490Y22993D01*
X23485Y22992D01*
X23481Y22992D01*
X23477Y22991D01*
X23472D01*
X23462Y22992D01*
X23452Y22993D01*
X23443Y22995D01*
X23434Y22997D01*
X23426Y23000D01*
X23419Y23002D01*
X23411Y23006D01*
X23405Y23009D01*
X23399Y23012D01*
X23394Y23015D01*
X23390Y23018D01*
X23386Y23021D01*
X23384Y23023D01*
X23381Y23025D01*
X23380Y23026D01*
X23380Y23026D01*
X23373Y23033D01*
X23368Y23040D01*
X23363Y23047D01*
X23358Y23055D01*
X23355Y23061D01*
X23351Y23068D01*
X23347Y23082D01*
X23346Y23088D01*
X23345Y23093D01*
X23344Y23098D01*
X23343Y23103D01*
X23343Y23106D01*
Y23109D01*
Y23111D01*
Y23111D01*
X23343Y23125D01*
X23345Y23137D01*
X23349Y23147D01*
X23352Y23156D01*
X23355Y23163D01*
X23359Y23169D01*
X23361Y23172D01*
X23361Y23173D01*
X23369Y23182D01*
X23378Y23189D01*
X23386Y23194D01*
X23395Y23199D01*
X23403Y23202D01*
X23409Y23204D01*
X23411Y23205D01*
X23413Y23206D01*
X23414Y23206D01*
X23415D01*
X23405Y23211D01*
X23397Y23216D01*
X23391Y23222D01*
X23385Y23227D01*
X23381Y23231D01*
X23378Y23235D01*
X23376Y23237D01*
X23375Y23238D01*
X23371Y23246D01*
X23368Y23254D01*
X23365Y23262D01*
X23363Y23269D01*
X23362Y23275D01*
X23361Y23279D01*
Y23283D01*
Y23284D01*
X23362Y23293D01*
X23364Y23303D01*
X23366Y23311D01*
X23369Y23318D01*
X23371Y23324D01*
X23374Y23329D01*
X23375Y23332D01*
X23376Y23333D01*
X23381Y23342D01*
X23388Y23349D01*
X23395Y23355D01*
X23401Y23360D01*
X23407Y23364D01*
X23412Y23368D01*
X23415Y23369D01*
X23416Y23370D01*
X23416D01*
X23426Y23374D01*
X23436Y23378D01*
X23446Y23380D01*
X23455Y23382D01*
X23462Y23383D01*
X23469Y23384D01*
X23482D01*
X23490Y23383D01*
D02*
G37*
G36*
X23815Y23388D02*
X23833Y23385D01*
X23848Y23381D01*
X23855Y23379D01*
X23862Y23377D01*
X23868Y23375D01*
X23874Y23373D01*
X23878Y23371D01*
X23883Y23369D01*
X23885Y23368D01*
X23888Y23366D01*
X23889Y23366D01*
X23890Y23365D01*
X23905Y23356D01*
X23918Y23345D01*
X23929Y23334D01*
X23938Y23323D01*
X23945Y23313D01*
X23948Y23308D01*
X23950Y23304D01*
X23952Y23302D01*
X23954Y23299D01*
X23954Y23298D01*
X23955Y23297D01*
X23962Y23280D01*
X23968Y23262D01*
X23972Y23244D01*
X23975Y23228D01*
X23976Y23221D01*
X23976Y23214D01*
X23977Y23208D01*
Y23203D01*
X23977Y23199D01*
Y23196D01*
Y23193D01*
Y23193D01*
X23976Y23173D01*
X23974Y23153D01*
X23971Y23136D01*
X23969Y23128D01*
X23967Y23121D01*
X23966Y23114D01*
X23964Y23108D01*
X23962Y23102D01*
X23961Y23098D01*
X23959Y23095D01*
X23959Y23092D01*
X23957Y23090D01*
Y23090D01*
X23949Y23073D01*
X23940Y23058D01*
X23930Y23045D01*
X23925Y23040D01*
X23920Y23035D01*
X23916Y23031D01*
X23911Y23027D01*
X23908Y23024D01*
X23904Y23021D01*
X23902Y23019D01*
X23900Y23017D01*
X23899Y23017D01*
X23898Y23016D01*
X23890Y23012D01*
X23883Y23008D01*
X23866Y23002D01*
X23849Y22997D01*
X23833Y22995D01*
X23825Y22994D01*
X23819Y22992D01*
X23813Y22992D01*
X23808D01*
X23803Y22991D01*
X23797D01*
X23786Y22992D01*
X23775Y22993D01*
X23765Y22994D01*
X23756Y22996D01*
X23747Y22999D01*
X23739Y23002D01*
X23731Y23005D01*
X23724Y23008D01*
X23718Y23011D01*
X23712Y23014D01*
X23707Y23016D01*
X23703Y23019D01*
X23700Y23021D01*
X23697Y23022D01*
X23696Y23024D01*
X23696Y23024D01*
X23688Y23031D01*
X23681Y23037D01*
X23675Y23045D01*
X23669Y23053D01*
X23659Y23068D01*
X23651Y23084D01*
X23648Y23091D01*
X23645Y23098D01*
X23643Y23104D01*
X23641Y23109D01*
X23639Y23113D01*
X23638Y23117D01*
X23638Y23119D01*
Y23120D01*
X23689Y23132D01*
X23691Y23123D01*
X23694Y23115D01*
X23697Y23107D01*
X23699Y23100D01*
X23703Y23093D01*
X23706Y23088D01*
X23710Y23082D01*
X23713Y23077D01*
X23716Y23073D01*
X23719Y23070D01*
X23722Y23066D01*
X23724Y23063D01*
X23727Y23062D01*
X23728Y23060D01*
X23729Y23060D01*
X23729Y23059D01*
X23735Y23055D01*
X23741Y23051D01*
X23753Y23045D01*
X23765Y23041D01*
X23777Y23038D01*
X23787Y23036D01*
X23790Y23035D01*
X23794D01*
X23798Y23035D01*
X23802D01*
X23814Y23035D01*
X23826Y23037D01*
X23838Y23040D01*
X23848Y23043D01*
X23855Y23047D01*
X23859Y23048D01*
X23861Y23050D01*
X23864Y23051D01*
X23865Y23052D01*
X23866Y23052D01*
X23867D01*
X23878Y23060D01*
X23886Y23068D01*
X23894Y23078D01*
X23900Y23087D01*
X23905Y23095D01*
X23909Y23101D01*
X23910Y23104D01*
X23911Y23106D01*
X23911Y23107D01*
Y23107D01*
X23916Y23122D01*
X23919Y23136D01*
X23922Y23151D01*
X23924Y23164D01*
X23924Y23170D01*
X23925Y23176D01*
Y23181D01*
X23925Y23184D01*
Y23188D01*
Y23191D01*
Y23192D01*
Y23193D01*
X23925Y23207D01*
X23924Y23221D01*
X23921Y23233D01*
X23919Y23244D01*
X23918Y23253D01*
X23916Y23257D01*
X23915Y23260D01*
X23915Y23263D01*
X23914Y23265D01*
X23914Y23266D01*
Y23267D01*
X23908Y23279D01*
X23902Y23291D01*
X23895Y23300D01*
X23888Y23309D01*
X23882Y23315D01*
X23877Y23320D01*
X23873Y23323D01*
X23873Y23324D01*
X23872D01*
X23860Y23331D01*
X23848Y23337D01*
X23835Y23340D01*
X23824Y23343D01*
X23813Y23344D01*
X23809Y23345D01*
X23805D01*
X23802Y23345D01*
X23798D01*
X23784Y23345D01*
X23771Y23343D01*
X23760Y23339D01*
X23751Y23336D01*
X23744Y23332D01*
X23738Y23329D01*
X23735Y23327D01*
X23734Y23326D01*
X23725Y23318D01*
X23717Y23308D01*
X23710Y23298D01*
X23704Y23288D01*
X23700Y23279D01*
X23698Y23275D01*
X23697Y23272D01*
X23696Y23269D01*
X23695Y23267D01*
X23694Y23265D01*
Y23265D01*
X23644Y23277D01*
X23648Y23287D01*
X23651Y23295D01*
X23656Y23304D01*
X23659Y23312D01*
X23664Y23319D01*
X23669Y23326D01*
X23673Y23333D01*
X23678Y23338D01*
X23682Y23343D01*
X23686Y23347D01*
X23690Y23351D01*
X23693Y23354D01*
X23696Y23356D01*
X23698Y23358D01*
X23699Y23359D01*
X23699Y23359D01*
X23707Y23364D01*
X23715Y23369D01*
X23723Y23373D01*
X23731Y23376D01*
X23748Y23381D01*
X23763Y23385D01*
X23770Y23386D01*
X23776Y23387D01*
X23782Y23388D01*
X23787Y23388D01*
X23791Y23389D01*
X23797D01*
X23815Y23388D01*
D02*
G37*
G36*
X27571Y23372D02*
X27581Y23372D01*
X27590Y23370D01*
X27598Y23369D01*
X27606Y23366D01*
X27613Y23364D01*
X27620Y23361D01*
X27626Y23359D01*
X27631Y23356D01*
X27636Y23353D01*
X27640Y23351D01*
X27643Y23349D01*
X27646Y23347D01*
X27647Y23345D01*
X27648Y23345D01*
X27649Y23344D01*
X27655Y23339D01*
X27660Y23332D01*
X27665Y23326D01*
X27668Y23319D01*
X27675Y23306D01*
X27680Y23292D01*
X27681Y23286D01*
X27683Y23280D01*
X27684Y23275D01*
X27685Y23271D01*
X27686Y23267D01*
Y23264D01*
X27686Y23263D01*
Y23262D01*
X27638Y23257D01*
X27637Y23270D01*
X27635Y23281D01*
X27631Y23291D01*
X27627Y23299D01*
X27624Y23305D01*
X27621Y23310D01*
X27618Y23312D01*
X27617Y23314D01*
X27609Y23320D01*
X27600Y23325D01*
X27591Y23329D01*
X27582Y23331D01*
X27575Y23333D01*
X27568Y23334D01*
X27566Y23334D01*
X27562D01*
X27551Y23334D01*
X27540Y23331D01*
X27531Y23328D01*
X27524Y23325D01*
X27517Y23321D01*
X27514Y23318D01*
X27511Y23316D01*
X27510Y23315D01*
X27503Y23307D01*
X27498Y23299D01*
X27494Y23291D01*
X27492Y23284D01*
X27490Y23278D01*
X27490Y23272D01*
X27489Y23269D01*
Y23268D01*
Y23268D01*
X27490Y23258D01*
X27492Y23247D01*
X27496Y23238D01*
X27500Y23229D01*
X27505Y23221D01*
X27509Y23215D01*
X27510Y23213D01*
X27511Y23211D01*
X27512Y23211D01*
Y23210D01*
X27516Y23204D01*
X27522Y23198D01*
X27528Y23191D01*
X27535Y23185D01*
X27549Y23172D01*
X27562Y23158D01*
X27570Y23152D01*
X27576Y23147D01*
X27582Y23142D01*
X27587Y23137D01*
X27591Y23134D01*
X27594Y23131D01*
X27596Y23129D01*
X27597Y23129D01*
X27611Y23117D01*
X27623Y23106D01*
X27634Y23096D01*
X27642Y23088D01*
X27650Y23080D01*
X27655Y23075D01*
X27657Y23072D01*
X27658Y23072D01*
Y23071D01*
X27666Y23062D01*
X27672Y23053D01*
X27678Y23044D01*
X27682Y23036D01*
X27686Y23029D01*
X27688Y23024D01*
X27689Y23021D01*
X27690Y23021D01*
Y23020D01*
X27692Y23014D01*
X27693Y23008D01*
X27694Y23003D01*
X27694Y22998D01*
X27695Y22993D01*
Y22990D01*
Y22988D01*
Y22987D01*
X27440D01*
Y23033D01*
X27630D01*
X27623Y23042D01*
X27620Y23046D01*
X27617Y23050D01*
X27614Y23053D01*
X27612Y23056D01*
X27610Y23057D01*
X27610Y23058D01*
X27607Y23061D01*
X27603Y23063D01*
X27596Y23070D01*
X27587Y23079D01*
X27577Y23087D01*
X27569Y23094D01*
X27565Y23098D01*
X27561Y23101D01*
X27559Y23103D01*
X27556Y23105D01*
X27555Y23106D01*
X27555Y23107D01*
X27546Y23114D01*
X27537Y23122D01*
X27529Y23129D01*
X27522Y23135D01*
X27515Y23141D01*
X27510Y23147D01*
X27504Y23152D01*
X27500Y23156D01*
X27495Y23160D01*
X27492Y23164D01*
X27489Y23167D01*
X27486Y23169D01*
X27484Y23173D01*
X27482Y23174D01*
X27475Y23183D01*
X27468Y23191D01*
X27463Y23200D01*
X27458Y23206D01*
X27455Y23213D01*
X27453Y23217D01*
X27451Y23220D01*
X27451Y23221D01*
X27448Y23229D01*
X27445Y23238D01*
X27443Y23245D01*
X27442Y23252D01*
X27441Y23258D01*
X27441Y23263D01*
Y23265D01*
Y23266D01*
X27441Y23275D01*
X27443Y23282D01*
X27444Y23290D01*
X27446Y23297D01*
X27451Y23310D01*
X27457Y23321D01*
X27460Y23326D01*
X27463Y23330D01*
X27466Y23334D01*
X27469Y23336D01*
X27471Y23339D01*
X27472Y23341D01*
X27473Y23341D01*
X27474Y23342D01*
X27480Y23347D01*
X27486Y23352D01*
X27494Y23356D01*
X27501Y23360D01*
X27515Y23365D01*
X27530Y23369D01*
X27536Y23370D01*
X27542Y23371D01*
X27547Y23372D01*
X27552Y23372D01*
X27556Y23373D01*
X27561D01*
X27571Y23372D01*
D02*
G37*
G36*
X27909Y23377D02*
X27926Y23374D01*
X27942Y23371D01*
X27949Y23369D01*
X27956Y23366D01*
X27962Y23364D01*
X27968Y23362D01*
X27972Y23360D01*
X27976Y23359D01*
X27979Y23357D01*
X27981Y23356D01*
X27983Y23355D01*
X27984Y23355D01*
X27999Y23345D01*
X28011Y23334D01*
X28023Y23323D01*
X28032Y23312D01*
X28039Y23302D01*
X28042Y23297D01*
X28044Y23294D01*
X28046Y23291D01*
X28047Y23289D01*
X28048Y23287D01*
X28049Y23286D01*
X28056Y23269D01*
X28062Y23251D01*
X28066Y23234D01*
X28069Y23218D01*
X28070Y23210D01*
X28070Y23203D01*
X28071Y23198D01*
Y23192D01*
X28071Y23188D01*
Y23185D01*
Y23183D01*
Y23182D01*
X28070Y23162D01*
X28068Y23143D01*
X28065Y23125D01*
X28063Y23117D01*
X28061Y23110D01*
X28060Y23103D01*
X28057Y23097D01*
X28056Y23092D01*
X28055Y23087D01*
X28053Y23084D01*
X28052Y23081D01*
X28051Y23079D01*
Y23079D01*
X28043Y23062D01*
X28034Y23047D01*
X28024Y23034D01*
X28019Y23029D01*
X28014Y23024D01*
X28010Y23020D01*
X28005Y23016D01*
X28001Y23013D01*
X27998Y23011D01*
X27996Y23008D01*
X27994Y23007D01*
X27993Y23006D01*
X27992Y23006D01*
X27984Y23001D01*
X27976Y22997D01*
X27960Y22991D01*
X27943Y22987D01*
X27927Y22984D01*
X27919Y22983D01*
X27913Y22982D01*
X27907Y22981D01*
X27902D01*
X27897Y22981D01*
X27891D01*
X27880Y22981D01*
X27869Y22982D01*
X27859Y22983D01*
X27850Y22986D01*
X27841Y22988D01*
X27833Y22991D01*
X27825Y22994D01*
X27818Y22997D01*
X27812Y23000D01*
X27806Y23003D01*
X27801Y23006D01*
X27797Y23008D01*
X27794Y23011D01*
X27791Y23012D01*
X27790Y23013D01*
X27789Y23013D01*
X27782Y23020D01*
X27775Y23027D01*
X27769Y23034D01*
X27763Y23042D01*
X27753Y23058D01*
X27745Y23073D01*
X27742Y23080D01*
X27739Y23087D01*
X27737Y23093D01*
X27735Y23098D01*
X27733Y23103D01*
X27732Y23106D01*
X27732Y23108D01*
Y23109D01*
X27783Y23122D01*
X27785Y23113D01*
X27788Y23104D01*
X27791Y23097D01*
X27793Y23089D01*
X27797Y23083D01*
X27800Y23077D01*
X27804Y23072D01*
X27807Y23067D01*
X27810Y23062D01*
X27813Y23059D01*
X27816Y23056D01*
X27818Y23053D01*
X27820Y23051D01*
X27822Y23049D01*
X27823Y23049D01*
X27823Y23048D01*
X27829Y23044D01*
X27835Y23041D01*
X27847Y23034D01*
X27859Y23030D01*
X27870Y23027D01*
X27880Y23025D01*
X27884Y23024D01*
X27888D01*
X27892Y23024D01*
X27895D01*
X27908Y23024D01*
X27920Y23027D01*
X27931Y23029D01*
X27941Y23033D01*
X27949Y23036D01*
X27953Y23038D01*
X27955Y23039D01*
X27958Y23040D01*
X27959Y23041D01*
X27960Y23042D01*
X27961D01*
X27971Y23049D01*
X27980Y23058D01*
X27988Y23067D01*
X27994Y23076D01*
X27999Y23084D01*
X28003Y23090D01*
X28004Y23093D01*
X28005Y23095D01*
X28005Y23096D01*
Y23097D01*
X28010Y23111D01*
X28013Y23125D01*
X28016Y23140D01*
X28018Y23153D01*
X28018Y23159D01*
X28019Y23165D01*
Y23170D01*
X28019Y23174D01*
Y23177D01*
Y23180D01*
Y23181D01*
Y23182D01*
X28019Y23196D01*
X28018Y23210D01*
X28015Y23222D01*
X28013Y23233D01*
X28011Y23243D01*
X28010Y23246D01*
X28009Y23250D01*
X28009Y23253D01*
X28008Y23254D01*
X28008Y23255D01*
Y23256D01*
X28002Y23269D01*
X27996Y23280D01*
X27989Y23290D01*
X27982Y23298D01*
X27976Y23305D01*
X27971Y23309D01*
X27967Y23312D01*
X27966Y23313D01*
X27966D01*
X27954Y23320D01*
X27941Y23326D01*
X27929Y23330D01*
X27918Y23332D01*
X27907Y23334D01*
X27903Y23334D01*
X27899D01*
X27896Y23335D01*
X27892D01*
X27878Y23334D01*
X27865Y23332D01*
X27854Y23329D01*
X27845Y23325D01*
X27838Y23321D01*
X27832Y23319D01*
X27829Y23316D01*
X27828Y23315D01*
X27819Y23307D01*
X27810Y23297D01*
X27804Y23287D01*
X27798Y23278D01*
X27794Y23269D01*
X27792Y23264D01*
X27791Y23261D01*
X27790Y23258D01*
X27789Y23256D01*
X27788Y23255D01*
Y23254D01*
X27738Y23266D01*
X27742Y23276D01*
X27745Y23285D01*
X27749Y23293D01*
X27753Y23301D01*
X27758Y23309D01*
X27763Y23315D01*
X27767Y23322D01*
X27772Y23327D01*
X27776Y23332D01*
X27780Y23336D01*
X27784Y23340D01*
X27787Y23343D01*
X27789Y23346D01*
X27792Y23347D01*
X27793Y23348D01*
X27793Y23349D01*
X27801Y23354D01*
X27809Y23359D01*
X27817Y23362D01*
X27825Y23366D01*
X27842Y23371D01*
X27857Y23374D01*
X27864Y23376D01*
X27870Y23376D01*
X27876Y23377D01*
X27881Y23377D01*
X27885Y23378D01*
X27890D01*
X27909Y23377D01*
D02*
G37*
%LPC*%
G36*
X26025Y22561D02*
X25904D01*
X25889Y22560D01*
X25876Y22558D01*
X25865Y22555D01*
X25856Y22552D01*
X25849Y22548D01*
X25845Y22546D01*
X25842Y22543D01*
X25841Y22543D01*
X25834Y22536D01*
X25829Y22529D01*
X25826Y22521D01*
X25823Y22514D01*
X25822Y22507D01*
X25821Y22502D01*
X25821Y22499D01*
Y22499D01*
Y22498D01*
X25821Y22491D01*
X25823Y22485D01*
X25824Y22479D01*
X25826Y22474D01*
X25828Y22470D01*
X25830Y22466D01*
X25831Y22464D01*
X25831Y22464D01*
X25835Y22458D01*
X25840Y22453D01*
X25845Y22449D01*
X25850Y22446D01*
X25855Y22444D01*
X25858Y22442D01*
X25860Y22441D01*
X25861Y22440D01*
X25869Y22438D01*
X25878Y22436D01*
X25887Y22435D01*
X25896Y22435D01*
X25904Y22434D01*
X25910Y22434D01*
X26025D01*
Y22561D01*
D02*
G37*
G36*
X25288Y22566D02*
X25285D01*
X25279Y22566D01*
X25273Y22565D01*
X25267Y22563D01*
X25262Y22561D01*
X25253Y22556D01*
X25244Y22551D01*
X25238Y22545D01*
X25233Y22540D01*
X25232Y22537D01*
X25230Y22536D01*
X25229Y22535D01*
Y22535D01*
X25225Y22528D01*
X25222Y22520D01*
X25219Y22511D01*
X25217Y22502D01*
X25214Y22492D01*
X25213Y22481D01*
X25210Y22460D01*
X25209Y22450D01*
X25208Y22440D01*
X25208Y22431D01*
Y22424D01*
X25207Y22418D01*
Y22413D01*
Y22410D01*
Y22409D01*
Y22409D01*
Y22391D01*
X25208Y22376D01*
X25209Y22362D01*
X25210Y22349D01*
X25212Y22338D01*
X25214Y22327D01*
X25217Y22318D01*
X25218Y22310D01*
X25220Y22303D01*
X25223Y22298D01*
X25224Y22293D01*
X25227Y22289D01*
X25228Y22286D01*
X25229Y22284D01*
X25230Y22283D01*
Y22283D01*
X25234Y22277D01*
X25239Y22273D01*
X25243Y22268D01*
X25248Y22265D01*
X25257Y22259D01*
X25265Y22255D01*
X25273Y22253D01*
X25279Y22252D01*
X25281Y22252D01*
X25284D01*
X25290Y22252D01*
X25296Y22253D01*
X25306Y22257D01*
X25316Y22262D01*
X25324Y22267D01*
X25330Y22273D01*
X25335Y22278D01*
X25338Y22282D01*
X25339Y22282D01*
Y22283D01*
X25343Y22289D01*
X25346Y22297D01*
X25350Y22306D01*
X25352Y22315D01*
X25354Y22325D01*
X25356Y22336D01*
X25359Y22358D01*
X25360Y22368D01*
X25360Y22377D01*
X25361Y22386D01*
Y22393D01*
X25361Y22400D01*
Y22405D01*
Y22408D01*
Y22409D01*
X25361Y22426D01*
X25360Y22441D01*
X25359Y22456D01*
X25357Y22469D01*
X25356Y22481D01*
X25354Y22491D01*
X25351Y22501D01*
X25349Y22509D01*
X25347Y22516D01*
X25345Y22522D01*
X25343Y22527D01*
X25341Y22532D01*
X25340Y22535D01*
X25339Y22537D01*
X25338Y22538D01*
Y22538D01*
X25334Y22543D01*
X25330Y22548D01*
X25325Y22551D01*
X25321Y22555D01*
X25312Y22560D01*
X25304Y22563D01*
X25296Y22565D01*
X25290Y22566D01*
X25288Y22566D01*
D02*
G37*
G36*
X27740Y18316D02*
X27736D01*
X27725Y18314D01*
X27714Y18312D01*
X27705Y18308D01*
X27698Y18304D01*
X27692Y18299D01*
X27687Y18296D01*
X27684Y18293D01*
X27683Y18292D01*
X27676Y18283D01*
X27670Y18273D01*
X27667Y18262D01*
X27664Y18252D01*
X27663Y18243D01*
X27662Y18240D01*
Y18236D01*
X27662Y18233D01*
Y18231D01*
Y18230D01*
Y18230D01*
X27663Y18215D01*
X27665Y18202D01*
X27668Y18191D01*
X27672Y18181D01*
X27677Y18174D01*
X27680Y18168D01*
X27682Y18165D01*
X27683Y18165D01*
Y18164D01*
X27687Y18160D01*
X27692Y18156D01*
X27700Y18150D01*
X27709Y18146D01*
X27717Y18143D01*
X27724Y18141D01*
X27730Y18141D01*
X27732Y18140D01*
X27735D01*
X27743Y18141D01*
X27750Y18142D01*
X27756Y18144D01*
X27762Y18146D01*
X27767Y18148D01*
X27771Y18150D01*
X27773Y18151D01*
X27774Y18152D01*
X27781Y18157D01*
X27786Y18162D01*
X27791Y18168D01*
X27795Y18173D01*
X27799Y18178D01*
X27801Y18182D01*
X27803Y18185D01*
X27803Y18186D01*
X27806Y18194D01*
X27809Y18202D01*
X27811Y18210D01*
X27812Y18217D01*
X27812Y18223D01*
X27813Y18228D01*
Y18231D01*
Y18232D01*
X27812Y18246D01*
X27810Y18257D01*
X27806Y18268D01*
X27802Y18276D01*
X27798Y18283D01*
X27794Y18288D01*
X27792Y18291D01*
X27791Y18292D01*
X27782Y18300D01*
X27773Y18306D01*
X27764Y18310D01*
X27755Y18313D01*
X27748Y18314D01*
X27742Y18315D01*
X27740Y18316D01*
D02*
G37*
%LPD*%
G54D12*
X26745Y13013D02*
Y13447D01*
X22793Y13805D02*
X23227D01*
X27973Y16875D02*
X28407D01*
X27253Y22005D02*
X27687D01*
X23433Y22055D02*
X23867D01*
X25500Y21483D02*
Y21917D01*
X25290Y16233D02*
Y16667D01*
M02*
