M48
;Layer_Color=9474304
;FILE_FORMAT=2:4
INCH,LZ
;TYPE=PLATED
T1F00S00C0.0260
T2F00S00C0.0280
T3F00S00C0.0315
T4F00S00C0.0354
T5F00S00C0.0394
T6F00S00C0.0409
T7F00S00C0.0512
T8F00S00C0.0937
T9F00S00C0.1181
%
T01
X024501Y020893
X026423
T02
X040846Y005595
X040905Y006215
X0445Y00569
X04537Y006215
X03678Y00622
X03273Y0055
X03185Y00645
X03392Y00876
X03464Y0082
X03698Y00853
X03697Y01311
X036398Y015478
X03349Y01554
X03402Y01476
X03185Y01391
X0319Y01191
X029142Y013082
X02814Y01392
X02721Y01401
X0266Y01492
X02637Y01562
X02638Y01621
X026137Y016737
X02635Y01833
X02524Y0184
X02465Y01829
X02342Y018831
X02301Y01488
X023869Y014109
X02485Y01515
X0251Y01315
X02543Y01238
X028695Y00891
X02987Y01469
X028765Y015845
X02925Y01693
X02936Y01789
X03035Y01888
X03059Y02097
X03404Y02175
X037106Y02051
X02752Y01749
X03835Y01855
X03924Y02058
X0377Y02115
X04093Y02159
X041315Y021025
X04112Y01904
X04071Y01433
X040963Y013717
X03983Y01411
X037662Y014148
X03773Y01508
X03832Y0113
X04043Y012
X04482Y01324
X04479Y01431
X04557Y013785
X04513Y02054
X04515Y0215
X045662Y021
X044211Y006695
X040942Y006794
X037672Y007108
X03716Y00792
X03739Y02197
X03835Y0243
X03752Y02725
X03748Y02794
X03752Y02937
X0385Y02916
X04031Y02732
X041013Y02754
X041123Y02811
X04146Y02583
X04483Y02758
X04498Y028585
X04499Y029165
X045531Y028105
X04518Y035465
X045647Y035945
X04518Y03649
X0452Y03734
X040895Y035945
X04014Y03631
X039247Y036147
X03855Y03707
X03738Y03697
X037463Y036103
X03743Y03546
X04279Y0337
X050421Y034618
X03402Y03668
X03399Y03737
X03351Y02962
X03404Y02893
X03664Y02978
X03655Y02238
X03353Y02248
X02514Y02903
X02306Y03112
X02514Y03675
X02675Y03805
X03676Y03754
X04524Y03806
T03
X04619Y00106
X04669
X04719
X04893Y00386
X04943
X04993
X005228Y02174
X00326Y02174
X018909Y016403
X019909
X04229Y01659
X04279
X04329
X04682Y01725
X04732
X04782
X04901Y01877
X04951
X05001
X04977Y01486
X05027
X04927
X04904Y01162
X04954
X05004
X04988Y00751
X04938
X04888
X04739Y00941
X04689
X04639
X043602Y010215
X043102
X042602
X042542Y024625
X043042
X043542
X045972Y023845
X046472
X046972
X04911Y0227
X04961
X05011
X05005Y02631
X04955
X04905
X049552Y028705
Y029205
Y029705
X04945Y03391
X04895
X04995
X049472Y036832
Y037332
X046832Y032395
X046332
X045832
X0433Y03133
X0428
X0423
X005334Y04015
X003366Y04015
X045802Y039255
X046302
X046802
X049472Y037832
T04
X03382Y00102
X03482
X03582
X03682
X00125Y00225
X0013Y0055
Y0087
Y0122
Y0148
X02257Y01149
X02357
Y01049
X02257
Y00949
X02357
X03163Y02029
X03263
X055Y0199
Y0189
Y0167
Y0157
X0578
Y0167
Y0189
Y0199
X0606
Y0189
Y0167
Y0157
X0634
Y0167
Y0189
Y0199
X0662
Y0189
Y0167
Y0157
Y0221
Y0231
Y0253
Y0263
X0634
Y0253
Y0231
Y0221
X0606
Y0231
Y0253
Y0263
X0578
Y0253
Y0231
Y0221
X055
Y0231
Y0253
Y0263
X01462Y02579
Y02779
X00762Y02579
Y03579
Y03779
X024165Y040551
X025165
X026165
X027165
X028165
X029165
T05
X027748Y005207
Y005994
X028732
Y005207
T06
X007221Y002873
X010371
X007221Y02059
X01541
T07
X003686Y002396
Y006333
Y013223
Y01716
X0033Y023783
Y02772
Y03461
Y038547
T08
X02587Y00414
X03061
T09
X05315Y003937
X019685Y007874
X05315Y037402
X027559Y025591
X019685Y037402
M30
