G04*
G04 #@! TF.GenerationSoftware,Altium Limited,Altium Designer,20.0.10 (225)*
G04*
G04 Layer_Physical_Order=1*
G04 Layer_Color=255*
%FSLAX24Y24*%
%MOIN*%
G70*
G01*
G75*
%ADD10C,0.0100*%
%ADD17R,0.1024X0.0433*%
%ADD18R,0.0433X0.1024*%
%ADD19R,0.0512X0.0394*%
%ADD20R,0.0600X0.0256*%
%ADD21R,0.0394X0.0512*%
%ADD22R,0.0118X0.0581*%
%ADD23R,0.0581X0.0118*%
%ADD24O,0.0571X0.0236*%
%ADD25R,0.0827X0.1654*%
%ADD26R,0.0472X0.0394*%
%ADD27R,0.0472X0.1299*%
%ADD28R,0.0551X0.0118*%
%ADD51C,0.0300*%
%ADD52C,0.0200*%
%ADD53C,0.0400*%
%ADD54C,0.0591*%
%ADD55C,0.0600*%
%ADD56C,0.0531*%
%ADD57C,0.0413*%
%ADD58C,0.0800*%
%ADD59C,0.0551*%
%ADD60C,0.0630*%
%ADD61C,0.0433*%
%ADD62C,0.1406*%
%ADD63C,0.0500*%
G36*
X68765Y25536D02*
Y15803D01*
X53095Y133D01*
X16929D01*
Y1996D01*
X18997D01*
Y1870D01*
X19460D01*
Y2747D01*
X18997D01*
Y2561D01*
X16929D01*
Y4451D01*
X19017D01*
Y3827D01*
X20003D01*
Y4451D01*
X21920D01*
X21934Y4407D01*
X21934D01*
Y4206D01*
X20457Y2729D01*
X20023D01*
Y2747D01*
X19560D01*
Y1870D01*
X20023D01*
Y2164D01*
X20574D01*
X20647Y2174D01*
X20715Y2202D01*
X20774Y2247D01*
X22340Y3813D01*
X22646D01*
Y3831D01*
X25125D01*
X25199Y3692D01*
X25300Y3570D01*
X25422Y3469D01*
X25561Y3395D01*
X25713Y3349D01*
X25820Y3338D01*
Y4140D01*
Y4942D01*
X25713Y4931D01*
X25561Y4885D01*
X25422Y4811D01*
X25300Y4710D01*
X25199Y4588D01*
X25125Y4449D01*
X25109Y4396D01*
X22646D01*
Y4407D01*
X22330D01*
X22290Y4457D01*
X22290Y4458D01*
X22332Y4463D01*
X22626D01*
Y5017D01*
X22332D01*
X22290Y5022D01*
X22237D01*
X22195Y5017D01*
X21954D01*
Y5016D01*
X20003D01*
Y5640D01*
X19017D01*
Y5016D01*
X16929D01*
X16929Y27700D01*
X18209Y28980D01*
X18480D01*
Y29857D01*
X18017D01*
Y29544D01*
X17969Y29524D01*
X17910Y29480D01*
X16975Y28545D01*
X16929Y28564D01*
Y29700D01*
X17970Y30741D01*
X18017Y30722D01*
Y29957D01*
X18480D01*
Y30833D01*
X18128D01*
X18109Y30880D01*
X18516Y31287D01*
X18561Y31345D01*
X18589Y31414D01*
X18599Y31487D01*
Y31913D01*
X19023D01*
Y32636D01*
X20274D01*
X21134Y31776D01*
Y31423D01*
X21806D01*
Y31606D01*
X23822D01*
X24506Y30922D01*
Y30628D01*
X25178D01*
Y30702D01*
X25700D01*
Y30589D01*
X26332D01*
Y31142D01*
X25700D01*
Y31069D01*
X25178D01*
Y31182D01*
X24766D01*
X24028Y31920D01*
X23968Y31960D01*
X23898Y31974D01*
X21806D01*
Y31977D01*
X21453D01*
X20647Y32782D01*
X22994Y35130D01*
X24785D01*
X24803Y35133D01*
X25218D01*
Y35326D01*
X25982D01*
Y35317D01*
X26742D01*
Y35733D01*
X25982D01*
Y35694D01*
X25155D01*
X25139Y35690D01*
X24979D01*
X24961Y35687D01*
X24546D01*
Y35497D01*
X22918D01*
X22848Y35483D01*
X22788Y35443D01*
X20349Y33004D01*
X19023D01*
Y33727D01*
X18037D01*
Y32625D01*
X18034Y32607D01*
Y31604D01*
X16975Y30545D01*
X16929Y30564D01*
Y41206D01*
X53095D01*
X68765Y25536D01*
D02*
G37*
%LPC*%
G36*
X27215Y40943D02*
Y40601D01*
X27557D01*
X27550Y40654D01*
X27511Y40751D01*
X27447Y40833D01*
X27365Y40896D01*
X27269Y40936D01*
X27215Y40943D01*
D02*
G37*
G36*
X27115D02*
X27062Y40936D01*
X26966Y40896D01*
X26883Y40833D01*
X26820Y40751D01*
X26780Y40654D01*
X26773Y40601D01*
X27115D01*
Y40943D01*
D02*
G37*
G36*
X29165Y40930D02*
X29067Y40917D01*
X28976Y40879D01*
X28898Y40819D01*
X28838Y40740D01*
X28800Y40649D01*
X28787Y40551D01*
X28800Y40453D01*
X28838Y40362D01*
X28898Y40284D01*
X28976Y40223D01*
X29067Y40186D01*
X29165Y40173D01*
X29263Y40186D01*
X29355Y40223D01*
X29433Y40284D01*
X29493Y40362D01*
X29531Y40453D01*
X29544Y40551D01*
X29531Y40649D01*
X29493Y40740D01*
X29433Y40819D01*
X29355Y40879D01*
X29263Y40917D01*
X29165Y40930D01*
D02*
G37*
G36*
X28165D02*
X28067Y40917D01*
X27976Y40879D01*
X27898Y40819D01*
X27838Y40740D01*
X27800Y40649D01*
X27787Y40551D01*
X27800Y40453D01*
X27838Y40362D01*
X27898Y40284D01*
X27976Y40223D01*
X28067Y40186D01*
X28165Y40173D01*
X28263Y40186D01*
X28355Y40223D01*
X28433Y40284D01*
X28493Y40362D01*
X28531Y40453D01*
X28544Y40551D01*
X28531Y40649D01*
X28493Y40740D01*
X28433Y40819D01*
X28355Y40879D01*
X28263Y40917D01*
X28165Y40930D01*
D02*
G37*
G36*
X26165D02*
X26067Y40917D01*
X25976Y40879D01*
X25898Y40819D01*
X25838Y40740D01*
X25800Y40649D01*
X25787Y40551D01*
X25800Y40453D01*
X25838Y40362D01*
X25898Y40284D01*
X25976Y40223D01*
X26067Y40186D01*
X26165Y40173D01*
X26263Y40186D01*
X26355Y40223D01*
X26433Y40284D01*
X26493Y40362D01*
X26531Y40453D01*
X26544Y40551D01*
X26531Y40649D01*
X26493Y40740D01*
X26433Y40819D01*
X26355Y40879D01*
X26263Y40917D01*
X26165Y40930D01*
D02*
G37*
G36*
X25165D02*
X25067Y40917D01*
X24976Y40879D01*
X24898Y40819D01*
X24838Y40740D01*
X24800Y40649D01*
X24787Y40551D01*
X24800Y40453D01*
X24838Y40362D01*
X24898Y40284D01*
X24976Y40223D01*
X25067Y40186D01*
X25165Y40173D01*
X25263Y40186D01*
X25355Y40223D01*
X25433Y40284D01*
X25493Y40362D01*
X25531Y40453D01*
X25544Y40551D01*
X25531Y40649D01*
X25493Y40740D01*
X25433Y40819D01*
X25355Y40879D01*
X25263Y40917D01*
X25165Y40930D01*
D02*
G37*
G36*
X24165D02*
X24067Y40917D01*
X23976Y40879D01*
X23898Y40819D01*
X23838Y40740D01*
X23800Y40649D01*
X23787Y40551D01*
X23800Y40453D01*
X23838Y40362D01*
X23898Y40284D01*
X23976Y40223D01*
X24067Y40186D01*
X24165Y40173D01*
X24263Y40186D01*
X24355Y40223D01*
X24433Y40284D01*
X24493Y40362D01*
X24531Y40453D01*
X24544Y40551D01*
X24531Y40649D01*
X24493Y40740D01*
X24433Y40819D01*
X24355Y40879D01*
X24263Y40917D01*
X24165Y40930D01*
D02*
G37*
G36*
X27115Y40501D02*
X26773D01*
X26780Y40448D01*
X26820Y40352D01*
X26883Y40269D01*
X26966Y40206D01*
X27062Y40166D01*
X27115Y40159D01*
Y40501D01*
D02*
G37*
G36*
X46802Y39544D02*
X46727Y39534D01*
X46657Y39505D01*
X46597Y39459D01*
X46577Y39433D01*
X46527D01*
X46506Y39459D01*
X46447Y39505D01*
X46377Y39534D01*
X46302Y39544D01*
X46227Y39534D01*
X46157Y39505D01*
X46097Y39459D01*
X46077Y39433D01*
X46027D01*
X46006Y39459D01*
X45947Y39505D01*
X45877Y39534D01*
X45802Y39544D01*
X45727Y39534D01*
X45657Y39505D01*
X45598Y39459D01*
X45552Y39400D01*
X45523Y39330D01*
X45513Y39255D01*
X45523Y39180D01*
X45552Y39110D01*
X45598Y39050D01*
X45657Y39005D01*
X45727Y38976D01*
X45802Y38966D01*
X45877Y38976D01*
X45947Y39005D01*
X46006Y39050D01*
X46027Y39077D01*
X46077D01*
X46097Y39050D01*
X46157Y39005D01*
X46169Y39000D01*
Y38705D01*
X46037Y38573D01*
X42929D01*
X42878Y38562D01*
X42835Y38534D01*
X41946Y37645D01*
X41934Y37647D01*
X41599D01*
X41522Y37632D01*
X41456Y37588D01*
X41412Y37522D01*
X41397Y37445D01*
X41412Y37368D01*
X41456Y37302D01*
X41522Y37258D01*
X41599Y37243D01*
X41934D01*
X41983Y37253D01*
X42008Y37207D01*
X41946Y37145D01*
X41934Y37147D01*
X41599D01*
X41522Y37132D01*
X41456Y37088D01*
X41441Y37086D01*
X40022Y38506D01*
X39979Y38535D01*
X39928Y38545D01*
X39917D01*
Y39382D01*
X39323D01*
Y38198D01*
X39917D01*
Y38198D01*
X39943Y38209D01*
X41301Y36851D01*
X41344Y36823D01*
X41395Y36812D01*
X41449D01*
X41456Y36802D01*
X41522Y36758D01*
X41599Y36743D01*
X41934D01*
X42011Y36758D01*
X42076Y36802D01*
X42120Y36868D01*
X42136Y36945D01*
X42133Y36957D01*
X43124Y37947D01*
X44929D01*
X44952Y37894D01*
X45005Y37825D01*
X45074Y37772D01*
X45154Y37738D01*
X45240Y37727D01*
X45326Y37738D01*
X45406Y37772D01*
X45475Y37825D01*
X45528Y37894D01*
X45562Y37974D01*
X45573Y38060D01*
X45562Y38146D01*
X45528Y38226D01*
X45504Y38257D01*
X45529Y38307D01*
X46091D01*
X46142Y38318D01*
X46185Y38346D01*
X46396Y38557D01*
X46424Y38600D01*
X46435Y38651D01*
Y39000D01*
X46447Y39005D01*
X46506Y39050D01*
X46527Y39077D01*
X46577D01*
X46597Y39050D01*
X46657Y39005D01*
X46727Y38976D01*
X46802Y38966D01*
X46877Y38976D01*
X46947Y39005D01*
X46967Y39020D01*
X51057D01*
X51095Y38982D01*
Y36072D01*
X51113Y35982D01*
X51164Y35906D01*
X51596Y35474D01*
X51672Y35423D01*
X51762Y35405D01*
X54814D01*
X63165Y27054D01*
Y26593D01*
X63132Y26568D01*
X63072Y26489D01*
X63034Y26398D01*
X63021Y26300D01*
X63034Y26202D01*
X63072Y26111D01*
X63132Y26032D01*
X63211Y25972D01*
X63302Y25934D01*
X63400Y25921D01*
X63498Y25934D01*
X63589Y25972D01*
X63668Y26032D01*
X63728Y26111D01*
X63766Y26202D01*
X63779Y26300D01*
X63766Y26398D01*
X63728Y26489D01*
X63668Y26568D01*
X63635Y26593D01*
Y27151D01*
X63617Y27241D01*
X63566Y27317D01*
X55077Y35806D01*
X55001Y35857D01*
X54911Y35875D01*
X51859D01*
X51565Y36169D01*
Y39079D01*
X51547Y39169D01*
X51496Y39245D01*
X51320Y39421D01*
X51244Y39472D01*
X51154Y39489D01*
X46967D01*
X46947Y39505D01*
X46877Y39534D01*
X46802Y39544D01*
D02*
G37*
G36*
X38874Y39402D02*
X38607D01*
Y38840D01*
X38874D01*
Y39402D01*
D02*
G37*
G36*
X38507D02*
X38240D01*
Y38840D01*
X38507D01*
Y39402D01*
D02*
G37*
G36*
X49472Y38121D02*
X49397Y38111D01*
X49327Y38082D01*
X49306Y38066D01*
X48802D01*
X48712Y38048D01*
X48636Y37997D01*
X48496Y37857D01*
X47124D01*
Y37894D01*
X45940D01*
Y37489D01*
X45529Y37078D01*
X45478D01*
X45453Y37128D01*
X45488Y37174D01*
X45522Y37254D01*
X45533Y37340D01*
X45522Y37426D01*
X45488Y37506D01*
X45435Y37575D01*
X45366Y37628D01*
X45286Y37662D01*
X45200Y37673D01*
X45114Y37662D01*
X45034Y37628D01*
X44965Y37575D01*
X44949Y37555D01*
X44244D01*
X44222Y37588D01*
X44157Y37632D01*
X44079Y37647D01*
X43745D01*
X43667Y37632D01*
X43602Y37588D01*
X43558Y37522D01*
X43543Y37445D01*
X43558Y37368D01*
X43602Y37302D01*
X43667Y37258D01*
X43745Y37243D01*
X44079D01*
X44157Y37258D01*
X44204Y37290D01*
X44874D01*
X44878Y37254D01*
X44912Y37174D01*
X44947Y37128D01*
X44922Y37078D01*
X44229D01*
X44222Y37088D01*
X44157Y37132D01*
X44079Y37147D01*
X43745D01*
X43667Y37132D01*
X43602Y37088D01*
X43558Y37022D01*
X43543Y36945D01*
X43558Y36868D01*
X43602Y36802D01*
X43667Y36758D01*
X43745Y36743D01*
X44079D01*
X44157Y36758D01*
X44222Y36802D01*
X44229Y36812D01*
X44976D01*
X44993Y36762D01*
X44945Y36725D01*
X44892Y36656D01*
X44868Y36600D01*
X44204D01*
X44157Y36632D01*
X44079Y36647D01*
X43745D01*
X43667Y36632D01*
X43602Y36588D01*
X43558Y36522D01*
X43543Y36445D01*
X43558Y36368D01*
X43602Y36302D01*
X43667Y36258D01*
X43745Y36243D01*
X44079D01*
X44157Y36258D01*
X44222Y36302D01*
X44244Y36335D01*
X44887D01*
X44892Y36324D01*
X44945Y36255D01*
X44977Y36229D01*
X44960Y36179D01*
X43912D01*
X43851Y36167D01*
X43745D01*
X43660Y36150D01*
X43587Y36102D01*
X43539Y36030D01*
X43532Y35995D01*
X43912D01*
Y35895D01*
X43532D01*
X43539Y35860D01*
X43587Y35788D01*
X43660Y35740D01*
X43745Y35723D01*
X43851D01*
X43912Y35710D01*
X44889D01*
X44914Y35660D01*
X44892Y35631D01*
X44880Y35604D01*
X44198D01*
X44157Y35632D01*
X44079Y35647D01*
X43745D01*
X43667Y35632D01*
X43602Y35588D01*
X43558Y35522D01*
X43543Y35445D01*
X43558Y35368D01*
X43602Y35302D01*
X43667Y35258D01*
X43745Y35243D01*
X44079D01*
X44157Y35258D01*
X44222Y35302D01*
X44246Y35338D01*
X44875D01*
X44892Y35299D01*
X44945Y35230D01*
X45014Y35177D01*
X45094Y35143D01*
X45180Y35132D01*
X45266Y35143D01*
X45346Y35177D01*
X45415Y35230D01*
X45468Y35299D01*
X45502Y35379D01*
X45513Y35465D01*
X45502Y35551D01*
X45491Y35577D01*
X45529Y35615D01*
X45555Y35604D01*
X45597Y35599D01*
Y35945D01*
Y36291D01*
X45555Y36286D01*
X45522Y36272D01*
X45464Y36302D01*
X45461Y36314D01*
X45468Y36324D01*
X45502Y36404D01*
X45513Y36490D01*
X45502Y36576D01*
X45468Y36656D01*
X45415Y36725D01*
X45367Y36762D01*
X45384Y36812D01*
X45584D01*
X45634Y36823D01*
X45677Y36851D01*
X46128Y37301D01*
X47124D01*
Y37388D01*
X48593D01*
X48682Y37406D01*
X48759Y37457D01*
X48899Y37597D01*
X49265D01*
X49282Y37547D01*
X49267Y37536D01*
X49221Y37476D01*
X49192Y37406D01*
X49182Y37332D01*
X49192Y37257D01*
X49221Y37187D01*
X49267Y37127D01*
X49294Y37107D01*
Y37057D01*
X49267Y37036D01*
X49221Y36976D01*
X49192Y36906D01*
X49182Y36832D01*
X49192Y36757D01*
X49221Y36687D01*
X49267Y36627D01*
X49327Y36581D01*
X49397Y36552D01*
X49423Y36549D01*
X51139Y34832D01*
X51216Y34781D01*
X51305Y34764D01*
X51305Y34764D01*
X52355D01*
X60346Y26772D01*
Y26578D01*
X60332Y26568D01*
X60272Y26489D01*
X60234Y26398D01*
X60221Y26300D01*
X60234Y26202D01*
X60272Y26111D01*
X60332Y26032D01*
X60411Y25972D01*
X60502Y25934D01*
X60600Y25921D01*
X60698Y25934D01*
X60789Y25972D01*
X60868Y26032D01*
X60928Y26111D01*
X60966Y26202D01*
X60979Y26300D01*
X60966Y26398D01*
X60928Y26489D01*
X60868Y26568D01*
X60815Y26608D01*
Y26870D01*
X60797Y26959D01*
X60746Y27035D01*
X52618Y35164D01*
X52542Y35215D01*
X52452Y35233D01*
X51402D01*
X49754Y36881D01*
X49751Y36906D01*
X49722Y36976D01*
X49676Y37036D01*
X49649Y37057D01*
Y37107D01*
X49676Y37127D01*
X49722Y37187D01*
X49751Y37257D01*
X49761Y37332D01*
X49751Y37406D01*
X49722Y37476D01*
X49676Y37536D01*
X49649Y37557D01*
Y37607D01*
X49676Y37627D01*
X49722Y37687D01*
X49751Y37757D01*
X49761Y37832D01*
X49751Y37906D01*
X49722Y37976D01*
X49676Y38036D01*
X49616Y38082D01*
X49546Y38111D01*
X49472Y38121D01*
D02*
G37*
G36*
X26750Y38383D02*
X26664Y38372D01*
X26584Y38338D01*
X26515Y38285D01*
X26462Y38216D01*
X26428Y38136D01*
X26417Y38050D01*
X26426Y37985D01*
X25451Y37010D01*
X25343D01*
X25306Y37038D01*
X25226Y37072D01*
X25140Y37083D01*
X25054Y37072D01*
X24974Y37038D01*
X24905Y36985D01*
X24852Y36916D01*
X24818Y36836D01*
X24807Y36750D01*
X24818Y36664D01*
X24852Y36584D01*
X24905Y36515D01*
X24974Y36462D01*
X25054Y36428D01*
X25140Y36417D01*
X25226Y36428D01*
X25306Y36462D01*
X25375Y36515D01*
X25428Y36584D01*
X25453Y36643D01*
X25527D01*
X25597Y36657D01*
X25656Y36697D01*
X26685Y37726D01*
X26750Y37717D01*
X26836Y37728D01*
X26916Y37762D01*
X26985Y37815D01*
X27038Y37884D01*
X27072Y37964D01*
X27083Y38050D01*
X27072Y38136D01*
X27038Y38216D01*
X26985Y38285D01*
X26916Y38338D01*
X26836Y38372D01*
X26750Y38383D01*
D02*
G37*
G36*
X27557Y40501D02*
X27215D01*
Y40159D01*
X27269Y40166D01*
X27284Y40173D01*
X27589Y39868D01*
Y37561D01*
X27475D01*
Y37255D01*
X27772D01*
X28069D01*
Y37561D01*
X27956D01*
Y39944D01*
X27942Y40015D01*
X27902Y40074D01*
X27544Y40432D01*
X27550Y40448D01*
X27557Y40501D01*
D02*
G37*
G36*
X38874Y38740D02*
X38557D01*
X38240D01*
Y38178D01*
X38349D01*
Y37357D01*
X38300Y37320D01*
X38244Y37247D01*
X38209Y37161D01*
X38204Y37120D01*
X38896D01*
X38891Y37161D01*
X38856Y37247D01*
X38818Y37296D01*
Y38178D01*
X38874D01*
Y38740D01*
D02*
G37*
G36*
X28679Y37541D02*
X28125D01*
Y36869D01*
X28679D01*
Y37072D01*
X29549D01*
Y36968D01*
X30220D01*
Y37522D01*
X29549D01*
Y37338D01*
X28679D01*
Y37541D01*
D02*
G37*
G36*
X53150Y38075D02*
X53018Y38062D01*
X52892Y38024D01*
X52775Y37962D01*
X52673Y37878D01*
X52589Y37776D01*
X52527Y37659D01*
X52489Y37533D01*
X52476Y37402D01*
X52489Y37270D01*
X52527Y37144D01*
X52589Y37027D01*
X52673Y36925D01*
X52775Y36841D01*
X52892Y36779D01*
X53018Y36741D01*
X53150Y36728D01*
X53281Y36741D01*
X53407Y36779D01*
X53524Y36841D01*
X53626Y36925D01*
X53710Y37027D01*
X53772Y37144D01*
X53810Y37270D01*
X53823Y37402D01*
X53810Y37533D01*
X53772Y37659D01*
X53710Y37776D01*
X53626Y37878D01*
X53524Y37962D01*
X53407Y38024D01*
X53281Y38062D01*
X53150Y38075D01*
D02*
G37*
G36*
X19685D02*
X19554Y38062D01*
X19427Y38024D01*
X19311Y37962D01*
X19209Y37878D01*
X19125Y37776D01*
X19063Y37659D01*
X19024Y37533D01*
X19011Y37402D01*
X19024Y37270D01*
X19063Y37144D01*
X19125Y37027D01*
X19209Y36925D01*
X19311Y36841D01*
X19427Y36779D01*
X19554Y36741D01*
X19685Y36728D01*
X19816Y36741D01*
X19943Y36779D01*
X20059Y36841D01*
X20161Y36925D01*
X20245Y37027D01*
X20308Y37144D01*
X20346Y37270D01*
X20359Y37402D01*
X20346Y37533D01*
X20308Y37659D01*
X20245Y37776D01*
X20161Y37878D01*
X20059Y37962D01*
X19943Y38024D01*
X19816Y38062D01*
X19685Y38075D01*
D02*
G37*
G36*
X47144Y36851D02*
X46582D01*
Y36585D01*
X47144D01*
Y36851D01*
D02*
G37*
G36*
X41934Y36647D02*
X41599D01*
X41522Y36632D01*
X41456Y36588D01*
X41449Y36578D01*
X40383D01*
X40344Y36570D01*
X40306Y36598D01*
X40226Y36632D01*
X40140Y36643D01*
X40054Y36632D01*
X39974Y36598D01*
X39905Y36545D01*
X39852Y36476D01*
X39818Y36396D01*
X39809Y36322D01*
X39774Y36284D01*
X39761Y36279D01*
X39549D01*
X39535Y36313D01*
X39482Y36382D01*
X39413Y36435D01*
X39333Y36468D01*
X39247Y36479D01*
X39160Y36468D01*
X39080Y36435D01*
X39011Y36382D01*
X38958Y36313D01*
X38925Y36233D01*
X38914Y36147D01*
X38925Y36060D01*
X38958Y35980D01*
X39011Y35911D01*
X39080Y35858D01*
X39160Y35825D01*
X39247Y35814D01*
X39333Y35825D01*
X39413Y35858D01*
X39482Y35911D01*
X39535Y35980D01*
X39549Y36014D01*
X39711D01*
X40348Y35377D01*
X40391Y35349D01*
X40442Y35338D01*
X41432D01*
X41456Y35302D01*
X41522Y35258D01*
X41599Y35243D01*
X41934D01*
X42011Y35258D01*
X42076Y35302D01*
X42120Y35368D01*
X42136Y35445D01*
X42120Y35522D01*
X42076Y35588D01*
X42011Y35632D01*
X41934Y35647D01*
X41599D01*
X41522Y35632D01*
X41480Y35604D01*
X41064D01*
X41054Y35654D01*
X41061Y35657D01*
X41130Y35710D01*
X41131Y35710D01*
X41766D01*
X41856Y35728D01*
X41878Y35743D01*
X41934D01*
X42011Y35758D01*
X42076Y35802D01*
X42120Y35868D01*
X42136Y35945D01*
X42120Y36022D01*
X42076Y36088D01*
X42011Y36132D01*
X41934Y36147D01*
X41878D01*
X41856Y36162D01*
X41766Y36179D01*
X41131D01*
X41130Y36180D01*
X41061Y36233D01*
X40991Y36262D01*
X41001Y36312D01*
X41449D01*
X41456Y36302D01*
X41522Y36258D01*
X41599Y36243D01*
X41934D01*
X42011Y36258D01*
X42076Y36302D01*
X42120Y36368D01*
X42136Y36445D01*
X42120Y36522D01*
X42076Y36588D01*
X42011Y36632D01*
X41934Y36647D01*
D02*
G37*
G36*
X28878Y36233D02*
X28117D01*
Y35817D01*
X28878D01*
Y36233D01*
D02*
G37*
G36*
X26742D02*
X25982D01*
Y35817D01*
X26742D01*
Y36233D01*
D02*
G37*
G36*
X34874Y35856D02*
X34548D01*
Y35747D01*
X34874D01*
Y35856D01*
D02*
G37*
G36*
X45993Y35895D02*
X45697D01*
Y35599D01*
X45738Y35604D01*
X45823Y35639D01*
X45896Y35695D01*
X45952Y35768D01*
X45988Y35854D01*
X45993Y35895D01*
D02*
G37*
G36*
X46482Y36851D02*
X45920D01*
Y36550D01*
X45697Y36327D01*
Y35995D01*
X46028D01*
X46247Y36214D01*
X46297Y36208D01*
Y35361D01*
X45930D01*
Y35095D01*
X47154D01*
Y35361D01*
X46766D01*
Y36218D01*
X47144D01*
Y36485D01*
X46532D01*
Y36535D01*
X46482D01*
Y36851D01*
D02*
G37*
G36*
X28069Y37155D02*
X27772D01*
X27475D01*
Y36849D01*
X27589D01*
Y35828D01*
X26788Y35028D01*
X26742Y35047D01*
Y35233D01*
X25982D01*
Y34817D01*
X26458D01*
X26484Y34767D01*
X26474Y34753D01*
X26412D01*
Y34525D01*
Y34297D01*
X26503D01*
X27169Y33630D01*
X27229Y33591D01*
X27299Y33577D01*
X29589D01*
Y33463D01*
X29739D01*
Y30165D01*
X29698Y30140D01*
X29689Y30140D01*
X29621Y30154D01*
X29029D01*
Y30710D01*
X28743D01*
Y29960D01*
X28643D01*
Y30710D01*
X28357D01*
Y30144D01*
X26352D01*
Y30257D01*
X26066D01*
Y29960D01*
Y29663D01*
X26352D01*
Y29776D01*
X28357D01*
Y29271D01*
X26332D01*
Y29331D01*
X25700D01*
Y29184D01*
X25434D01*
X25428Y29196D01*
X25375Y29265D01*
X25306Y29318D01*
X25226Y29352D01*
X25140Y29363D01*
X25054Y29352D01*
X24974Y29318D01*
X24905Y29265D01*
X24852Y29196D01*
X24818Y29116D01*
X24807Y29030D01*
X24818Y28944D01*
X24833Y28910D01*
X23916Y27994D01*
X23888Y27951D01*
X23877Y27900D01*
Y18930D01*
X23888Y18879D01*
X23916Y18836D01*
X24343Y18410D01*
X24328Y18376D01*
X24317Y18290D01*
X24328Y18204D01*
X24362Y18124D01*
X24415Y18055D01*
X24484Y18002D01*
X24564Y17968D01*
X24650Y17957D01*
X24736Y17968D01*
X24770Y17983D01*
X24893Y17860D01*
X24873Y17814D01*
X24414D01*
Y17073D01*
X25181D01*
Y17053D01*
X25208D01*
Y16996D01*
X25218Y16945D01*
X25246Y16902D01*
X25956Y16193D01*
X25999Y16164D01*
X26034Y16157D01*
X26039Y16119D01*
X26074Y16033D01*
X26130Y15960D01*
X26168Y15931D01*
Y15881D01*
X26135Y15855D01*
X26082Y15786D01*
X26048Y15706D01*
X26037Y15620D01*
X26048Y15534D01*
X26082Y15454D01*
X26135Y15385D01*
X26204Y15332D01*
X26284Y15298D01*
X26370Y15287D01*
X26456Y15298D01*
X26536Y15332D01*
X26605Y15385D01*
X26658Y15454D01*
X26692Y15534D01*
X26703Y15620D01*
X26692Y15706D01*
X26677Y15740D01*
X26870Y15933D01*
X26934D01*
Y15537D01*
Y15142D01*
X26883Y15125D01*
X26850Y15170D01*
X26777Y15226D01*
X26691Y15261D01*
X26650Y15266D01*
Y14920D01*
X26600D01*
Y14870D01*
X26254D01*
X26259Y14829D01*
X26294Y14743D01*
X26350Y14670D01*
X26389Y14641D01*
Y14497D01*
X26362D01*
Y14477D01*
X25661D01*
X25652Y14522D01*
X25623Y14565D01*
X25157Y15030D01*
X25172Y15064D01*
X25183Y15150D01*
X25172Y15236D01*
X25138Y15316D01*
X25085Y15385D01*
X25016Y15438D01*
X24936Y15472D01*
X24850Y15483D01*
X24764Y15472D01*
X24684Y15438D01*
X24615Y15385D01*
X24562Y15316D01*
X24528Y15236D01*
X24517Y15150D01*
X24528Y15064D01*
X24562Y14984D01*
X24615Y14915D01*
X24684Y14862D01*
X24764Y14828D01*
X24850Y14817D01*
X24936Y14828D01*
X24970Y14843D01*
X25290Y14523D01*
X25270Y14477D01*
X24414D01*
Y13736D01*
X25593D01*
Y13544D01*
X25405Y13356D01*
X25355Y13359D01*
X25335Y13385D01*
X25266Y13438D01*
X25186Y13472D01*
X25100Y13483D01*
X25014Y13472D01*
X24934Y13438D01*
X24865Y13385D01*
X24812Y13316D01*
X24778Y13236D01*
X24767Y13150D01*
X24778Y13064D01*
X24812Y12984D01*
X24865Y12915D01*
X24934Y12862D01*
X25014Y12828D01*
X25100Y12817D01*
X25186Y12828D01*
X25266Y12862D01*
X25335Y12915D01*
X25388Y12984D01*
X25419Y13057D01*
X25426D01*
X25477Y13067D01*
X25520Y13096D01*
X25752Y13328D01*
X25798Y13309D01*
Y12478D01*
X25752Y12466D01*
X25718Y12546D01*
X25665Y12615D01*
X25596Y12668D01*
X25516Y12702D01*
X25430Y12713D01*
X25344Y12702D01*
X25264Y12668D01*
X25195Y12615D01*
X25142Y12546D01*
X25108Y12466D01*
X25097Y12380D01*
X25108Y12294D01*
X25142Y12214D01*
X25195Y12145D01*
X25264Y12092D01*
X25297Y12078D01*
Y11765D01*
X25029Y11497D01*
X24604D01*
Y10943D01*
X25276D01*
Y11368D01*
X25524Y11616D01*
X25552Y11659D01*
X25563Y11710D01*
Y12078D01*
X25596Y12092D01*
X25665Y12145D01*
X25718Y12214D01*
X25752Y12294D01*
X25798Y12282D01*
Y8219D01*
X25808Y8168D01*
X25837Y8125D01*
X25895Y8066D01*
X25938Y8038D01*
X25989Y8027D01*
X26271D01*
X26322Y8038D01*
X26365Y8066D01*
X26424Y8125D01*
X26452Y8168D01*
X26463Y8219D01*
Y8337D01*
X26717D01*
Y8169D01*
X26728Y8118D01*
X26756Y8075D01*
X26815Y8016D01*
X26858Y7988D01*
X26909Y7977D01*
X27334D01*
Y7873D01*
X28006D01*
Y8427D01*
X27334D01*
Y8243D01*
X26983D01*
Y8411D01*
X26972Y8462D01*
X26944Y8505D01*
X26885Y8564D01*
X26842Y8592D01*
X26791Y8603D01*
X26389D01*
X26338Y8592D01*
X26295Y8564D01*
X26236Y8505D01*
X26208Y8462D01*
X26197Y8411D01*
Y8293D01*
X26063D01*
Y10380D01*
X26109Y10399D01*
X28284Y8224D01*
Y7858D01*
X28956D01*
Y8002D01*
X29483D01*
Y7754D01*
X30037D01*
Y8426D01*
X29483D01*
Y8268D01*
X28956D01*
Y8412D01*
X28472D01*
X26260Y10623D01*
Y11900D01*
Y13003D01*
Y13287D01*
X26306Y13306D01*
X28562Y11050D01*
Y9212D01*
X28529Y9198D01*
X28460Y9145D01*
X28407Y9076D01*
X28373Y8996D01*
X28362Y8910D01*
X28373Y8824D01*
X28407Y8744D01*
X28460Y8675D01*
X28529Y8622D01*
X28609Y8588D01*
X28695Y8577D01*
X28781Y8588D01*
X28861Y8622D01*
X28930Y8675D01*
X28983Y8744D01*
X29016Y8824D01*
X29028Y8910D01*
X29016Y8996D01*
X28983Y9076D01*
X28930Y9145D01*
X28861Y9198D01*
X28828Y9212D01*
Y11105D01*
X28817Y11156D01*
X28789Y11199D01*
X26457Y13531D01*
Y13716D01*
X26471D01*
Y14106D01*
X26571D01*
Y13716D01*
X26680D01*
X26680Y13716D01*
Y13716D01*
X26717Y13688D01*
X28187Y12219D01*
X28230Y12190D01*
X28280Y12180D01*
X28281D01*
X28332Y12190D01*
X28343Y12197D01*
X30337D01*
Y8426D01*
X30113D01*
Y7754D01*
X30479D01*
X31586Y6648D01*
X31562Y6616D01*
X31528Y6536D01*
X31517Y6450D01*
X31528Y6364D01*
X31562Y6284D01*
X31615Y6215D01*
X31684Y6162D01*
X31764Y6128D01*
X31850Y6117D01*
X31936Y6128D01*
X32016Y6162D01*
X32085Y6215D01*
X32138Y6284D01*
X32172Y6364D01*
X32183Y6450D01*
X32172Y6536D01*
X32138Y6616D01*
X32085Y6685D01*
X32016Y6738D01*
X31936Y6772D01*
X31850Y6783D01*
X31828Y6780D01*
X30667Y7942D01*
Y8426D01*
X30603D01*
Y12330D01*
Y12574D01*
X30747D01*
Y13246D01*
X30582D01*
Y13764D01*
X30727D01*
Y14436D01*
X30582D01*
Y15034D01*
X30627D01*
Y15706D01*
X30453D01*
Y16154D01*
X30597D01*
Y16826D01*
X30231D01*
X30093Y16964D01*
Y18573D01*
X30143Y18598D01*
X30173Y18574D01*
X30259Y18539D01*
X30300Y18534D01*
Y18880D01*
Y19226D01*
X30259Y19221D01*
X30173Y19186D01*
X30143Y19162D01*
X30093Y19187D01*
Y19283D01*
Y20014D01*
X30237D01*
Y20686D01*
X30033D01*
Y28843D01*
X30236D01*
Y29397D01*
X29564D01*
Y29271D01*
X29029D01*
Y29786D01*
X29544D01*
Y29453D01*
X29850D01*
Y29750D01*
X29900D01*
Y29800D01*
X30256D01*
Y30047D01*
X30106D01*
Y33463D01*
X30300D01*
Y33572D01*
X30904D01*
Y33453D01*
X31210D01*
Y33750D01*
X31260D01*
D01*
X31210D01*
Y34047D01*
X30904D01*
Y33939D01*
X30300D01*
Y34057D01*
X29994D01*
Y33760D01*
X29894D01*
Y34057D01*
X29589D01*
Y33944D01*
X27375D01*
X26821Y34498D01*
X26832Y34557D01*
X26844Y34565D01*
X27902Y35623D01*
X27942Y35682D01*
X27956Y35752D01*
Y36849D01*
X28069D01*
Y37155D01*
D02*
G37*
G36*
X24832Y35077D02*
X24526D01*
Y34830D01*
X24832D01*
Y35077D01*
D02*
G37*
G36*
X36432Y35110D02*
X36185D01*
Y34804D01*
X36432D01*
Y35110D01*
D02*
G37*
G36*
X36085D02*
X35838D01*
Y34804D01*
X36085D01*
Y35110D01*
D02*
G37*
G36*
X47154Y34995D02*
X46592D01*
Y34728D01*
X47154D01*
Y34995D01*
D02*
G37*
G36*
X46492D02*
X45930D01*
Y34728D01*
X46492D01*
Y34995D01*
D02*
G37*
G36*
X33990Y37703D02*
X33904Y37692D01*
X33824Y37658D01*
X33755Y37605D01*
X33702Y37536D01*
X33668Y37456D01*
X33657Y37370D01*
X33668Y37284D01*
X33702Y37204D01*
X33755Y37135D01*
X33824Y37082D01*
X33904Y37048D01*
X33914Y37047D01*
X33920Y36996D01*
X33854Y36968D01*
X33785Y36915D01*
X33732Y36846D01*
X33698Y36766D01*
X33687Y36680D01*
X33698Y36594D01*
X33732Y36514D01*
X33756Y36483D01*
X33731Y36433D01*
X33239D01*
X33188Y36422D01*
X33145Y36394D01*
X31408Y34657D01*
X31184D01*
X30686Y35155D01*
X30626Y35195D01*
X30556Y35208D01*
X29189D01*
X29169Y35255D01*
X30010Y36095D01*
X30050Y36155D01*
X30064Y36225D01*
Y36338D01*
X30220D01*
Y36892D01*
X29549D01*
Y36338D01*
X29666D01*
X29684Y36288D01*
X28924Y35528D01*
X28878Y35547D01*
Y35733D01*
X28117D01*
Y35317D01*
X28637D01*
X28656Y35271D01*
X28618Y35233D01*
X28117D01*
Y34817D01*
X28878D01*
Y34841D01*
X30480D01*
X30924Y34397D01*
Y34103D01*
X31369D01*
X31373Y34097D01*
X31346Y34047D01*
X31310D01*
Y33800D01*
X31616D01*
Y33830D01*
X31662Y33849D01*
X32977Y32534D01*
Y21270D01*
Y20569D01*
X32927Y20552D01*
X32912Y20572D01*
X32829Y20635D01*
X32733Y20675D01*
X32680Y20682D01*
Y20290D01*
Y19898D01*
X32733Y19905D01*
X32829Y19945D01*
X32912Y20008D01*
X32927Y20028D01*
X32977Y20011D01*
Y14480D01*
Y8280D01*
X32988Y8229D01*
X33016Y8186D01*
X33916Y7287D01*
X33897Y7241D01*
X33328D01*
X33277Y7231D01*
X33234Y7202D01*
X32506Y6474D01*
X31372Y5339D01*
X29105D01*
X29077Y5406D01*
X29014Y5489D01*
X28932Y5552D01*
X28854Y5584D01*
X28853Y5638D01*
X28921Y5667D01*
X29000Y5727D01*
X29060Y5805D01*
X29098Y5896D01*
X29111Y5994D01*
X29098Y6092D01*
X29060Y6184D01*
X29000Y6262D01*
X28921Y6322D01*
X28830Y6360D01*
X28732Y6373D01*
X28634Y6360D01*
X28543Y6322D01*
X28473Y6268D01*
X28423Y6282D01*
Y7120D01*
X28508Y7205D01*
X28523Y7228D01*
X28956D01*
Y7782D01*
X28284D01*
Y7371D01*
X28282Y7358D01*
Y7354D01*
X28196Y7269D01*
X28168Y7226D01*
X28157Y7175D01*
Y6117D01*
X28107Y6107D01*
X28076Y6184D01*
X28016Y6262D01*
X27937Y6322D01*
X27880Y6346D01*
Y7243D01*
X28006D01*
Y7797D01*
X27334D01*
Y7243D01*
X27615D01*
Y6346D01*
X27559Y6322D01*
X27480Y6262D01*
X27420Y6184D01*
X27382Y6092D01*
X27369Y5994D01*
X27382Y5896D01*
X27420Y5805D01*
X27480Y5727D01*
X27559Y5667D01*
X27650Y5629D01*
X27672Y5626D01*
Y5575D01*
X27650Y5573D01*
X27559Y5535D01*
X27480Y5475D01*
X27420Y5396D01*
X27382Y5305D01*
X27369Y5207D01*
X27382Y5109D01*
X27420Y5018D01*
X27480Y4939D01*
X27559Y4879D01*
X27650Y4841D01*
X27748Y4828D01*
X27846Y4841D01*
X27937Y4879D01*
X27964Y4839D01*
X27548Y4422D01*
X26623D01*
X26615Y4449D01*
X26541Y4588D01*
X26440Y4710D01*
X26318Y4811D01*
X26179Y4885D01*
X26027Y4931D01*
X25920Y4942D01*
Y4140D01*
Y3338D01*
X26027Y3349D01*
X26179Y3395D01*
X26318Y3469D01*
X26440Y3570D01*
X26541Y3692D01*
X26615Y3831D01*
X26623Y3858D01*
X27665D01*
X27738Y3867D01*
X27806Y3895D01*
X27865Y3940D01*
X28732Y4808D01*
X29407Y4133D01*
X29466Y4088D01*
X29534Y4060D01*
X29607Y4050D01*
X29812D01*
X29819Y3983D01*
X29865Y3831D01*
X29939Y3692D01*
X30040Y3570D01*
X30162Y3469D01*
X30301Y3395D01*
X30439Y3353D01*
Y3209D01*
X30448Y3136D01*
X30477Y3068D01*
X30522Y3009D01*
X32710Y820D01*
X32769Y775D01*
X32837Y747D01*
X32910Y738D01*
X33539D01*
X33621Y675D01*
X33717Y635D01*
X33770Y628D01*
Y1020D01*
Y1412D01*
X33717Y1405D01*
X33621Y1365D01*
X33539Y1302D01*
X33027D01*
X31004Y3326D01*
Y3440D01*
X31058Y3469D01*
X31181Y3570D01*
X31281Y3692D01*
X31355Y3831D01*
X31401Y3983D01*
X31412Y4090D01*
X30610D01*
Y4140D01*
X30560D01*
Y4942D01*
X30453Y4931D01*
X30301Y4885D01*
X30162Y4811D01*
X30040Y4710D01*
X29961Y4615D01*
X29724D01*
X29310Y5028D01*
X29329Y5074D01*
X31427D01*
X31478Y5084D01*
X31521Y5113D01*
X32575Y6168D01*
X32903Y5840D01*
X32875Y5797D01*
X32816Y5822D01*
X32730Y5833D01*
X32644Y5822D01*
X32564Y5788D01*
X32495Y5735D01*
X32442Y5666D01*
X32408Y5586D01*
X32397Y5500D01*
X32408Y5414D01*
X32442Y5334D01*
X32495Y5265D01*
X32564Y5212D01*
X32644Y5178D01*
X32730Y5167D01*
X32816Y5178D01*
X32850Y5193D01*
X36644Y1398D01*
X36636Y1358D01*
X36627Y1345D01*
X36552Y1288D01*
X36492Y1209D01*
X36454Y1118D01*
X36441Y1020D01*
X36454Y922D01*
X36492Y831D01*
X36552Y752D01*
X36631Y692D01*
X36722Y654D01*
X36820Y641D01*
X36918Y654D01*
X37009Y692D01*
X37088Y752D01*
X37148Y831D01*
X37186Y922D01*
X37199Y1020D01*
X37186Y1118D01*
X37148Y1209D01*
X37088Y1288D01*
X37009Y1348D01*
X36953Y1371D01*
Y1410D01*
X36942Y1461D01*
X36914Y1504D01*
X33037Y5380D01*
X33052Y5414D01*
X33063Y5500D01*
X33052Y5586D01*
X33027Y5645D01*
X33070Y5673D01*
X33376Y5366D01*
X33419Y5338D01*
X33470Y5327D01*
X37940D01*
Y4848D01*
X38118D01*
X38140Y4833D01*
X38230Y4815D01*
X38320Y4833D01*
X38342Y4848D01*
X38574D01*
Y5410D01*
X38257D01*
Y5510D01*
X38574D01*
Y5805D01*
X38582Y5845D01*
Y7650D01*
Y8948D01*
X38644D01*
Y9510D01*
X38327D01*
X38010D01*
Y8948D01*
X38112D01*
Y7783D01*
X37658D01*
X37607Y7772D01*
X37564Y7744D01*
X37258Y7438D01*
X36930D01*
X36911Y7484D01*
X37040Y7613D01*
X37074Y7598D01*
X37160Y7587D01*
X37246Y7598D01*
X37326Y7632D01*
X37395Y7685D01*
X37448Y7754D01*
X37482Y7834D01*
X37493Y7920D01*
X37482Y8006D01*
X37448Y8086D01*
X37395Y8155D01*
X37326Y8208D01*
X37246Y8242D01*
X37226Y8244D01*
X37213Y8293D01*
X37215Y8295D01*
X37268Y8364D01*
X37302Y8444D01*
X37313Y8530D01*
X37302Y8616D01*
X37268Y8696D01*
X37215Y8765D01*
X37146Y8818D01*
X37066Y8852D01*
X36980Y8863D01*
X36894Y8852D01*
X36814Y8818D01*
X36745Y8765D01*
X36692Y8696D01*
X36658Y8616D01*
X36647Y8530D01*
X36658Y8444D01*
X36673Y8410D01*
X36304Y8042D01*
X36276Y7999D01*
X36266Y7948D01*
Y7838D01*
X36043D01*
Y7464D01*
X36023D01*
Y7421D01*
X36018Y7420D01*
X35975Y7391D01*
X35736Y7152D01*
X35707Y7109D01*
X35697Y7058D01*
Y6576D01*
X35533D01*
Y6270D01*
X35830D01*
X36127D01*
Y6576D01*
X35962D01*
Y7004D01*
X35996Y7037D01*
X36043Y7018D01*
Y6772D01*
X36491D01*
X36647Y6616D01*
Y6522D01*
X36614Y6508D01*
X36545Y6455D01*
X36492Y6386D01*
X36458Y6306D01*
X36447Y6220D01*
X36458Y6134D01*
X36492Y6054D01*
X36545Y5985D01*
X36614Y5932D01*
X36694Y5898D01*
X36780Y5887D01*
X36866Y5898D01*
X36946Y5932D01*
X37015Y5985D01*
X37068Y6054D01*
X37102Y6134D01*
X37113Y6220D01*
X37102Y6306D01*
X37068Y6386D01*
X37015Y6455D01*
X36946Y6508D01*
X36913Y6522D01*
Y6671D01*
X36913Y6671D01*
X36902Y6722D01*
X36874Y6765D01*
X36754Y6885D01*
Y6976D01*
X37370D01*
X37384Y6942D01*
X37437Y6873D01*
X37505Y6820D01*
X37586Y6787D01*
X37672Y6775D01*
X37758Y6787D01*
X37838Y6820D01*
X37907Y6873D01*
X37960Y6942D01*
X37993Y7022D01*
X38005Y7108D01*
X37993Y7194D01*
X37960Y7275D01*
X37907Y7343D01*
X37838Y7396D01*
X37758Y7430D01*
X37710Y7436D01*
X37693Y7482D01*
X37722Y7517D01*
X38112D01*
Y6072D01*
X37940D01*
Y5593D01*
X33525D01*
X32762Y6355D01*
X33383Y6976D01*
X34290D01*
Y6949D01*
X34310D01*
Y6772D01*
X35021D01*
Y6772D01*
X35055Y6765D01*
X35067Y6755D01*
Y6556D01*
X34923D01*
Y5884D01*
X35477D01*
Y6556D01*
X35333D01*
Y7092D01*
X35322Y7143D01*
X35294Y7186D01*
X35089Y7391D01*
X35046Y7420D01*
X35021Y7425D01*
Y7838D01*
X34773D01*
Y7898D01*
X34806Y7912D01*
X34875Y7965D01*
X34928Y8034D01*
X34962Y8114D01*
X34973Y8200D01*
X34962Y8286D01*
X34928Y8366D01*
X34875Y8435D01*
X34806Y8488D01*
X34726Y8522D01*
X34640Y8533D01*
X34554Y8522D01*
X34474Y8488D01*
X34405Y8435D01*
X34352Y8366D01*
X34318Y8286D01*
X34307Y8200D01*
X34318Y8114D01*
X34352Y8034D01*
X34405Y7965D01*
X34474Y7912D01*
X34507Y7898D01*
Y7838D01*
X34310D01*
Y7789D01*
X34264Y7769D01*
X34053Y7981D01*
Y8458D01*
X34086Y8472D01*
X34155Y8525D01*
X34208Y8594D01*
X34242Y8674D01*
X34253Y8760D01*
X34242Y8846D01*
X34208Y8926D01*
X34155Y8995D01*
X34086Y9048D01*
X34006Y9082D01*
X33920Y9093D01*
X33834Y9082D01*
X33754Y9048D01*
X33685Y8995D01*
X33632Y8926D01*
X33598Y8846D01*
X33587Y8760D01*
X33598Y8674D01*
X33632Y8594D01*
X33685Y8525D01*
X33754Y8472D01*
X33787Y8458D01*
Y7926D01*
X33798Y7875D01*
X33826Y7832D01*
X34130Y7528D01*
X34114Y7474D01*
X34105Y7472D01*
X33243Y8335D01*
Y14217D01*
X34310D01*
Y13812D01*
X35021D01*
Y14117D01*
X35071Y14144D01*
X35077Y14140D01*
Y13546D01*
X34933D01*
Y12874D01*
X35487D01*
Y13546D01*
X35343D01*
Y14240D01*
X35332Y14291D01*
X35304Y14334D01*
X35199Y14439D01*
X35156Y14467D01*
X35105Y14478D01*
X35021D01*
Y14878D01*
X34798D01*
Y15124D01*
X34788Y15175D01*
X34760Y15218D01*
X34404Y15574D01*
X34361Y15602D01*
X34310Y15613D01*
X33813D01*
X33812Y15626D01*
X33778Y15706D01*
X33725Y15775D01*
X33656Y15828D01*
X33576Y15862D01*
X33490Y15873D01*
X33404Y15862D01*
X33324Y15828D01*
X33293Y15804D01*
X33243Y15829D01*
Y21172D01*
X34380D01*
Y21158D01*
X34756D01*
Y21058D01*
X34380D01*
Y20961D01*
X34756D01*
Y20911D01*
X34806D01*
Y20752D01*
X34849D01*
Y19877D01*
X34859Y19826D01*
X34888Y19783D01*
X36955Y17716D01*
X36998Y17688D01*
X37048Y17677D01*
X38154D01*
Y17387D01*
X38030D01*
Y16826D01*
X38347D01*
X38663D01*
Y17387D01*
X38623D01*
Y17810D01*
Y18160D01*
X38621Y18170D01*
X38623Y18180D01*
Y18331D01*
X38656Y18373D01*
X38691Y18459D01*
X38696Y18500D01*
X38004D01*
X38009Y18459D01*
X38044Y18373D01*
X38100Y18300D01*
X38115Y18289D01*
Y18160D01*
X38133Y18070D01*
X38154Y18039D01*
Y17943D01*
X37103D01*
X35248Y19798D01*
X35267Y19844D01*
X35592D01*
Y20516D01*
X35448D01*
Y21067D01*
X35438Y21118D01*
X35409Y21161D01*
X35179Y21391D01*
X35136Y21420D01*
X35111Y21425D01*
Y21838D01*
X34888D01*
Y21924D01*
X34878Y21975D01*
X34850Y22018D01*
X34294Y22574D01*
X34251Y22602D01*
X34200Y22613D01*
X33832D01*
X33818Y22646D01*
X33765Y22715D01*
X33696Y22768D01*
X33616Y22802D01*
X33530Y22813D01*
X33444Y22802D01*
X33364Y22768D01*
X33295Y22715D01*
X33290Y22709D01*
X33243Y22725D01*
Y28335D01*
X33283Y28375D01*
X34368D01*
Y28265D01*
X34348D01*
Y28156D01*
X34724D01*
Y28056D01*
X34348D01*
Y27947D01*
X34591D01*
Y27214D01*
X34601Y27163D01*
X34630Y27120D01*
X37274Y24476D01*
X37317Y24448D01*
X37368Y24437D01*
X37983D01*
X38007Y24402D01*
X38008Y24387D01*
X38004Y24350D01*
X38696D01*
X38691Y24391D01*
X38656Y24477D01*
X38627Y24514D01*
X38638Y24570D01*
Y26168D01*
X38807D01*
Y26730D01*
X38490D01*
X38173D01*
Y26421D01*
X38169Y26398D01*
Y24703D01*
X37423D01*
X35111Y27014D01*
X35132Y27064D01*
X35652D01*
Y27736D01*
X35508D01*
Y28065D01*
X35498Y28116D01*
X35469Y28159D01*
X35079Y28548D01*
Y29033D01*
X34706D01*
Y29044D01*
X34696Y29095D01*
X34667Y29138D01*
X34114Y29691D01*
X34071Y29720D01*
X34020Y29730D01*
X33822D01*
X33798Y29786D01*
X33745Y29855D01*
X33676Y29908D01*
X33596Y29942D01*
X33510Y29953D01*
X33424Y29942D01*
X33344Y29908D01*
X33313Y29884D01*
X33263Y29909D01*
Y32569D01*
X33252Y32620D01*
X33224Y32663D01*
X31596Y34291D01*
Y34469D01*
X33294Y36167D01*
X34548D01*
Y36153D01*
X34924D01*
Y36053D01*
X34548D01*
Y35956D01*
X34924D01*
Y35906D01*
X34974D01*
Y35747D01*
X35017D01*
Y34879D01*
X35027Y34828D01*
X35056Y34785D01*
X37505Y32336D01*
X37548Y32308D01*
X37598Y32297D01*
X38364D01*
Y31922D01*
X38272D01*
Y31360D01*
X38589D01*
X38905D01*
Y31922D01*
X38833D01*
Y32430D01*
Y33428D01*
X38925D01*
Y33990D01*
X38609D01*
X38292D01*
Y33428D01*
X38364D01*
Y32563D01*
X37653D01*
X35438Y34778D01*
X35457Y34824D01*
X35782D01*
Y35496D01*
X35638D01*
Y36040D01*
X35628Y36091D01*
X35599Y36134D01*
X35347Y36386D01*
X35304Y36415D01*
X35279Y36420D01*
Y36833D01*
X34756D01*
X34309Y37279D01*
X34312Y37284D01*
X34323Y37370D01*
X34312Y37456D01*
X34278Y37536D01*
X34225Y37605D01*
X34156Y37658D01*
X34076Y37692D01*
X33990Y37703D01*
D02*
G37*
G36*
X24832Y34730D02*
X24526D01*
Y34483D01*
X24832D01*
Y34730D01*
D02*
G37*
G36*
X25238Y35077D02*
X24932D01*
Y34780D01*
Y34483D01*
X25238D01*
Y34596D01*
X25410D01*
X25612Y34395D01*
X25671Y34355D01*
X25741Y34341D01*
X25962D01*
Y34297D01*
X26312D01*
Y34525D01*
Y34753D01*
X25962D01*
Y34708D01*
X25817D01*
X25616Y34910D01*
X25557Y34950D01*
X25486Y34964D01*
X25238D01*
Y35077D01*
D02*
G37*
G36*
X28878Y34733D02*
X28117D01*
Y34317D01*
X28878D01*
Y34367D01*
X29609D01*
Y34113D01*
X30280D01*
Y34667D01*
X29609D01*
Y34633D01*
X28878D01*
Y34733D01*
D02*
G37*
G36*
X36760Y37873D02*
X36674Y37862D01*
X36594Y37828D01*
X36525Y37775D01*
X36472Y37706D01*
X36438Y37626D01*
X36427Y37540D01*
X36438Y37454D01*
X36472Y37374D01*
X36525Y37305D01*
X36567Y37272D01*
X36548Y37242D01*
X36537Y37191D01*
Y36833D01*
X36301D01*
Y36459D01*
X36281D01*
Y36433D01*
X36274D01*
X36224Y36422D01*
X36181Y36394D01*
X36157Y36370D01*
X36128Y36327D01*
X36118Y36276D01*
Y35516D01*
X35838D01*
Y35210D01*
X36135D01*
X36432D01*
Y35516D01*
X36383D01*
Y35767D01*
X36824D01*
X37101Y35490D01*
X37097Y35460D01*
X37108Y35374D01*
X37142Y35294D01*
X37195Y35225D01*
X37264Y35172D01*
X37344Y35138D01*
X37430Y35127D01*
X37516Y35138D01*
X37596Y35172D01*
X37665Y35225D01*
X37718Y35294D01*
X37752Y35374D01*
X37763Y35460D01*
X37752Y35546D01*
X37718Y35626D01*
X37665Y35695D01*
X37596Y35748D01*
X37598Y35802D01*
X37630Y35815D01*
X37699Y35868D01*
X37751Y35937D01*
X37785Y36017D01*
X37796Y36103D01*
X37785Y36189D01*
X37751Y36270D01*
X37699Y36339D01*
X37630Y36391D01*
X37591Y36407D01*
X37601Y36457D01*
X38349D01*
Y34652D01*
X38292D01*
Y34090D01*
X38609D01*
X38925D01*
Y34652D01*
X38818D01*
Y36590D01*
Y36844D01*
X38856Y36893D01*
X38891Y36979D01*
X38896Y37020D01*
X38204D01*
X38209Y36979D01*
X38244Y36893D01*
X38300Y36820D01*
X38349Y36783D01*
Y36723D01*
X37669D01*
X37644Y36773D01*
X37668Y36804D01*
X37702Y36884D01*
X37713Y36970D01*
X37702Y37056D01*
X37668Y37136D01*
X37615Y37205D01*
X37546Y37258D01*
X37466Y37292D01*
X37380Y37303D01*
X37294Y37292D01*
X37214Y37258D01*
X37145Y37205D01*
X37092Y37136D01*
X37058Y37056D01*
X37047Y36970D01*
X37058Y36884D01*
X37092Y36804D01*
X37124Y36761D01*
X37058Y36695D01*
X37012Y36715D01*
Y36833D01*
X36803D01*
Y37137D01*
X36854Y37188D01*
X36882Y37231D01*
X36883Y37234D01*
X36926Y37252D01*
X36995Y37305D01*
X37048Y37374D01*
X37082Y37454D01*
X37093Y37540D01*
X37082Y37626D01*
X37048Y37706D01*
X36995Y37775D01*
X36926Y37828D01*
X36846Y37862D01*
X36760Y37873D01*
D02*
G37*
G36*
X44079Y35147D02*
X43745D01*
X43667Y35132D01*
X43602Y35088D01*
X43558Y35022D01*
X43543Y34945D01*
X43558Y34868D01*
X43602Y34802D01*
X43667Y34758D01*
X43745Y34743D01*
X44079D01*
X44157Y34758D01*
X44222Y34802D01*
X44229Y34812D01*
X45229D01*
X45950Y34091D01*
Y33706D01*
X45006D01*
X44279Y34433D01*
X44281Y34445D01*
X44266Y34522D01*
X44222Y34588D01*
X44157Y34632D01*
X44079Y34647D01*
X43745D01*
X43667Y34632D01*
X43602Y34588D01*
X43558Y34522D01*
X43543Y34445D01*
X43558Y34368D01*
X43602Y34302D01*
X43667Y34258D01*
X43745Y34243D01*
X44079D01*
X44091Y34245D01*
X44857Y33480D01*
X44900Y33451D01*
X44951Y33441D01*
X49211D01*
X49261Y33451D01*
X49304Y33480D01*
X49380Y33556D01*
X49405Y33593D01*
X49435Y33623D01*
X49450Y33621D01*
X49525Y33631D01*
X49595Y33660D01*
X49654Y33706D01*
X49675Y33732D01*
X49725D01*
X49746Y33706D01*
X49805Y33660D01*
X49875Y33631D01*
X49950Y33621D01*
X50025Y33631D01*
X50081Y33654D01*
X50115D01*
X57154Y26614D01*
X57154Y26614D01*
X57427Y26341D01*
X57421Y26300D01*
X57434Y26202D01*
X57472Y26111D01*
X57532Y26032D01*
X57611Y25972D01*
X57702Y25934D01*
X57800Y25921D01*
X57898Y25934D01*
X57989Y25972D01*
X58068Y26032D01*
X58128Y26111D01*
X58166Y26202D01*
X58179Y26300D01*
X58166Y26398D01*
X58128Y26489D01*
X58068Y26568D01*
X57989Y26628D01*
X57898Y26666D01*
X57800Y26679D01*
X57759Y26673D01*
X57486Y26946D01*
X57486Y26946D01*
X50378Y34054D01*
X50301Y34105D01*
X50212Y34123D01*
X50144D01*
X50095Y34160D01*
X50025Y34189D01*
X49950Y34199D01*
X49875Y34189D01*
X49805Y34160D01*
X49746Y34114D01*
X49725Y34088D01*
X49675D01*
X49654Y34114D01*
X49595Y34160D01*
X49525Y34189D01*
X49450Y34199D01*
X49375Y34189D01*
X49305Y34160D01*
X49246Y34114D01*
X49225Y34088D01*
X49175D01*
X49154Y34114D01*
X49095Y34160D01*
X49025Y34189D01*
X48971Y34196D01*
X48968Y34199D01*
X48878Y34216D01*
X47134D01*
Y34279D01*
X46138D01*
X45377Y35039D01*
X45334Y35067D01*
X45284Y35078D01*
X44229D01*
X44222Y35088D01*
X44157Y35132D01*
X44079Y35147D01*
D02*
G37*
G36*
X41934Y34647D02*
X41599D01*
X41522Y34632D01*
X41456Y34588D01*
X41412Y34522D01*
X41397Y34445D01*
X41412Y34368D01*
X41456Y34302D01*
X41522Y34258D01*
X41599Y34243D01*
X41934D01*
X41976Y34251D01*
X42465Y33763D01*
X42457Y33700D01*
X42468Y33614D01*
X42502Y33534D01*
X42555Y33465D01*
X42624Y33412D01*
X42704Y33378D01*
X42790Y33367D01*
X42876Y33378D01*
X42956Y33412D01*
X43025Y33465D01*
X43078Y33534D01*
X43112Y33614D01*
X43123Y33700D01*
X43112Y33786D01*
X43078Y33866D01*
X43025Y33935D01*
X42956Y33988D01*
X42876Y34022D01*
X42790Y34033D01*
X42704Y34022D01*
X42624Y33988D01*
X42619Y33984D01*
X42130Y34473D01*
X42120Y34522D01*
X42076Y34588D01*
X42011Y34632D01*
X41934Y34647D01*
D02*
G37*
G36*
X23010Y31466D02*
X22969Y31461D01*
X22883Y31426D01*
X22810Y31370D01*
X22754Y31297D01*
X22736Y31254D01*
X21826D01*
Y31367D01*
X21520D01*
Y31070D01*
Y30773D01*
X21826D01*
Y30887D01*
X22798D01*
X22810Y30870D01*
X22883Y30814D01*
X22969Y30779D01*
X23010Y30774D01*
Y31120D01*
Y31466D01*
D02*
G37*
G36*
X21420Y31367D02*
X21114D01*
Y31120D01*
X21420D01*
Y31367D01*
D02*
G37*
G36*
X39948Y31902D02*
X39355D01*
Y30718D01*
X39519D01*
Y30348D01*
X39529Y30298D01*
X39558Y30255D01*
X40801Y29011D01*
X40844Y28983D01*
X40895Y28972D01*
X41552D01*
X41559Y28962D01*
X41625Y28918D01*
X41702Y28903D01*
X42036D01*
X42114Y28918D01*
X42179Y28962D01*
X42223Y29028D01*
X42238Y29105D01*
X42223Y29182D01*
X42179Y29248D01*
X42114Y29292D01*
X42036Y29307D01*
X41702D01*
X41625Y29292D01*
X41559Y29248D01*
X41552Y29238D01*
X40950D01*
X39784Y30403D01*
Y30718D01*
X39948D01*
Y31095D01*
X42135D01*
X42155Y31080D01*
X42225Y31051D01*
X42300Y31041D01*
X42375Y31051D01*
X42445Y31080D01*
X42504Y31126D01*
X42525Y31152D01*
X42575D01*
X42596Y31126D01*
X42655Y31080D01*
X42667Y31075D01*
Y30977D01*
X41775Y30085D01*
X41747Y30042D01*
X41737Y29991D01*
Y29807D01*
X41702D01*
X41625Y29792D01*
X41559Y29748D01*
X41515Y29682D01*
X41500Y29605D01*
X41515Y29528D01*
X41559Y29462D01*
X41625Y29418D01*
X41702Y29403D01*
X42036D01*
X42114Y29418D01*
X42179Y29462D01*
X42223Y29528D01*
X42238Y29605D01*
X42223Y29682D01*
X42179Y29748D01*
X42114Y29792D01*
X42036Y29807D01*
X42002D01*
Y29936D01*
X42894Y30828D01*
X42922Y30871D01*
X42933Y30922D01*
Y31075D01*
X42945Y31080D01*
X43004Y31126D01*
X43025Y31152D01*
X43075D01*
X43096Y31126D01*
X43155Y31080D01*
X43225Y31051D01*
X43300Y31041D01*
X43375Y31051D01*
X43445Y31080D01*
X43504Y31126D01*
X43550Y31185D01*
X43579Y31255D01*
X43589Y31330D01*
X43579Y31405D01*
X43550Y31475D01*
X43504Y31534D01*
X43445Y31580D01*
X43375Y31609D01*
X43300Y31619D01*
X43225Y31609D01*
X43155Y31580D01*
X43096Y31534D01*
X43075Y31508D01*
X43025D01*
X43004Y31534D01*
X42945Y31580D01*
X42875Y31609D01*
X42800Y31619D01*
X42725Y31609D01*
X42655Y31580D01*
X42596Y31534D01*
X42575Y31508D01*
X42525D01*
X42504Y31534D01*
X42445Y31580D01*
X42375Y31609D01*
X42300Y31619D01*
X42225Y31609D01*
X42155Y31580D01*
X42135Y31565D01*
X39948D01*
Y31902D01*
D02*
G37*
G36*
X21420Y31020D02*
X21101D01*
X20171Y30090D01*
X19043D01*
Y30833D01*
X18580D01*
Y29907D01*
Y28980D01*
X19043D01*
Y29723D01*
X20247D01*
X20318Y29737D01*
X20377Y29777D01*
X21374Y30773D01*
X21420D01*
Y31020D01*
D02*
G37*
G36*
X25198Y30572D02*
X24892D01*
Y30275D01*
Y29978D01*
X25198D01*
Y30091D01*
X25586D01*
X25667Y30010D01*
X25966D01*
Y30257D01*
X25939D01*
X25791Y30405D01*
X25732Y30445D01*
X25662Y30458D01*
X25198D01*
Y30572D01*
D02*
G37*
G36*
X23110Y31466D02*
Y31120D01*
Y30774D01*
X23151Y30779D01*
X23237Y30814D01*
X23310Y30870D01*
X23322Y30887D01*
X23614D01*
X24370Y30130D01*
X24430Y30090D01*
X24486Y30079D01*
Y29978D01*
X24792D01*
Y30275D01*
Y30572D01*
X24486D01*
Y30572D01*
X24459Y30561D01*
X23820Y31200D01*
X23760Y31240D01*
X23690Y31254D01*
X23384D01*
X23366Y31297D01*
X23310Y31370D01*
X23237Y31426D01*
X23151Y31461D01*
X23110Y31466D01*
D02*
G37*
G36*
X47262Y30308D02*
X46078D01*
Y29738D01*
X44332D01*
X44325Y29748D01*
X44259Y29792D01*
X44182Y29807D01*
X43847D01*
X43770Y29792D01*
X43705Y29748D01*
X43661Y29682D01*
X43645Y29605D01*
X43661Y29528D01*
X43705Y29462D01*
X43770Y29418D01*
X43847Y29403D01*
X44182D01*
X44259Y29418D01*
X44325Y29462D01*
X44332Y29472D01*
X44767D01*
X44784Y29422D01*
X44755Y29400D01*
X44702Y29331D01*
X44674Y29264D01*
X44301D01*
X44259Y29292D01*
X44182Y29307D01*
X43847D01*
X43770Y29292D01*
X43705Y29248D01*
X43661Y29182D01*
X43645Y29105D01*
X43661Y29028D01*
X43705Y28962D01*
X43770Y28918D01*
X43847Y28903D01*
X44182D01*
X44259Y28918D01*
X44325Y28962D01*
X44349Y28998D01*
X44702D01*
X44702Y28998D01*
X44755Y28930D01*
X44780Y28910D01*
Y28847D01*
X44745Y28820D01*
X44692Y28751D01*
X44682Y28728D01*
X44339D01*
X44325Y28748D01*
X44259Y28792D01*
X44182Y28807D01*
X43847D01*
X43770Y28792D01*
X43705Y28748D01*
X43661Y28682D01*
X43645Y28605D01*
X43661Y28528D01*
X43705Y28462D01*
X43770Y28418D01*
X43847Y28403D01*
X44182D01*
X44259Y28418D01*
X44325Y28462D01*
X44325Y28462D01*
X44674D01*
X44692Y28419D01*
X44714Y28389D01*
X44689Y28339D01*
X44015D01*
X43954Y28327D01*
X43847D01*
X43762Y28310D01*
X43690Y28262D01*
X43642Y28190D01*
X43635Y28155D01*
X44015D01*
Y28055D01*
X43635D01*
X43642Y28020D01*
X43690Y27948D01*
X43762Y27900D01*
X43847Y27883D01*
X43954D01*
X44015Y27870D01*
X44584D01*
X44601Y27820D01*
X44595Y27815D01*
X44542Y27746D01*
X44533Y27725D01*
X44340D01*
X44325Y27748D01*
X44259Y27792D01*
X44182Y27807D01*
X43847D01*
X43770Y27792D01*
X43705Y27748D01*
X43661Y27682D01*
X43645Y27605D01*
X43661Y27528D01*
X43705Y27462D01*
X43770Y27418D01*
X43847Y27403D01*
X44182D01*
X44259Y27418D01*
X44322Y27460D01*
X44523D01*
X44542Y27414D01*
X44595Y27345D01*
X44664Y27292D01*
X44674Y27288D01*
X44664Y27238D01*
X44332D01*
X44325Y27248D01*
X44259Y27292D01*
X44182Y27307D01*
X43847D01*
X43770Y27292D01*
X43705Y27248D01*
X43661Y27182D01*
X43645Y27105D01*
X43661Y27028D01*
X43705Y26962D01*
X43770Y26918D01*
X43847Y26903D01*
X44182D01*
X44259Y26918D01*
X44325Y26962D01*
X44332Y26972D01*
X44850D01*
X45729Y26093D01*
X45772Y26065D01*
X45823Y26054D01*
X46088D01*
Y25890D01*
X47272D01*
Y25952D01*
X48927D01*
X49017Y25970D01*
X49065Y26002D01*
X49078Y25999D01*
X49095Y25945D01*
X48822Y25673D01*
X45302D01*
X44382Y26593D01*
X44384Y26605D01*
X44369Y26682D01*
X44325Y26748D01*
X44259Y26792D01*
X44182Y26807D01*
X43847D01*
X43770Y26792D01*
X43705Y26748D01*
X43661Y26682D01*
X43645Y26605D01*
X43661Y26528D01*
X43705Y26462D01*
X43770Y26418D01*
X43847Y26403D01*
X44182D01*
X44194Y26405D01*
X45153Y25446D01*
X45196Y25418D01*
X45247Y25407D01*
X48877D01*
X48928Y25418D01*
X48971Y25446D01*
X49480Y25956D01*
X49505Y25993D01*
X49535Y26023D01*
X49550Y26021D01*
X49625Y26031D01*
X49695Y26060D01*
X49754Y26106D01*
X49775Y26132D01*
X49825D01*
X49846Y26106D01*
X49905Y26060D01*
X49975Y26031D01*
X50001Y26027D01*
X52514Y23514D01*
X52590Y23463D01*
X52680Y23445D01*
X52680Y23445D01*
X54323D01*
X54627Y23141D01*
X54621Y23100D01*
X54634Y23002D01*
X54672Y22911D01*
X54732Y22832D01*
X54811Y22772D01*
X54902Y22734D01*
X55000Y22721D01*
X55098Y22734D01*
X55189Y22772D01*
X55268Y22832D01*
X55328Y22911D01*
X55366Y23002D01*
X55379Y23100D01*
X55366Y23198D01*
X55328Y23289D01*
X55268Y23368D01*
X55189Y23428D01*
X55098Y23466D01*
X55000Y23479D01*
X54959Y23473D01*
X54586Y23846D01*
X54510Y23897D01*
X54420Y23915D01*
X52777D01*
X50333Y26359D01*
X50329Y26385D01*
X50300Y26455D01*
X50254Y26514D01*
X50195Y26560D01*
X50125Y26589D01*
X50050Y26599D01*
X49975Y26589D01*
X49905Y26560D01*
X49846Y26514D01*
X49825Y26488D01*
X49775D01*
X49754Y26514D01*
X49695Y26560D01*
X49625Y26589D01*
X49550Y26599D01*
X49475Y26589D01*
X49405Y26560D01*
X49346Y26514D01*
X49325Y26488D01*
X49275D01*
X49254Y26514D01*
X49195Y26560D01*
X49125Y26589D01*
X49050Y26599D01*
X48975Y26589D01*
X48905Y26560D01*
X48846Y26514D01*
X48800Y26455D01*
X48786Y26422D01*
X47272D01*
Y26484D01*
X46088D01*
Y26320D01*
X45878D01*
X44999Y27199D01*
X44962Y27223D01*
X44958Y27250D01*
X44961Y27277D01*
X44996Y27292D01*
X45065Y27345D01*
X45118Y27414D01*
X45152Y27494D01*
X45163Y27580D01*
X45152Y27666D01*
X45118Y27746D01*
X45065Y27815D01*
X45059Y27820D01*
X45076Y27870D01*
X45270D01*
X45282Y27855D01*
X45355Y27799D01*
X45440Y27764D01*
X45481Y27759D01*
Y28105D01*
Y28451D01*
X45440Y28446D01*
X45355Y28411D01*
X45298Y28367D01*
X45293Y28369D01*
X45280Y28395D01*
X45273Y28431D01*
X45302Y28499D01*
X45313Y28585D01*
X45302Y28671D01*
X45268Y28751D01*
X45215Y28820D01*
X45190Y28840D01*
Y28903D01*
X45225Y28930D01*
X45278Y28998D01*
X45312Y29079D01*
X45323Y29165D01*
X45312Y29251D01*
X45278Y29331D01*
X45225Y29400D01*
X45197Y29422D01*
X45214Y29472D01*
X48310D01*
X48671Y29111D01*
X48714Y29083D01*
X48765Y29072D01*
X49297D01*
X49302Y29060D01*
X49348Y29000D01*
X49374Y28980D01*
Y28930D01*
X49348Y28909D01*
X49302Y28850D01*
X49273Y28780D01*
X49263Y28705D01*
X49273Y28630D01*
X49302Y28560D01*
X49348Y28500D01*
X49407Y28455D01*
X49477Y28426D01*
X49552Y28416D01*
X49627Y28426D01*
X49697Y28455D01*
X49717Y28470D01*
X50498D01*
X55484Y23484D01*
X55484Y23484D01*
X55560Y23433D01*
X55650Y23415D01*
X57153D01*
X57427Y23141D01*
X57421Y23100D01*
X57434Y23002D01*
X57472Y22911D01*
X57532Y22832D01*
X57611Y22772D01*
X57702Y22734D01*
X57800Y22721D01*
X57898Y22734D01*
X57989Y22772D01*
X58068Y22832D01*
X58128Y22911D01*
X58166Y23002D01*
X58179Y23100D01*
X58166Y23198D01*
X58128Y23289D01*
X58068Y23368D01*
X57989Y23428D01*
X57898Y23466D01*
X57800Y23479D01*
X57759Y23473D01*
X57416Y23816D01*
X57340Y23867D01*
X57250Y23885D01*
X55747D01*
X50761Y28871D01*
X50685Y28922D01*
X50595Y28939D01*
X49759D01*
X49742Y28989D01*
X49756Y29000D01*
X49802Y29060D01*
X49831Y29130D01*
X49841Y29205D01*
X49831Y29280D01*
X49802Y29350D01*
X49756Y29409D01*
X49730Y29430D01*
Y29480D01*
X49756Y29500D01*
X49802Y29560D01*
X49831Y29630D01*
X49841Y29705D01*
X49831Y29780D01*
X49802Y29850D01*
X49756Y29909D01*
X49697Y29955D01*
X49627Y29984D01*
X49601Y29988D01*
X49411Y30177D01*
X49335Y30228D01*
X49245Y30246D01*
X47262D01*
Y30308D01*
D02*
G37*
G36*
X25966Y29910D02*
X25680D01*
Y29663D01*
X25966D01*
Y29910D01*
D02*
G37*
G36*
X30256Y29700D02*
X29950D01*
Y29453D01*
X30256D01*
Y29700D01*
D02*
G37*
G36*
X38905Y31260D02*
X38589D01*
X38272D01*
Y30698D01*
X38295D01*
Y29444D01*
X38250Y29410D01*
X38194Y29337D01*
X38159Y29251D01*
X38154Y29210D01*
X38846D01*
X38841Y29251D01*
X38806Y29337D01*
X38765Y29390D01*
Y30698D01*
X38905D01*
Y31260D01*
D02*
G37*
G36*
X47282Y29265D02*
X46720D01*
Y28999D01*
X47282D01*
Y29265D01*
D02*
G37*
G36*
X42036Y28807D02*
X41702D01*
X41625Y28792D01*
X41559Y28748D01*
X41535Y28711D01*
X40739D01*
X40688Y28701D01*
X40645Y28673D01*
X40216Y28244D01*
X40188Y28201D01*
X40177Y28150D01*
Y27622D01*
X40144Y27608D01*
X40075Y27555D01*
X40022Y27486D01*
X39988Y27406D01*
X39977Y27320D01*
X39988Y27234D01*
X40022Y27154D01*
X40075Y27085D01*
X40144Y27032D01*
X40224Y26998D01*
X40310Y26987D01*
X40396Y26998D01*
X40476Y27032D01*
X40545Y27085D01*
X40598Y27154D01*
X40632Y27234D01*
X40643Y27320D01*
X40632Y27406D01*
X40598Y27486D01*
X40545Y27555D01*
X40476Y27608D01*
X40443Y27622D01*
Y28095D01*
X40794Y28446D01*
X40934D01*
X40954Y28401D01*
X40954Y28396D01*
X40887Y28345D01*
X40834Y28276D01*
X40801Y28196D01*
X40790Y28110D01*
X40801Y28024D01*
X40834Y27944D01*
X40873Y27894D01*
X40863Y27835D01*
X40847Y27829D01*
X40778Y27776D01*
X40725Y27707D01*
X40691Y27627D01*
X40680Y27540D01*
X40691Y27454D01*
X40725Y27374D01*
X40778Y27305D01*
X40847Y27252D01*
X40927Y27219D01*
X41013Y27208D01*
X41099Y27219D01*
X41179Y27252D01*
X41248Y27305D01*
X41301Y27374D01*
X41334Y27454D01*
X41335Y27460D01*
X41562D01*
X41625Y27418D01*
X41702Y27403D01*
X42036D01*
X42114Y27418D01*
X42179Y27462D01*
X42223Y27528D01*
X42238Y27605D01*
X42223Y27682D01*
X42179Y27748D01*
X42114Y27792D01*
X42036Y27807D01*
X41702D01*
X41625Y27792D01*
X41559Y27748D01*
X41544Y27725D01*
X41298D01*
X41264Y27766D01*
X41273Y27815D01*
X41289Y27822D01*
X41356Y27873D01*
X41856D01*
X41869Y27870D01*
X41959Y27888D01*
X41981Y27903D01*
X42036D01*
X42114Y27918D01*
X42179Y27962D01*
X42223Y28028D01*
X42238Y28105D01*
X42223Y28182D01*
X42179Y28248D01*
X42114Y28292D01*
X42036Y28307D01*
X41982D01*
X41956Y28324D01*
X41867Y28342D01*
X41361D01*
X41358Y28345D01*
X41292Y28396D01*
X41291Y28401D01*
X41312Y28446D01*
X41583D01*
X41625Y28418D01*
X41702Y28403D01*
X42036D01*
X42114Y28418D01*
X42179Y28462D01*
X42223Y28528D01*
X42238Y28605D01*
X42223Y28682D01*
X42179Y28748D01*
X42114Y28792D01*
X42036Y28807D01*
D02*
G37*
G36*
X45878Y28055D02*
X45581D01*
Y27759D01*
X45623Y27764D01*
X45708Y27799D01*
X45781Y27855D01*
X45837Y27928D01*
X45872Y28014D01*
X45878Y28055D01*
D02*
G37*
G36*
X46620Y29265D02*
X46058D01*
Y28964D01*
X45581Y28487D01*
Y28155D01*
X45913D01*
X46385Y28628D01*
X46435Y28621D01*
Y27567D01*
X46068D01*
Y27300D01*
X47292D01*
Y27567D01*
X46905D01*
Y28632D01*
X47282D01*
Y28899D01*
X46670D01*
Y28949D01*
X46620D01*
Y29265D01*
D02*
G37*
G36*
X36302Y27350D02*
X36055D01*
Y27044D01*
X36302D01*
Y27350D01*
D02*
G37*
G36*
X35955D02*
X35708D01*
Y27044D01*
X35955D01*
Y27350D01*
D02*
G37*
G36*
X47292Y27200D02*
X46730D01*
Y26933D01*
X47292D01*
Y27200D01*
D02*
G37*
G36*
X46630D02*
X46068D01*
Y26933D01*
X46630D01*
Y27200D01*
D02*
G37*
G36*
X36640Y30113D02*
X36554Y30102D01*
X36474Y30068D01*
X36405Y30015D01*
X36352Y29946D01*
X36318Y29866D01*
X36307Y29780D01*
X36318Y29694D01*
X36333Y29660D01*
X36316Y29644D01*
X36288Y29601D01*
X36277Y29550D01*
Y29033D01*
X36101D01*
Y28659D01*
X36081D01*
Y28616D01*
X36076Y28615D01*
X36033Y28586D01*
X35911Y28464D01*
X35882Y28421D01*
X35872Y28370D01*
Y27756D01*
X35708D01*
Y27450D01*
X36005D01*
X36302D01*
Y27756D01*
X36138D01*
Y27967D01*
X36324D01*
Y27954D01*
X36334Y27903D01*
X36362Y27860D01*
X37066Y27156D01*
X37109Y27128D01*
X37160Y27117D01*
X37218D01*
X37232Y27084D01*
X37285Y27015D01*
X37354Y26962D01*
X37434Y26928D01*
X37520Y26917D01*
X37606Y26928D01*
X37686Y26962D01*
X37755Y27015D01*
X37808Y27084D01*
X37842Y27164D01*
X37853Y27250D01*
X37842Y27336D01*
X37808Y27416D01*
X37755Y27485D01*
X37686Y27538D01*
X37606Y27572D01*
X37589Y27574D01*
X37582Y27625D01*
X37646Y27652D01*
X37715Y27705D01*
X37768Y27774D01*
X37802Y27854D01*
X37813Y27940D01*
X37802Y28026D01*
X37768Y28106D01*
X37715Y28175D01*
X37646Y28228D01*
X37566Y28262D01*
X37480Y28273D01*
X37394Y28262D01*
X37360Y28247D01*
X37286Y28321D01*
X37305Y28367D01*
X38295D01*
Y27392D01*
X38173D01*
Y26830D01*
X38490D01*
X38807D01*
Y27392D01*
X38765D01*
Y28470D01*
Y28930D01*
X38806Y28983D01*
X38841Y29069D01*
X38846Y29110D01*
X38154D01*
X38159Y29069D01*
X38194Y28983D01*
X38250Y28910D01*
X38295Y28876D01*
Y28633D01*
X36966D01*
X36947Y28679D01*
X37352Y29083D01*
X37354Y29082D01*
X37434Y29048D01*
X37520Y29037D01*
X37606Y29048D01*
X37686Y29082D01*
X37755Y29135D01*
X37808Y29204D01*
X37842Y29284D01*
X37853Y29370D01*
X37842Y29456D01*
X37808Y29536D01*
X37755Y29605D01*
X37686Y29658D01*
X37606Y29692D01*
X37520Y29703D01*
X37434Y29692D01*
X37354Y29658D01*
X37285Y29605D01*
X37232Y29536D01*
X37198Y29456D01*
X37187Y29370D01*
X37196Y29303D01*
X36858Y28964D01*
X36812Y28984D01*
Y29033D01*
X36543D01*
Y29412D01*
X36593Y29453D01*
X36640Y29447D01*
X36726Y29458D01*
X36806Y29492D01*
X36875Y29545D01*
X36928Y29614D01*
X36962Y29694D01*
X36973Y29780D01*
X36962Y29866D01*
X36928Y29946D01*
X36875Y30015D01*
X36806Y30068D01*
X36726Y30102D01*
X36640Y30113D01*
D02*
G37*
G36*
X66200Y26679D02*
X66102Y26666D01*
X66011Y26628D01*
X65932Y26568D01*
X65872Y26489D01*
X65834Y26398D01*
X65821Y26300D01*
X65834Y26202D01*
X65872Y26111D01*
X65932Y26032D01*
X66011Y25972D01*
X66102Y25934D01*
X66200Y25921D01*
X66298Y25934D01*
X66389Y25972D01*
X66468Y26032D01*
X66528Y26111D01*
X66566Y26202D01*
X66579Y26300D01*
X66566Y26398D01*
X66528Y26489D01*
X66468Y26568D01*
X66389Y26628D01*
X66298Y26666D01*
X66200Y26679D01*
D02*
G37*
G36*
X41934Y35147D02*
X41599D01*
X41522Y35132D01*
X41456Y35088D01*
X41449Y35078D01*
X40925D01*
X40874Y35067D01*
X40831Y35039D01*
X40014Y34222D01*
X39968Y34241D01*
Y34632D01*
X39375D01*
Y33448D01*
X39968D01*
Y33907D01*
X40020D01*
X40071Y33918D01*
X40114Y33946D01*
X40980Y34812D01*
X41449D01*
X41456Y34802D01*
X41522Y34758D01*
X41599Y34743D01*
X41934D01*
X42011Y34758D01*
X42076Y34802D01*
X42083Y34812D01*
X42260D01*
X44756Y32316D01*
X44799Y32288D01*
X44850Y32277D01*
X45570D01*
X45582Y32250D01*
X45627Y32190D01*
X45687Y32145D01*
X45757Y32116D01*
X45832Y32106D01*
X45907Y32116D01*
X45977Y32145D01*
X46036Y32190D01*
X46057Y32217D01*
X46107D01*
X46128Y32190D01*
X46187Y32145D01*
X46257Y32116D01*
X46332Y32106D01*
X46407Y32116D01*
X46477Y32145D01*
X46536Y32190D01*
X46557Y32217D01*
X46607D01*
X46627Y32190D01*
X46687Y32145D01*
X46757Y32116D01*
X46832Y32106D01*
X46907Y32116D01*
X46977Y32145D01*
X46997Y32160D01*
X49248D01*
X54765Y26643D01*
Y26593D01*
X54732Y26568D01*
X54672Y26489D01*
X54634Y26398D01*
X54621Y26300D01*
X54634Y26202D01*
X54672Y26111D01*
X54732Y26032D01*
X54811Y25972D01*
X54902Y25934D01*
X55000Y25921D01*
X55098Y25934D01*
X55189Y25972D01*
X55268Y26032D01*
X55328Y26111D01*
X55366Y26202D01*
X55379Y26300D01*
X55366Y26398D01*
X55328Y26489D01*
X55268Y26568D01*
X55235Y26593D01*
Y26740D01*
X55235Y26740D01*
X55217Y26830D01*
X55166Y26906D01*
X55166Y26906D01*
X49511Y32561D01*
X49435Y32612D01*
X49345Y32629D01*
X46997D01*
X46977Y32645D01*
X46907Y32674D01*
X46832Y32684D01*
X46757Y32674D01*
X46687Y32645D01*
X46627Y32599D01*
X46607Y32573D01*
X46557D01*
X46536Y32599D01*
X46477Y32645D01*
X46407Y32674D01*
X46332Y32684D01*
X46257Y32674D01*
X46187Y32645D01*
X46128Y32599D01*
X46107Y32573D01*
X46057D01*
X46036Y32599D01*
X45977Y32645D01*
X45907Y32674D01*
X45832Y32684D01*
X45757Y32674D01*
X45687Y32645D01*
X45627Y32599D01*
X45584Y32543D01*
X44905D01*
X42409Y35039D01*
X42366Y35067D01*
X42315Y35078D01*
X42083D01*
X42076Y35088D01*
X42011Y35132D01*
X41934Y35147D01*
D02*
G37*
G36*
X50421Y34951D02*
X50335Y34940D01*
X50255Y34906D01*
X50186Y34853D01*
X50133Y34784D01*
X50100Y34704D01*
X50088Y34618D01*
X50100Y34532D01*
X50133Y34452D01*
X50186Y34383D01*
X50255Y34330D01*
X50335Y34297D01*
X50421Y34285D01*
X50422Y34285D01*
X51024Y33684D01*
X51100Y33633D01*
X51189Y33615D01*
X51189Y33615D01*
X51973D01*
X60008Y25581D01*
X59989Y25535D01*
X58093D01*
X58068Y25568D01*
X57989Y25628D01*
X57898Y25666D01*
X57800Y25679D01*
X57702Y25666D01*
X57611Y25628D01*
X57532Y25568D01*
X57507Y25535D01*
X55293D01*
X55268Y25568D01*
X55189Y25628D01*
X55098Y25666D01*
X55000Y25679D01*
X54902Y25666D01*
X54811Y25628D01*
X54732Y25568D01*
X54672Y25489D01*
X54634Y25398D01*
X54621Y25300D01*
X54634Y25202D01*
X54672Y25111D01*
X54732Y25032D01*
X54811Y24972D01*
X54902Y24934D01*
X55000Y24921D01*
X55098Y24934D01*
X55189Y24972D01*
X55268Y25032D01*
X55293Y25065D01*
X57507D01*
X57532Y25032D01*
X57611Y24972D01*
X57702Y24934D01*
X57800Y24921D01*
X57898Y24934D01*
X57989Y24972D01*
X58068Y25032D01*
X58093Y25065D01*
X60307D01*
X60332Y25032D01*
X60411Y24972D01*
X60502Y24934D01*
X60600Y24921D01*
X60698Y24934D01*
X60789Y24972D01*
X60868Y25032D01*
X60893Y25065D01*
X63107D01*
X63132Y25032D01*
X63211Y24972D01*
X63302Y24934D01*
X63400Y24921D01*
X63498Y24934D01*
X63589Y24972D01*
X63668Y25032D01*
X63693Y25065D01*
X65907D01*
X65932Y25032D01*
X66011Y24972D01*
X66102Y24934D01*
X66200Y24921D01*
X66298Y24934D01*
X66389Y24972D01*
X66468Y25032D01*
X66493Y25065D01*
X66683D01*
X67290Y24458D01*
Y22335D01*
X66493D01*
X66468Y22368D01*
X66389Y22428D01*
X66298Y22466D01*
X66200Y22479D01*
X66102Y22466D01*
X66011Y22428D01*
X65932Y22368D01*
X65907Y22335D01*
X63693D01*
X63668Y22368D01*
X63589Y22428D01*
X63498Y22466D01*
X63400Y22479D01*
X63302Y22466D01*
X63211Y22428D01*
X63132Y22368D01*
X63107Y22335D01*
X60893D01*
X60868Y22368D01*
X60789Y22428D01*
X60698Y22466D01*
X60600Y22479D01*
X60502Y22466D01*
X60411Y22428D01*
X60332Y22368D01*
X60307Y22335D01*
X58093D01*
X58068Y22368D01*
X57989Y22428D01*
X57898Y22466D01*
X57800Y22479D01*
X57702Y22466D01*
X57611Y22428D01*
X57532Y22368D01*
X57507Y22335D01*
X55293D01*
X55268Y22368D01*
X55189Y22428D01*
X55098Y22466D01*
X55000Y22479D01*
X54902Y22466D01*
X54811Y22428D01*
X54732Y22368D01*
X54672Y22289D01*
X54634Y22198D01*
X54621Y22100D01*
X54634Y22002D01*
X54672Y21911D01*
X54731Y21835D01*
X54728Y21817D01*
X54717Y21785D01*
X53287D01*
X52206Y22866D01*
X52130Y22917D01*
X52040Y22935D01*
X50275D01*
X50255Y22950D01*
X50185Y22979D01*
X50110Y22989D01*
X50035Y22979D01*
X49965Y22950D01*
X49906Y22904D01*
X49885Y22878D01*
X49835D01*
X49814Y22904D01*
X49755Y22950D01*
X49685Y22979D01*
X49610Y22989D01*
X49595Y22987D01*
X49565Y23017D01*
X49540Y23054D01*
X49451Y23144D01*
X49408Y23172D01*
X49357Y23183D01*
X46160D01*
X46140Y23229D01*
X46468Y23556D01*
X46472Y23556D01*
X46547Y23566D01*
X46617Y23595D01*
X46676Y23640D01*
X46697Y23667D01*
X46747D01*
X46768Y23640D01*
X46827Y23595D01*
X46897Y23566D01*
X46972Y23556D01*
X47047Y23566D01*
X47117Y23595D01*
X47176Y23640D01*
X47222Y23700D01*
X47251Y23770D01*
X47261Y23845D01*
X47251Y23920D01*
X47222Y23990D01*
X47176Y24049D01*
X47117Y24095D01*
X47047Y24124D01*
X46972Y24134D01*
X46897Y24124D01*
X46827Y24095D01*
X46768Y24049D01*
X46747Y24023D01*
X46697D01*
X46676Y24049D01*
X46617Y24095D01*
X46547Y24124D01*
X46472Y24134D01*
X46397Y24124D01*
X46327Y24095D01*
X46267Y24049D01*
X46247Y24023D01*
X46197D01*
X46176Y24049D01*
X46117Y24095D01*
X46047Y24124D01*
X45972Y24134D01*
X45897Y24124D01*
X45827Y24095D01*
X45807Y24079D01*
X39821D01*
X39731Y24062D01*
X39655Y24011D01*
X39496Y23852D01*
X39235D01*
Y22668D01*
X39641D01*
X40378Y21931D01*
X40421Y21902D01*
X40471Y21892D01*
X40700D01*
X40717Y21842D01*
X40695Y21825D01*
X40642Y21756D01*
X40608Y21676D01*
X40597Y21590D01*
X40608Y21504D01*
X40642Y21424D01*
X40695Y21355D01*
X40764Y21302D01*
X40844Y21268D01*
X40930Y21257D01*
X41016Y21268D01*
X41026Y21273D01*
X41057Y21232D01*
X41027Y21191D01*
X40993Y21111D01*
X40982Y21025D01*
X40993Y20939D01*
X41027Y20859D01*
X41080Y20790D01*
X41149Y20737D01*
X41229Y20703D01*
X41236Y20703D01*
X41232Y20653D01*
X39563D01*
X39562Y20666D01*
X39528Y20746D01*
X39475Y20815D01*
X39406Y20868D01*
X39326Y20902D01*
X39240Y20913D01*
X39154Y20902D01*
X39074Y20868D01*
X39005Y20815D01*
X38952Y20746D01*
X38918Y20666D01*
X38907Y20580D01*
X38918Y20494D01*
X38952Y20414D01*
X39005Y20345D01*
X39062Y20301D01*
X39065Y20252D01*
X39065Y20252D01*
X39065Y20252D01*
Y19068D01*
X39326D01*
X41310Y17084D01*
X41386Y17033D01*
X41476Y17015D01*
X46655D01*
X46675Y17000D01*
X46745Y16971D01*
X46820Y16961D01*
X46895Y16971D01*
X46965Y17000D01*
X47024Y17046D01*
X47045Y17072D01*
X47095D01*
X47116Y17046D01*
X47175Y17000D01*
X47245Y16971D01*
X47320Y16961D01*
X47395Y16971D01*
X47465Y17000D01*
X47524Y17046D01*
X47545Y17072D01*
X47595D01*
X47616Y17046D01*
X47675Y17000D01*
X47745Y16971D01*
X47820Y16961D01*
X47895Y16971D01*
X47965Y17000D01*
X48024Y17046D01*
X48070Y17105D01*
X48099Y17175D01*
X48109Y17250D01*
X48099Y17325D01*
X48070Y17395D01*
X48024Y17454D01*
X47965Y17500D01*
X47895Y17529D01*
X47820Y17539D01*
X47745Y17529D01*
X47675Y17500D01*
X47616Y17454D01*
X47595Y17428D01*
X47545D01*
X47524Y17454D01*
X47465Y17500D01*
X47395Y17529D01*
X47320Y17539D01*
X47305Y17537D01*
X47275Y17567D01*
X47250Y17604D01*
X47041Y17814D01*
X47035Y17817D01*
X47051Y17867D01*
X48837D01*
X48888Y17878D01*
X48931Y17906D01*
X49440Y18416D01*
X49465Y18453D01*
X49495Y18483D01*
X49510Y18481D01*
X49585Y18491D01*
X49655Y18520D01*
X49714Y18566D01*
X49735Y18592D01*
X49785D01*
X49806Y18566D01*
X49865Y18520D01*
X49935Y18491D01*
X50010Y18481D01*
X50085Y18491D01*
X50155Y18520D01*
X50214Y18566D01*
X50260Y18625D01*
X50289Y18695D01*
X50299Y18770D01*
X50289Y18845D01*
X50260Y18915D01*
X50214Y18974D01*
X50155Y19020D01*
X50085Y19049D01*
X50010Y19059D01*
X49935Y19049D01*
X49865Y19020D01*
X49806Y18974D01*
X49785Y18948D01*
X49735D01*
X49714Y18974D01*
X49655Y19020D01*
X49585Y19049D01*
X49510Y19059D01*
X49435Y19049D01*
X49365Y19020D01*
X49306Y18974D01*
X49285Y18948D01*
X49235D01*
X49214Y18974D01*
X49155Y19020D01*
X49085Y19049D01*
X49010Y19059D01*
X48935Y19049D01*
X48865Y19020D01*
X48817Y18983D01*
X47172D01*
Y19024D01*
X46176D01*
X45080Y20119D01*
X45037Y20147D01*
X44987Y20158D01*
X44362D01*
X44355Y20168D01*
X44289Y20212D01*
X44212Y20227D01*
X43877D01*
X43800Y20212D01*
X43735Y20168D01*
X43691Y20102D01*
X43675Y20025D01*
X43691Y19948D01*
X43735Y19882D01*
X43800Y19838D01*
X43877Y19823D01*
X44212D01*
X44289Y19838D01*
X44355Y19882D01*
X44362Y19892D01*
X44932D01*
X45988Y18836D01*
Y18430D01*
X47172D01*
Y18514D01*
X48879D01*
X48935Y18491D01*
X49010Y18481D01*
X49067Y18488D01*
X49091Y18441D01*
X48782Y18133D01*
X45792D01*
X44412Y19513D01*
X44414Y19525D01*
X44399Y19602D01*
X44355Y19668D01*
X44289Y19712D01*
X44212Y19727D01*
X43877D01*
X43800Y19712D01*
X43735Y19668D01*
X43691Y19602D01*
X43675Y19525D01*
X43691Y19448D01*
X43735Y19382D01*
X43800Y19338D01*
X43877Y19323D01*
X44212D01*
X44224Y19325D01*
X45643Y17906D01*
X45649Y17903D01*
X45634Y17853D01*
X43926D01*
X42266Y19513D01*
X42268Y19525D01*
X42253Y19602D01*
X42209Y19668D01*
X42144Y19712D01*
X42066Y19727D01*
X41732D01*
X41682Y19717D01*
X41657Y19763D01*
X41720Y19825D01*
X41732Y19823D01*
X42066D01*
X42144Y19838D01*
X42209Y19882D01*
X42253Y19948D01*
X42268Y20025D01*
X42253Y20102D01*
X42209Y20168D01*
X42144Y20212D01*
X42066Y20227D01*
X41732D01*
X41655Y20212D01*
X41589Y20168D01*
X41545Y20102D01*
X41530Y20025D01*
X41532Y20013D01*
X41312Y19793D01*
X39658D01*
Y20252D01*
X39436D01*
X39420Y20302D01*
X39475Y20345D01*
X39508Y20387D01*
X41585D01*
X41589Y20382D01*
X41655Y20338D01*
X41732Y20323D01*
X42066D01*
X42144Y20338D01*
X42209Y20382D01*
X42253Y20448D01*
X42268Y20525D01*
X42253Y20602D01*
X42209Y20668D01*
X42144Y20712D01*
X42066Y20727D01*
X41732D01*
X41655Y20712D01*
X41589Y20668D01*
X41579Y20653D01*
X41397D01*
X41394Y20703D01*
X41401Y20703D01*
X41481Y20737D01*
X41550Y20790D01*
X41551Y20790D01*
X41899D01*
X41989Y20808D01*
X42011Y20823D01*
X42066D01*
X42144Y20838D01*
X42209Y20882D01*
X42253Y20948D01*
X42268Y21025D01*
X42253Y21102D01*
X42209Y21168D01*
X42144Y21212D01*
X42066Y21227D01*
X42011D01*
X41989Y21242D01*
X41899Y21259D01*
X41551D01*
X41550Y21260D01*
X41481Y21313D01*
X41401Y21346D01*
X41315Y21358D01*
X41229Y21346D01*
X41227Y21346D01*
X41197Y21386D01*
X41219Y21418D01*
X41565D01*
X41589Y21382D01*
X41655Y21338D01*
X41732Y21323D01*
X42066D01*
X42144Y21338D01*
X42209Y21382D01*
X42253Y21448D01*
X42268Y21525D01*
X42253Y21602D01*
X42209Y21668D01*
X42144Y21712D01*
X42066Y21727D01*
X41732D01*
X41655Y21712D01*
X41613Y21684D01*
X41248D01*
X41218Y21756D01*
X41165Y21825D01*
X41143Y21842D01*
X41160Y21892D01*
X41582D01*
X41589Y21882D01*
X41655Y21838D01*
X41732Y21823D01*
X42066D01*
X42144Y21838D01*
X42209Y21882D01*
X42253Y21948D01*
X42268Y22025D01*
X42253Y22102D01*
X42209Y22168D01*
X42144Y22212D01*
X42066Y22227D01*
X41732D01*
X41655Y22212D01*
X41589Y22168D01*
X41582Y22158D01*
X40526D01*
X39828Y22856D01*
Y23520D01*
X39918Y23610D01*
X45807D01*
X45827Y23595D01*
X45897Y23566D01*
X45972Y23556D01*
X46029Y23563D01*
X46053Y23516D01*
X45899Y23363D01*
X42772D01*
X42721Y23352D01*
X42678Y23324D01*
X42079Y22725D01*
X42066Y22727D01*
X41732D01*
X41655Y22712D01*
X41589Y22668D01*
X41545Y22602D01*
X41530Y22525D01*
X41545Y22448D01*
X41589Y22382D01*
X41655Y22338D01*
X41732Y22323D01*
X42066D01*
X42144Y22338D01*
X42209Y22382D01*
X42253Y22448D01*
X42268Y22525D01*
X42266Y22537D01*
X42826Y23097D01*
X44365D01*
X44384Y23051D01*
X44124Y22792D01*
X44096Y22749D01*
X44091Y22727D01*
X43877D01*
X43800Y22712D01*
X43735Y22668D01*
X43691Y22602D01*
X43675Y22525D01*
X43691Y22448D01*
X43735Y22382D01*
X43800Y22338D01*
X43877Y22323D01*
X44212D01*
X44289Y22338D01*
X44355Y22382D01*
X44399Y22448D01*
X44414Y22525D01*
X44399Y22602D01*
X44363Y22656D01*
X44625Y22917D01*
X48852D01*
X48877Y22867D01*
X48860Y22845D01*
X48831Y22775D01*
X48827Y22749D01*
X48646Y22568D01*
X47132D01*
Y22630D01*
X45948D01*
Y22224D01*
X45882Y22158D01*
X44362D01*
X44355Y22168D01*
X44289Y22212D01*
X44212Y22227D01*
X43877D01*
X43800Y22212D01*
X43735Y22168D01*
X43691Y22102D01*
X43675Y22025D01*
X43691Y21948D01*
X43735Y21882D01*
X43800Y21838D01*
X43877Y21823D01*
X44212D01*
X44289Y21838D01*
X44355Y21882D01*
X44362Y21892D01*
X45937D01*
X45987Y21902D01*
X46030Y21931D01*
X46136Y22036D01*
X47132D01*
Y22098D01*
X48743D01*
X48833Y22116D01*
X48909Y22167D01*
X49159Y22417D01*
X49185Y22421D01*
X49255Y22450D01*
X49314Y22496D01*
X49335Y22522D01*
X49385D01*
X49406Y22496D01*
X49465Y22450D01*
X49535Y22421D01*
X49610Y22411D01*
X49685Y22421D01*
X49755Y22450D01*
X49814Y22496D01*
X49835Y22522D01*
X49885D01*
X49906Y22496D01*
X49965Y22450D01*
X50035Y22421D01*
X50110Y22411D01*
X50185Y22421D01*
X50255Y22450D01*
X50275Y22465D01*
X51943D01*
X53024Y21384D01*
X53024Y21384D01*
X53100Y21333D01*
X53190Y21315D01*
X53190Y21315D01*
X64453D01*
X65827Y19941D01*
X65821Y19900D01*
X65834Y19802D01*
X65872Y19711D01*
X65932Y19632D01*
X66011Y19572D01*
X66102Y19534D01*
X66200Y19521D01*
X66298Y19534D01*
X66389Y19572D01*
X66468Y19632D01*
X66528Y19711D01*
X66566Y19802D01*
X66579Y19900D01*
X66566Y19998D01*
X66528Y20089D01*
X66468Y20168D01*
X66389Y20228D01*
X66298Y20266D01*
X66200Y20279D01*
X66159Y20273D01*
X64716Y21716D01*
X64640Y21767D01*
X64550Y21785D01*
X63694D01*
X63677Y21832D01*
X63705Y21865D01*
X65907D01*
X65932Y21832D01*
X66011Y21772D01*
X66102Y21734D01*
X66200Y21721D01*
X66298Y21734D01*
X66389Y21772D01*
X66468Y21832D01*
X66493Y21865D01*
X67290D01*
Y19173D01*
X67252Y19135D01*
X66493D01*
X66468Y19168D01*
X66389Y19228D01*
X66298Y19266D01*
X66200Y19279D01*
X66102Y19266D01*
X66011Y19228D01*
X65932Y19168D01*
X65872Y19089D01*
X65834Y18998D01*
X65821Y18900D01*
X65834Y18802D01*
X65872Y18711D01*
X65932Y18632D01*
X66011Y18572D01*
X66102Y18534D01*
X66200Y18521D01*
X66298Y18534D01*
X66389Y18572D01*
X66468Y18632D01*
X66493Y18665D01*
X67349D01*
X67439Y18683D01*
X67515Y18734D01*
X67691Y18910D01*
X67742Y18986D01*
X67760Y19076D01*
Y22100D01*
Y24555D01*
X67742Y24645D01*
X67691Y24721D01*
X66946Y25466D01*
X66870Y25517D01*
X66780Y25535D01*
X66493D01*
X66468Y25568D01*
X66389Y25628D01*
X66298Y25666D01*
X66200Y25679D01*
X66102Y25666D01*
X66011Y25628D01*
X65932Y25568D01*
X65907Y25535D01*
X63693D01*
X63668Y25568D01*
X63589Y25628D01*
X63498Y25666D01*
X63400Y25679D01*
X63302Y25666D01*
X63211Y25628D01*
X63132Y25568D01*
X63107Y25535D01*
X60893D01*
X60868Y25568D01*
X60789Y25628D01*
X60698Y25666D01*
X60600Y25679D01*
X60576Y25675D01*
X52236Y34016D01*
X52160Y34067D01*
X52070Y34085D01*
X51287D01*
X50754Y34617D01*
X50754Y34618D01*
X50743Y34704D01*
X50710Y34784D01*
X50657Y34853D01*
X50588Y34906D01*
X50507Y34940D01*
X50421Y34951D01*
D02*
G37*
G36*
X39850Y27372D02*
X39256D01*
Y26188D01*
X39518D01*
X41247Y24459D01*
X41247Y24459D01*
X41323Y24408D01*
X41413Y24390D01*
X42377D01*
X42397Y24375D01*
X42467Y24346D01*
X42542Y24336D01*
X42617Y24346D01*
X42687Y24375D01*
X42746Y24420D01*
X42767Y24447D01*
X42817D01*
X42838Y24420D01*
X42897Y24375D01*
X42967Y24346D01*
X43042Y24336D01*
X43117Y24346D01*
X43187Y24375D01*
X43246Y24420D01*
X43267Y24447D01*
X43317D01*
X43337Y24420D01*
X43397Y24375D01*
X43467Y24346D01*
X43542Y24336D01*
X43617Y24346D01*
X43687Y24375D01*
X43746Y24420D01*
X43792Y24480D01*
X43821Y24550D01*
X43831Y24625D01*
X43821Y24700D01*
X43792Y24770D01*
X43746Y24829D01*
X43687Y24875D01*
X43617Y24904D01*
X43542Y24914D01*
X43467Y24904D01*
X43397Y24875D01*
X43337Y24829D01*
X43317Y24803D01*
X43267D01*
X43246Y24829D01*
X43187Y24875D01*
X43175Y24880D01*
Y25818D01*
X43164Y25869D01*
X43136Y25912D01*
X42349Y26699D01*
X42306Y26727D01*
X42255Y26738D01*
X42186D01*
X42179Y26748D01*
X42114Y26792D01*
X42036Y26807D01*
X41702D01*
X41684Y26803D01*
X41659Y26849D01*
X41713Y26903D01*
X42036D01*
X42114Y26918D01*
X42179Y26962D01*
X42223Y27028D01*
X42238Y27105D01*
X42223Y27182D01*
X42179Y27248D01*
X42114Y27292D01*
X42036Y27307D01*
X41702D01*
X41625Y27292D01*
X41559Y27248D01*
X41515Y27182D01*
X41500Y27105D01*
X41506Y27072D01*
X41347Y26913D01*
X39850D01*
Y27372D01*
D02*
G37*
G36*
X38696Y24250D02*
X38004D01*
X38009Y24209D01*
X38044Y24123D01*
X38100Y24050D01*
X38169Y23998D01*
Y23872D01*
X38152D01*
Y23310D01*
X38469D01*
X38785D01*
Y23872D01*
X38638D01*
Y24100D01*
X38656Y24123D01*
X38691Y24209D01*
X38696Y24250D01*
D02*
G37*
G36*
X66200Y23479D02*
X66102Y23466D01*
X66011Y23428D01*
X65932Y23368D01*
X65872Y23289D01*
X65834Y23198D01*
X65821Y23100D01*
X65834Y23002D01*
X65872Y22911D01*
X65932Y22832D01*
X66011Y22772D01*
X66102Y22734D01*
X66200Y22721D01*
X66298Y22734D01*
X66389Y22772D01*
X66468Y22832D01*
X66528Y22911D01*
X66566Y23002D01*
X66579Y23100D01*
X66566Y23198D01*
X66528Y23289D01*
X66468Y23368D01*
X66389Y23428D01*
X66298Y23466D01*
X66200Y23479D01*
D02*
G37*
G36*
X63400D02*
X63302Y23466D01*
X63211Y23428D01*
X63132Y23368D01*
X63072Y23289D01*
X63034Y23198D01*
X63021Y23100D01*
X63034Y23002D01*
X63072Y22911D01*
X63132Y22832D01*
X63211Y22772D01*
X63302Y22734D01*
X63400Y22721D01*
X63498Y22734D01*
X63589Y22772D01*
X63668Y22832D01*
X63728Y22911D01*
X63766Y23002D01*
X63779Y23100D01*
X63766Y23198D01*
X63728Y23289D01*
X63668Y23368D01*
X63589Y23428D01*
X63498Y23466D01*
X63400Y23479D01*
D02*
G37*
G36*
X60600D02*
X60502Y23466D01*
X60411Y23428D01*
X60332Y23368D01*
X60272Y23289D01*
X60234Y23198D01*
X60221Y23100D01*
X60234Y23002D01*
X60272Y22911D01*
X60332Y22832D01*
X60411Y22772D01*
X60502Y22734D01*
X60600Y22721D01*
X60698Y22734D01*
X60789Y22772D01*
X60868Y22832D01*
X60928Y22911D01*
X60966Y23002D01*
X60979Y23100D01*
X60966Y23198D01*
X60928Y23289D01*
X60868Y23368D01*
X60789Y23428D01*
X60698Y23466D01*
X60600Y23479D01*
D02*
G37*
G36*
X31616Y33700D02*
X31310D01*
Y33453D01*
X31428D01*
X32197Y32684D01*
Y22516D01*
X32033D01*
Y22210D01*
X32330D01*
X32627D01*
Y22516D01*
X32462D01*
Y32739D01*
X32452Y32790D01*
X32424Y32833D01*
X31616Y33641D01*
Y33700D01*
D02*
G37*
G36*
X38785Y23210D02*
X38469D01*
X38152D01*
Y22648D01*
X38169D01*
Y21783D01*
X37723D01*
X37690Y21833D01*
X37712Y21884D01*
X37723Y21970D01*
X37712Y22056D01*
X37678Y22136D01*
X37625Y22205D01*
X37556Y22258D01*
X37476Y22292D01*
X37390Y22303D01*
X37304Y22292D01*
X37224Y22258D01*
X37155Y22205D01*
X37102Y22136D01*
X37068Y22056D01*
X37057Y21970D01*
X37061Y21941D01*
X36890Y21769D01*
X36844Y21789D01*
Y21838D01*
X36683D01*
Y22078D01*
X36716Y22092D01*
X36785Y22145D01*
X36838Y22214D01*
X36872Y22294D01*
X36883Y22380D01*
X36872Y22466D01*
X36838Y22546D01*
X36785Y22615D01*
X36716Y22668D01*
X36636Y22702D01*
X36550Y22713D01*
X36464Y22702D01*
X36384Y22668D01*
X36315Y22615D01*
X36262Y22546D01*
X36228Y22466D01*
X36217Y22380D01*
X36228Y22294D01*
X36262Y22214D01*
X36315Y22145D01*
X36384Y22092D01*
X36417Y22078D01*
Y21838D01*
X36133D01*
Y21464D01*
X36113D01*
Y21421D01*
X36108Y21420D01*
X36065Y21391D01*
X35851Y21177D01*
X35823Y21134D01*
X35812Y21083D01*
Y20536D01*
X35648D01*
Y20230D01*
X35945D01*
Y20180D01*
D01*
Y20230D01*
X36242D01*
Y20536D01*
X36078D01*
Y20987D01*
X36083Y20990D01*
X36133Y20964D01*
Y20772D01*
X36656D01*
X36798Y20630D01*
X36784Y20596D01*
X36773Y20510D01*
X36784Y20424D01*
X36818Y20344D01*
X36871Y20275D01*
X36939Y20222D01*
X37020Y20188D01*
X37106Y20177D01*
X37192Y20188D01*
X37272Y20222D01*
X37341Y20275D01*
X37394Y20344D01*
X37427Y20424D01*
X37439Y20510D01*
X37427Y20596D01*
X37394Y20676D01*
X37341Y20745D01*
X37272Y20798D01*
X37192Y20832D01*
X37106Y20843D01*
X37020Y20832D01*
X36986Y20817D01*
X36870Y20933D01*
X36891Y20983D01*
X37412D01*
X37465Y20915D01*
X37534Y20862D01*
X37614Y20828D01*
X37700Y20817D01*
X37786Y20828D01*
X37866Y20862D01*
X37935Y20915D01*
X37988Y20984D01*
X38022Y21064D01*
X38033Y21150D01*
X38022Y21236D01*
X37988Y21316D01*
X37935Y21385D01*
X37866Y21438D01*
X37796Y21467D01*
X37806Y21517D01*
X38169D01*
Y20272D01*
X37982D01*
Y19710D01*
X38299D01*
Y19610D01*
X37982D01*
Y19048D01*
X38154D01*
Y18841D01*
X38100Y18800D01*
X38044Y18727D01*
X38009Y18641D01*
X38004Y18600D01*
X38696D01*
X38691Y18641D01*
X38656Y18727D01*
X38623Y18769D01*
Y20040D01*
X38638Y20115D01*
Y21650D01*
Y22648D01*
X38785D01*
Y23210D01*
D02*
G37*
G36*
X45150Y21833D02*
X45064Y21822D01*
X44984Y21788D01*
X44915Y21735D01*
X44862Y21666D01*
X44848Y21633D01*
X44378D01*
X44355Y21668D01*
X44289Y21712D01*
X44212Y21727D01*
X43877D01*
X43800Y21712D01*
X43735Y21668D01*
X43691Y21602D01*
X43675Y21525D01*
X43691Y21448D01*
X43735Y21382D01*
X43800Y21338D01*
X43877Y21323D01*
X44212D01*
X44289Y21338D01*
X44333Y21367D01*
X44848D01*
X44862Y21334D01*
X44890Y21297D01*
X44869Y21242D01*
X44841Y21237D01*
X44838Y21235D01*
X44277D01*
X44247Y21240D01*
X44245Y21242D01*
X44155Y21259D01*
X44045D01*
X43984Y21247D01*
X43877D01*
X43792Y21230D01*
X43720Y21182D01*
X43672Y21110D01*
X43665Y21075D01*
X44045D01*
Y20975D01*
X43665D01*
X43672Y20940D01*
X43720Y20868D01*
X43792Y20820D01*
X43877Y20803D01*
X43984D01*
X44045Y20790D01*
X44077D01*
X44084Y20788D01*
X44090Y20783D01*
X44098Y20782D01*
X44110Y20777D01*
X44100Y20727D01*
X43877D01*
X43800Y20712D01*
X43735Y20668D01*
X43691Y20602D01*
X43675Y20525D01*
X43691Y20448D01*
X43735Y20382D01*
X43800Y20338D01*
X43877Y20323D01*
X44212D01*
X44289Y20338D01*
X44355Y20382D01*
X44360Y20390D01*
X44835D01*
X44842Y20374D01*
X44895Y20305D01*
X44964Y20252D01*
X45044Y20218D01*
X45130Y20207D01*
X45216Y20218D01*
X45296Y20252D01*
X45365Y20305D01*
X45418Y20374D01*
X45452Y20454D01*
X45463Y20540D01*
X45452Y20626D01*
X45433Y20672D01*
X45474Y20703D01*
X45485Y20694D01*
X45570Y20659D01*
X45612Y20654D01*
Y21000D01*
Y21346D01*
X45570Y21341D01*
X45485Y21306D01*
X45472Y21296D01*
X45437Y21331D01*
X45438Y21334D01*
X45472Y21414D01*
X45483Y21500D01*
X45472Y21586D01*
X45438Y21666D01*
X45385Y21735D01*
X45316Y21788D01*
X45236Y21822D01*
X45150Y21833D01*
D02*
G37*
G36*
X47152Y21587D02*
X46590D01*
Y21320D01*
X47152D01*
Y21587D01*
D02*
G37*
G36*
X46490D02*
X45928D01*
Y21300D01*
X45884Y21270D01*
X45838Y21306D01*
X45753Y21341D01*
X45712Y21346D01*
Y21000D01*
Y20654D01*
X45753Y20659D01*
X45838Y20694D01*
X45911Y20750D01*
X45923Y20765D01*
X45975D01*
X46064Y20783D01*
X46141Y20834D01*
X46255Y20949D01*
X46305Y20943D01*
Y20107D01*
X45968D01*
Y19840D01*
X46580D01*
X47192D01*
Y20107D01*
X46775D01*
Y20953D01*
X47152D01*
Y21220D01*
X46540D01*
Y21270D01*
X46490D01*
Y21587D01*
D02*
G37*
G36*
X34706Y20861D02*
X34380D01*
Y20752D01*
X34706D01*
Y20861D01*
D02*
G37*
G36*
X31977Y22496D02*
X31423D01*
Y21824D01*
X31567D01*
Y20660D01*
X31532Y20656D01*
X31441Y20618D01*
X31362Y20558D01*
X31302Y20479D01*
X31295Y20463D01*
X30867D01*
Y20686D01*
X30840D01*
X30829Y20717D01*
X30826Y20736D01*
X30878Y20804D01*
X30912Y20884D01*
X30923Y20970D01*
X30912Y21056D01*
X30878Y21136D01*
X30825Y21205D01*
X30756Y21258D01*
X30676Y21292D01*
X30590Y21303D01*
X30504Y21292D01*
X30424Y21258D01*
X30355Y21205D01*
X30302Y21136D01*
X30268Y21056D01*
X30257Y20970D01*
X30268Y20884D01*
X30302Y20804D01*
X30354Y20736D01*
X30351Y20717D01*
X30340Y20686D01*
X30313D01*
Y20014D01*
X30867D01*
Y20197D01*
X31264D01*
X31264Y20192D01*
X31302Y20101D01*
X31362Y20022D01*
X31441Y19962D01*
X31532Y19924D01*
X31630Y19911D01*
X31728Y19924D01*
X31819Y19962D01*
X31898Y20022D01*
X31958Y20101D01*
X31996Y20192D01*
X32009Y20290D01*
X31996Y20388D01*
X31958Y20479D01*
X31898Y20558D01*
X31833Y20608D01*
Y21824D01*
X31977D01*
Y22496D01*
D02*
G37*
G36*
X32627Y22110D02*
X32330D01*
X32033D01*
Y21804D01*
X32197D01*
Y20620D01*
X32207Y20569D01*
X32236Y20526D01*
X32281Y20481D01*
X32245Y20393D01*
X32238Y20340D01*
X32580D01*
Y20682D01*
X32527Y20675D01*
X32510Y20668D01*
X32462Y20703D01*
Y21804D01*
X32627D01*
Y22110D01*
D02*
G37*
G36*
X32580Y20240D02*
X32238D01*
X32245Y20187D01*
X32273Y20120D01*
X31165Y19013D01*
X30674D01*
X30656Y19057D01*
X30600Y19130D01*
X30527Y19186D01*
X30441Y19221D01*
X30400Y19226D01*
Y18880D01*
Y18534D01*
X30441Y18539D01*
X30527Y18574D01*
X30600Y18630D01*
X30656Y18703D01*
X30674Y18747D01*
X31220D01*
X31271Y18758D01*
X31314Y18786D01*
X32460Y19933D01*
X32527Y19905D01*
X32580Y19898D01*
Y20240D01*
D02*
G37*
G36*
X36242Y20130D02*
X35995D01*
Y19824D01*
X36242D01*
Y20130D01*
D02*
G37*
G36*
X35895D02*
X35648D01*
Y19824D01*
X35895D01*
Y20130D01*
D02*
G37*
G36*
X63400Y20279D02*
X63302Y20266D01*
X63211Y20228D01*
X63132Y20168D01*
X63072Y20089D01*
X63034Y19998D01*
X63021Y19900D01*
X63034Y19802D01*
X63072Y19711D01*
X63132Y19632D01*
X63211Y19572D01*
X63302Y19534D01*
X63400Y19521D01*
X63498Y19534D01*
X63589Y19572D01*
X63668Y19632D01*
X63728Y19711D01*
X63766Y19802D01*
X63779Y19900D01*
X63766Y19998D01*
X63728Y20089D01*
X63668Y20168D01*
X63589Y20228D01*
X63498Y20266D01*
X63400Y20279D01*
D02*
G37*
G36*
X60600D02*
X60502Y20266D01*
X60411Y20228D01*
X60332Y20168D01*
X60292Y20115D01*
X60030D01*
X59941Y20097D01*
X59865Y20046D01*
X59865Y20046D01*
X57653Y17835D01*
X56976D01*
X56886Y17817D01*
X56810Y17766D01*
X56634Y17590D01*
X56583Y17514D01*
X56565Y17424D01*
Y16597D01*
X51823Y11855D01*
X50205D01*
X50185Y11870D01*
X50115Y11899D01*
X50040Y11909D01*
X49965Y11899D01*
X49895Y11870D01*
X49836Y11824D01*
X49815Y11798D01*
X49765D01*
X49744Y11824D01*
X49685Y11870D01*
X49615Y11899D01*
X49540Y11909D01*
X49465Y11899D01*
X49395Y11870D01*
X49336Y11824D01*
X49315Y11798D01*
X49265D01*
X49244Y11824D01*
X49185Y11870D01*
X49115Y11899D01*
X49040Y11909D01*
X48965Y11899D01*
X48895Y11870D01*
X48836Y11824D01*
X48790Y11765D01*
X48761Y11695D01*
X48757Y11669D01*
X48640Y11552D01*
X47212D01*
Y11614D01*
X46028D01*
Y11450D01*
X45468D01*
X44145Y12773D01*
X44147Y12785D01*
X44132Y12862D01*
X44088Y12928D01*
X44022Y12972D01*
X43945Y12987D01*
X43610D01*
X43533Y12972D01*
X43467Y12928D01*
X43424Y12862D01*
X43408Y12785D01*
X43424Y12708D01*
X43467Y12642D01*
X43533Y12598D01*
X43610Y12583D01*
X43945D01*
X43957Y12585D01*
X44019Y12523D01*
X43995Y12477D01*
X43945Y12487D01*
X43610D01*
X43533Y12472D01*
X43467Y12428D01*
X43424Y12362D01*
X43408Y12285D01*
X43424Y12208D01*
X43467Y12142D01*
X43533Y12098D01*
X43610Y12083D01*
X43945D01*
X43957Y12085D01*
X45316Y10726D01*
X45359Y10698D01*
X45410Y10687D01*
X48837D01*
X48888Y10698D01*
X48931Y10726D01*
X49470Y11266D01*
X49495Y11303D01*
X49525Y11333D01*
X49540Y11331D01*
X49615Y11341D01*
X49685Y11370D01*
X49744Y11416D01*
X49765Y11442D01*
X49815D01*
X49836Y11416D01*
X49895Y11370D01*
X49965Y11341D01*
X50040Y11331D01*
X50115Y11341D01*
X50185Y11370D01*
X50205Y11385D01*
X51920D01*
X52010Y11403D01*
X52086Y11454D01*
X56966Y16334D01*
X57017Y16410D01*
X57035Y16500D01*
Y17327D01*
X57073Y17365D01*
X57750D01*
X57840Y17383D01*
X57916Y17434D01*
X60128Y19646D01*
X60322D01*
X60332Y19632D01*
X60411Y19572D01*
X60502Y19534D01*
X60600Y19521D01*
X60698Y19534D01*
X60789Y19572D01*
X60868Y19632D01*
X60928Y19711D01*
X60966Y19802D01*
X60979Y19900D01*
X60966Y19998D01*
X60928Y20089D01*
X60868Y20168D01*
X60789Y20228D01*
X60698Y20266D01*
X60600Y20279D01*
D02*
G37*
G36*
X57800D02*
X57702Y20266D01*
X57611Y20228D01*
X57532Y20168D01*
X57507Y20135D01*
X56743D01*
X56653Y20117D01*
X56577Y20066D01*
X55427Y18916D01*
X55374Y18934D01*
X55366Y18998D01*
X55328Y19089D01*
X55268Y19168D01*
X55189Y19228D01*
X55098Y19266D01*
X55000Y19279D01*
X54902Y19266D01*
X54811Y19228D01*
X54732Y19168D01*
X54672Y19089D01*
X54634Y18998D01*
X54621Y18900D01*
X54634Y18802D01*
X54672Y18711D01*
X54732Y18632D01*
X54811Y18572D01*
X54902Y18534D01*
X54966Y18526D01*
X54984Y18473D01*
X51606Y15095D01*
X50435D01*
X50415Y15110D01*
X50345Y15139D01*
X50270Y15149D01*
X50195Y15139D01*
X50125Y15110D01*
X50066Y15064D01*
X50045Y15038D01*
X49995D01*
X49974Y15064D01*
X49915Y15110D01*
X49845Y15139D01*
X49770Y15149D01*
X49755Y15147D01*
X49725Y15177D01*
X49700Y15214D01*
X49221Y15694D01*
X49178Y15722D01*
X49127Y15733D01*
X44260D01*
X44209Y15722D01*
X44166Y15694D01*
X43957Y15485D01*
X43945Y15487D01*
X43610D01*
X43533Y15472D01*
X43467Y15428D01*
X43424Y15362D01*
X43408Y15285D01*
X43424Y15208D01*
X43467Y15142D01*
X43533Y15098D01*
X43610Y15083D01*
X43945D01*
X44022Y15098D01*
X44088Y15142D01*
X44132Y15208D01*
X44147Y15285D01*
X44145Y15297D01*
X44315Y15467D01*
X49072D01*
X49311Y15229D01*
X49294Y15175D01*
X49288Y15174D01*
X49214Y15247D01*
X49138Y15298D01*
X49049Y15316D01*
X47162D01*
Y15378D01*
X45978D01*
Y14972D01*
X45923Y14918D01*
X44095D01*
X44088Y14928D01*
X44022Y14972D01*
X43945Y14987D01*
X43610D01*
X43533Y14972D01*
X43467Y14928D01*
X43424Y14862D01*
X43408Y14785D01*
X43424Y14708D01*
X43467Y14642D01*
X43533Y14598D01*
X43610Y14583D01*
X43945D01*
X44022Y14598D01*
X44088Y14642D01*
X44095Y14652D01*
X44624D01*
X44634Y14602D01*
X44624Y14598D01*
X44555Y14545D01*
X44502Y14476D01*
X44483Y14430D01*
X44084D01*
X44022Y14472D01*
X43945Y14487D01*
X43610D01*
X43533Y14472D01*
X43467Y14428D01*
X43424Y14362D01*
X43408Y14285D01*
X43424Y14208D01*
X43467Y14142D01*
X43533Y14098D01*
X43610Y14083D01*
X43945D01*
X44022Y14098D01*
X44088Y14142D01*
X44103Y14165D01*
X44493D01*
X44502Y14144D01*
X44555Y14075D01*
X44561Y14069D01*
X44544Y14019D01*
X43778D01*
X43717Y14007D01*
X43610D01*
X43525Y13990D01*
X43453Y13942D01*
X43405Y13870D01*
X43398Y13835D01*
X43778D01*
Y13735D01*
X43398D01*
X43405Y13700D01*
X43453Y13628D01*
X43525Y13580D01*
X43610Y13563D01*
X43717D01*
X43778Y13550D01*
X44600D01*
X44617Y13500D01*
X44585Y13475D01*
X44532Y13406D01*
X44527Y13395D01*
X44110D01*
X44088Y13428D01*
X44022Y13472D01*
X43945Y13487D01*
X43610D01*
X43533Y13472D01*
X43467Y13428D01*
X43424Y13362D01*
X43408Y13285D01*
X43424Y13208D01*
X43467Y13142D01*
X43533Y13098D01*
X43610Y13083D01*
X43945D01*
X44022Y13098D01*
X44070Y13130D01*
X44508D01*
X44532Y13074D01*
X44585Y13005D01*
X44654Y12952D01*
X44734Y12918D01*
X44820Y12907D01*
X44906Y12918D01*
X44986Y12952D01*
X45055Y13005D01*
X45108Y13074D01*
X45142Y13154D01*
X45153Y13240D01*
X45142Y13326D01*
X45108Y13406D01*
X45055Y13475D01*
X45023Y13500D01*
X45040Y13550D01*
X45309D01*
X45320Y13535D01*
X45393Y13479D01*
X45479Y13444D01*
X45520Y13439D01*
Y13785D01*
Y14131D01*
X45479Y14126D01*
X45393Y14091D01*
X45320Y14035D01*
X45309Y14019D01*
X45036D01*
X45019Y14069D01*
X45025Y14075D01*
X45078Y14144D01*
X45112Y14224D01*
X45123Y14310D01*
X45112Y14396D01*
X45078Y14476D01*
X45025Y14545D01*
X44956Y14598D01*
X44946Y14602D01*
X44956Y14652D01*
X45978D01*
X46029Y14662D01*
X46072Y14691D01*
X46166Y14785D01*
X47162D01*
Y14847D01*
X48951D01*
X48987Y14811D01*
X48991Y14785D01*
X49020Y14715D01*
X49066Y14656D01*
X49125Y14610D01*
X49195Y14581D01*
X49270Y14571D01*
X49345Y14581D01*
X49415Y14610D01*
X49474Y14656D01*
X49495Y14682D01*
X49545D01*
X49566Y14656D01*
X49625Y14610D01*
X49695Y14581D01*
X49770Y14571D01*
X49845Y14581D01*
X49915Y14610D01*
X49974Y14656D01*
X49995Y14682D01*
X50045D01*
X50066Y14656D01*
X50125Y14610D01*
X50195Y14581D01*
X50270Y14571D01*
X50345Y14581D01*
X50415Y14610D01*
X50435Y14625D01*
X51703D01*
X51793Y14643D01*
X51869Y14694D01*
X56840Y19665D01*
X57507D01*
X57532Y19632D01*
X57611Y19572D01*
X57702Y19534D01*
X57800Y19521D01*
X57898Y19534D01*
X57989Y19572D01*
X58068Y19632D01*
X58128Y19711D01*
X58166Y19802D01*
X58179Y19900D01*
X58166Y19998D01*
X58128Y20089D01*
X58068Y20168D01*
X57989Y20228D01*
X57898Y20266D01*
X57800Y20279D01*
D02*
G37*
G36*
X55000D02*
X54902Y20266D01*
X54811Y20228D01*
X54732Y20168D01*
X54707Y20135D01*
X54127D01*
X54037Y20117D01*
X53961Y20066D01*
X50720Y16825D01*
X43455D01*
X43435Y16840D01*
X43365Y16869D01*
X43290Y16879D01*
X43215Y16869D01*
X43145Y16840D01*
X43086Y16794D01*
X43065Y16768D01*
X43015D01*
X42994Y16794D01*
X42935Y16840D01*
X42865Y16869D01*
X42790Y16879D01*
X42715Y16869D01*
X42645Y16840D01*
X42586Y16794D01*
X42565Y16768D01*
X42515D01*
X42494Y16794D01*
X42435Y16840D01*
X42365Y16869D01*
X42290Y16879D01*
X42215Y16869D01*
X42145Y16840D01*
X42125Y16825D01*
X39706D01*
Y17367D01*
X39113D01*
Y16184D01*
X39519D01*
X41011Y14691D01*
X41054Y14662D01*
X41105Y14652D01*
X41315D01*
X41322Y14642D01*
X41387Y14598D01*
X41465Y14583D01*
X41799D01*
X41877Y14598D01*
X41942Y14642D01*
X41986Y14708D01*
X42001Y14785D01*
X41986Y14862D01*
X41942Y14928D01*
X41877Y14972D01*
X41799Y14987D01*
X41465D01*
X41387Y14972D01*
X41322Y14928D01*
X41315Y14918D01*
X41160D01*
X39768Y16309D01*
X39787Y16355D01*
X42125D01*
X42145Y16340D01*
X42215Y16311D01*
X42290Y16301D01*
X42365Y16311D01*
X42435Y16340D01*
X42494Y16386D01*
X42515Y16412D01*
X42565D01*
X42586Y16386D01*
X42615Y16363D01*
Y16288D01*
X41811Y15485D01*
X41799Y15487D01*
X41465D01*
X41387Y15472D01*
X41322Y15428D01*
X41278Y15362D01*
X41263Y15285D01*
X41278Y15208D01*
X41322Y15142D01*
X41387Y15098D01*
X41465Y15083D01*
X41799D01*
X41877Y15098D01*
X41942Y15142D01*
X41986Y15208D01*
X42001Y15285D01*
X41999Y15297D01*
X42841Y16140D01*
X42870Y16183D01*
X42880Y16233D01*
Y16317D01*
X42935Y16340D01*
X42994Y16386D01*
X43015Y16412D01*
X43065D01*
X43086Y16386D01*
X43145Y16340D01*
X43215Y16311D01*
X43290Y16301D01*
X43365Y16311D01*
X43435Y16340D01*
X43455Y16355D01*
X50817D01*
X50906Y16373D01*
X50983Y16424D01*
X54224Y19665D01*
X54707D01*
X54732Y19632D01*
X54811Y19572D01*
X54902Y19534D01*
X55000Y19521D01*
X55098Y19534D01*
X55189Y19572D01*
X55268Y19632D01*
X55328Y19711D01*
X55366Y19802D01*
X55379Y19900D01*
X55366Y19998D01*
X55328Y20089D01*
X55268Y20168D01*
X55189Y20228D01*
X55098Y20266D01*
X55000Y20279D01*
D02*
G37*
G36*
X47192Y19740D02*
X46630D01*
Y19473D01*
X47192D01*
Y19740D01*
D02*
G37*
G36*
X46530D02*
X45968D01*
Y19473D01*
X46530D01*
Y19740D01*
D02*
G37*
G36*
X21417Y19226D02*
X20863D01*
Y18933D01*
X20650D01*
X20599Y18922D01*
X20556Y18894D01*
X18815Y17153D01*
X18786Y17110D01*
X18776Y17059D01*
Y16776D01*
X18710Y16748D01*
X18627Y16685D01*
X18564Y16603D01*
X18524Y16507D01*
X18510Y16403D01*
X18524Y16300D01*
X18564Y16204D01*
X18627Y16122D01*
X18710Y16058D01*
X18806Y16019D01*
X18909Y16005D01*
X19012Y16019D01*
X19108Y16058D01*
X19191Y16122D01*
X19254Y16204D01*
X19294Y16300D01*
X19307Y16403D01*
X19294Y16507D01*
X19254Y16603D01*
X19191Y16685D01*
X19108Y16748D01*
X19041Y16776D01*
Y17004D01*
X20705Y18667D01*
X20863D01*
Y18554D01*
X21417D01*
Y19226D01*
D02*
G37*
G36*
X63400Y19279D02*
X63302Y19266D01*
X63211Y19228D01*
X63132Y19168D01*
X63072Y19089D01*
X63034Y18998D01*
X63021Y18900D01*
X63034Y18802D01*
X63072Y18711D01*
X63132Y18632D01*
X63211Y18572D01*
X63302Y18534D01*
X63400Y18521D01*
X63498Y18534D01*
X63589Y18572D01*
X63668Y18632D01*
X63728Y18711D01*
X63766Y18802D01*
X63779Y18900D01*
X63766Y18998D01*
X63728Y19089D01*
X63668Y19168D01*
X63589Y19228D01*
X63498Y19266D01*
X63400Y19279D01*
D02*
G37*
G36*
X60600D02*
X60502Y19266D01*
X60411Y19228D01*
X60332Y19168D01*
X60272Y19089D01*
X60234Y18998D01*
X60221Y18900D01*
X60234Y18802D01*
X60272Y18711D01*
X60332Y18632D01*
X60411Y18572D01*
X60502Y18534D01*
X60600Y18521D01*
X60698Y18534D01*
X60789Y18572D01*
X60868Y18632D01*
X60928Y18711D01*
X60966Y18802D01*
X60979Y18900D01*
X60966Y18998D01*
X60928Y19089D01*
X60868Y19168D01*
X60789Y19228D01*
X60698Y19266D01*
X60600Y19279D01*
D02*
G37*
G36*
X57800D02*
X57702Y19266D01*
X57611Y19228D01*
X57532Y19168D01*
X57472Y19089D01*
X57434Y18998D01*
X57421Y18900D01*
X57434Y18802D01*
X57472Y18711D01*
X57532Y18632D01*
X57611Y18572D01*
X57702Y18534D01*
X57800Y18521D01*
X57898Y18534D01*
X57989Y18572D01*
X58068Y18632D01*
X58128Y18711D01*
X58166Y18802D01*
X58179Y18900D01*
X58166Y18998D01*
X58128Y19089D01*
X58068Y19168D01*
X57989Y19228D01*
X57898Y19266D01*
X57800Y19279D01*
D02*
G37*
G36*
X22047Y19226D02*
X21493D01*
Y18554D01*
X22047D01*
Y18699D01*
X23118D01*
X23132Y18665D01*
X23185Y18596D01*
X23254Y18543D01*
X23334Y18510D01*
X23420Y18498D01*
X23506Y18510D01*
X23586Y18543D01*
X23655Y18596D01*
X23708Y18665D01*
X23742Y18745D01*
X23753Y18831D01*
X23742Y18917D01*
X23708Y18998D01*
X23655Y19067D01*
X23586Y19120D01*
X23506Y19153D01*
X23420Y19164D01*
X23334Y19153D01*
X23254Y19120D01*
X23185Y19067D01*
X23132Y18998D01*
X23118Y18964D01*
X22047D01*
Y19226D01*
D02*
G37*
G36*
X19959Y16815D02*
Y16453D01*
X20321D01*
X20313Y16512D01*
X20271Y16613D01*
X20205Y16699D01*
X20118Y16766D01*
X20017Y16808D01*
X19959Y16815D01*
D02*
G37*
G36*
X19859Y16815D02*
X19800Y16808D01*
X19700Y16766D01*
X19613Y16699D01*
X19546Y16613D01*
X19505Y16512D01*
X19497Y16453D01*
X19859D01*
Y16815D01*
D02*
G37*
G36*
X66200Y17079D02*
X66102Y17066D01*
X66011Y17028D01*
X65932Y16968D01*
X65872Y16889D01*
X65834Y16798D01*
X65833Y16789D01*
X65767D01*
X65678Y16771D01*
X65602Y16721D01*
X55335Y6455D01*
X52200D01*
X52110Y6437D01*
X52034Y6386D01*
X51074Y5426D01*
X51023Y5350D01*
X51005Y5260D01*
Y2518D01*
X49782Y1295D01*
X47355D01*
X47335Y1310D01*
X47265Y1339D01*
X47190Y1349D01*
X47115Y1339D01*
X47045Y1310D01*
X46986Y1264D01*
X46965Y1238D01*
X46915D01*
X46894Y1264D01*
X46835Y1310D01*
X46765Y1339D01*
X46690Y1349D01*
X46675Y1347D01*
X46645Y1377D01*
X46620Y1414D01*
X46211Y1824D01*
X46168Y1852D01*
X46117Y1863D01*
X44699D01*
X41977Y4584D01*
X42013Y4638D01*
X42028Y4715D01*
X42013Y4792D01*
X41969Y4858D01*
X41904Y4902D01*
X41826Y4917D01*
X41492D01*
X41415Y4902D01*
X41349Y4858D01*
X41305Y4792D01*
X41290Y4715D01*
X41305Y4638D01*
X41349Y4572D01*
X41415Y4528D01*
X41492Y4513D01*
X41706D01*
X41710Y4491D01*
X41739Y4448D01*
X44550Y1636D01*
X44593Y1608D01*
X44644Y1597D01*
X46062D01*
X46271Y1389D01*
X46247Y1342D01*
X46190Y1349D01*
X46115Y1339D01*
X46045Y1310D01*
X46025Y1295D01*
X43522D01*
X39780Y5036D01*
X39799Y5082D01*
X41342D01*
X41349Y5072D01*
X41415Y5028D01*
X41492Y5013D01*
X41826D01*
X41904Y5028D01*
X41969Y5072D01*
X42013Y5138D01*
X42028Y5215D01*
X42013Y5292D01*
X41969Y5358D01*
X41904Y5402D01*
X41826Y5417D01*
X41492D01*
X41415Y5402D01*
X41349Y5358D01*
X41342Y5348D01*
X41135D01*
X41111Y5398D01*
X41134Y5429D01*
X41168Y5509D01*
X41174Y5556D01*
X41373D01*
X41415Y5528D01*
X41492Y5513D01*
X41826D01*
X41904Y5528D01*
X41969Y5572D01*
X42013Y5638D01*
X42028Y5715D01*
X42013Y5792D01*
X41969Y5858D01*
X41904Y5902D01*
X41826Y5917D01*
X41492D01*
X41415Y5902D01*
X41349Y5858D01*
X41325Y5821D01*
X41088D01*
X41082Y5830D01*
X41042Y5860D01*
X41050Y5918D01*
X41071Y5927D01*
X41140Y5980D01*
X41141Y5980D01*
X41659D01*
X41749Y5998D01*
X41771Y6013D01*
X41826D01*
X41904Y6028D01*
X41969Y6072D01*
X42013Y6138D01*
X42028Y6215D01*
X42013Y6292D01*
X41969Y6358D01*
X41904Y6402D01*
X41826Y6417D01*
X41771D01*
X41749Y6432D01*
X41659Y6449D01*
X41170D01*
X41143Y6477D01*
X41148Y6535D01*
X41178Y6558D01*
X41213Y6605D01*
X41327D01*
X41349Y6572D01*
X41415Y6528D01*
X41492Y6513D01*
X41826D01*
X41904Y6528D01*
X41969Y6572D01*
X42013Y6638D01*
X42028Y6715D01*
X42013Y6792D01*
X41969Y6858D01*
X41904Y6902D01*
X41826Y6917D01*
X41492D01*
X41415Y6902D01*
X41367Y6870D01*
X41265D01*
X41264Y6880D01*
X41230Y6960D01*
X41178Y7029D01*
X41109Y7082D01*
X41028Y7115D01*
X40942Y7127D01*
X40856Y7115D01*
X40776Y7082D01*
X40707Y7029D01*
X40654Y6960D01*
X40621Y6880D01*
X40609Y6794D01*
X40621Y6708D01*
X40654Y6627D01*
X40707Y6558D01*
X40722Y6547D01*
X40718Y6487D01*
X40670Y6450D01*
X40617Y6381D01*
X40583Y6301D01*
X40572Y6215D01*
X40583Y6129D01*
X40617Y6049D01*
X40670Y5980D01*
X40709Y5949D01*
X40701Y5892D01*
X40680Y5883D01*
X40611Y5830D01*
X40558Y5761D01*
X40525Y5681D01*
X40513Y5595D01*
X40525Y5509D01*
X40558Y5429D01*
X40582Y5398D01*
X40557Y5348D01*
X39617D01*
Y6052D01*
X39023D01*
Y4868D01*
X39285D01*
X43259Y894D01*
X43335Y843D01*
X43425Y825D01*
X46025D01*
X46045Y810D01*
X46115Y781D01*
X46190Y771D01*
X46265Y781D01*
X46335Y810D01*
X46394Y856D01*
X46415Y882D01*
X46465D01*
X46486Y856D01*
X46545Y810D01*
X46615Y781D01*
X46690Y771D01*
X46765Y781D01*
X46835Y810D01*
X46894Y856D01*
X46915Y882D01*
X46965D01*
X46986Y856D01*
X47045Y810D01*
X47115Y781D01*
X47190Y771D01*
X47265Y781D01*
X47335Y810D01*
X47355Y825D01*
X49879D01*
X49969Y843D01*
X50045Y894D01*
X51406Y2255D01*
X51457Y2331D01*
X51475Y2421D01*
Y5163D01*
X52297Y5985D01*
X55433D01*
X55522Y6003D01*
X55598Y6054D01*
X65864Y16320D01*
X66055D01*
X66116Y16332D01*
X66200Y16321D01*
X66298Y16334D01*
X66389Y16372D01*
X66468Y16432D01*
X66528Y16511D01*
X66566Y16602D01*
X66579Y16700D01*
X66566Y16798D01*
X66528Y16889D01*
X66468Y16968D01*
X66389Y17028D01*
X66298Y17066D01*
X66200Y17079D01*
D02*
G37*
G36*
X63400D02*
X63302Y17066D01*
X63211Y17028D01*
X63132Y16968D01*
X63072Y16889D01*
X63034Y16798D01*
X63022Y16704D01*
X61133Y14815D01*
X59700D01*
X59700Y14815D01*
X59610Y14797D01*
X59534Y14746D01*
X59534Y14746D01*
X49764Y4976D01*
X49713Y4900D01*
X49695Y4810D01*
Y4067D01*
X49645Y4050D01*
X49634Y4064D01*
X49575Y4110D01*
X49505Y4139D01*
X49430Y4149D01*
X49355Y4139D01*
X49285Y4110D01*
X49226Y4064D01*
X49205Y4038D01*
X49155D01*
X49134Y4064D01*
X49075Y4110D01*
X49005Y4139D01*
X48930Y4149D01*
X48855Y4139D01*
X48785Y4110D01*
X48765Y4095D01*
X47062D01*
Y4157D01*
X45878D01*
Y3993D01*
X45382D01*
X44172Y5203D01*
X44174Y5215D01*
X44159Y5292D01*
X44115Y5358D01*
X44049Y5402D01*
X43972Y5417D01*
X43637D01*
X43560Y5402D01*
X43495Y5358D01*
X43451Y5292D01*
X43435Y5215D01*
X43451Y5138D01*
X43495Y5072D01*
X43560Y5028D01*
X43637Y5013D01*
X43972D01*
X43984Y5015D01*
X44047Y4953D01*
X44022Y4907D01*
X43972Y4917D01*
X43637D01*
X43560Y4902D01*
X43495Y4858D01*
X43451Y4792D01*
X43435Y4715D01*
X43451Y4638D01*
X43495Y4572D01*
X43560Y4528D01*
X43637Y4513D01*
X43972D01*
X43984Y4515D01*
X45243Y3256D01*
X45286Y3228D01*
X45337Y3217D01*
X49005D01*
X49056Y3228D01*
X49099Y3256D01*
X49247Y3405D01*
X49284Y3430D01*
X49360Y3506D01*
X49385Y3543D01*
X49415Y3573D01*
X49430Y3571D01*
X49505Y3581D01*
X49575Y3610D01*
X49634Y3656D01*
X49655Y3682D01*
X49705D01*
X49726Y3656D01*
X49785Y3610D01*
X49855Y3581D01*
X49930Y3571D01*
X50005Y3581D01*
X50075Y3610D01*
X50134Y3656D01*
X50180Y3715D01*
X50209Y3785D01*
X50219Y3860D01*
X50209Y3935D01*
X50180Y4005D01*
X50165Y4025D01*
Y4713D01*
X59797Y14345D01*
X61230D01*
X61320Y14363D01*
X61396Y14414D01*
X63314Y16332D01*
X63316Y16332D01*
X63400Y16321D01*
X63498Y16334D01*
X63589Y16372D01*
X63668Y16432D01*
X63728Y16511D01*
X63766Y16602D01*
X63779Y16700D01*
X63766Y16798D01*
X63728Y16889D01*
X63668Y16968D01*
X63589Y17028D01*
X63498Y17066D01*
X63400Y17079D01*
D02*
G37*
G36*
X60600D02*
X60502Y17066D01*
X60411Y17028D01*
X60332Y16968D01*
X60307Y16935D01*
X59700D01*
X59610Y16917D01*
X59534Y16866D01*
X58184Y15516D01*
X58142Y15544D01*
X58166Y15602D01*
X58179Y15700D01*
X58166Y15798D01*
X58128Y15889D01*
X58068Y15968D01*
X57989Y16028D01*
X57898Y16066D01*
X57800Y16079D01*
X57702Y16066D01*
X57611Y16028D01*
X57532Y15968D01*
X57472Y15889D01*
X57434Y15798D01*
X57421Y15700D01*
X57434Y15602D01*
X57472Y15511D01*
X57532Y15432D01*
X57611Y15372D01*
X57702Y15334D01*
X57800Y15321D01*
X57898Y15334D01*
X57956Y15358D01*
X57984Y15316D01*
X50433Y7765D01*
X50015D01*
X49955Y7789D01*
X49880Y7799D01*
X49805Y7789D01*
X49735Y7760D01*
X49676Y7714D01*
X49655Y7688D01*
X49605D01*
X49584Y7714D01*
X49525Y7760D01*
X49455Y7789D01*
X49380Y7799D01*
X49365Y7797D01*
X49335Y7827D01*
X49310Y7864D01*
X49234Y7940D01*
X49197Y7965D01*
X49069Y8094D01*
X49026Y8122D01*
X48975Y8133D01*
X44294D01*
X44243Y8122D01*
X44200Y8094D01*
X44015Y7908D01*
X43972Y7917D01*
X43637D01*
X43560Y7902D01*
X43495Y7858D01*
X43451Y7792D01*
X43435Y7715D01*
X43451Y7638D01*
X43495Y7572D01*
X43560Y7528D01*
X43637Y7513D01*
X43972D01*
X43976Y7514D01*
X44000Y7468D01*
X43950Y7417D01*
X43637D01*
X43560Y7402D01*
X43495Y7358D01*
X43451Y7292D01*
X43435Y7215D01*
X43451Y7138D01*
X43495Y7072D01*
X43560Y7028D01*
X43637Y7013D01*
X43972D01*
X44012Y7021D01*
X44033Y6974D01*
X43976Y6930D01*
X43966Y6917D01*
X43637D01*
X43560Y6902D01*
X43495Y6858D01*
X43451Y6792D01*
X43435Y6715D01*
X43451Y6638D01*
X43495Y6572D01*
X43560Y6528D01*
X43637Y6513D01*
X43896D01*
X43905Y6499D01*
X43877Y6449D01*
X43805D01*
X43744Y6437D01*
X43637D01*
X43552Y6420D01*
X43480Y6372D01*
X43432Y6300D01*
X43425Y6265D01*
X43805D01*
Y6165D01*
X43425D01*
X43432Y6130D01*
X43480Y6058D01*
X43552Y6010D01*
X43637Y5993D01*
X43744D01*
X43805Y5980D01*
X44254D01*
X44271Y5930D01*
X44265Y5925D01*
X44212Y5856D01*
X44203Y5835D01*
X44130D01*
X44115Y5858D01*
X44049Y5902D01*
X43972Y5917D01*
X43637D01*
X43560Y5902D01*
X43495Y5858D01*
X43451Y5792D01*
X43435Y5715D01*
X43451Y5638D01*
X43495Y5572D01*
X43560Y5528D01*
X43637Y5513D01*
X43972D01*
X44049Y5528D01*
X44112Y5570D01*
X44193D01*
X44212Y5524D01*
X44265Y5455D01*
X44334Y5402D01*
X44414Y5368D01*
X44500Y5357D01*
X44586Y5368D01*
X44666Y5402D01*
X44735Y5455D01*
X44788Y5524D01*
X44822Y5604D01*
X44833Y5690D01*
X44822Y5776D01*
X44788Y5856D01*
X44735Y5925D01*
X44729Y5930D01*
X44746Y5980D01*
X44922D01*
X44922Y5980D01*
X45109D01*
X45120Y5965D01*
X45193Y5909D01*
X45279Y5874D01*
X45320Y5869D01*
Y6215D01*
Y6561D01*
X45279Y6556D01*
X45193Y6521D01*
X45120Y6465D01*
X45109Y6449D01*
X44922D01*
X44922Y6449D01*
X44502D01*
X44477Y6499D01*
X44499Y6529D01*
X44533Y6609D01*
X44544Y6695D01*
X44533Y6781D01*
X44499Y6861D01*
X44447Y6930D01*
X44378Y6983D01*
X44297Y7016D01*
X44211Y7028D01*
X44125Y7016D01*
X44116Y7013D01*
X44092Y7057D01*
X44115Y7072D01*
X44159Y7138D01*
X44174Y7215D01*
X44166Y7258D01*
X44225Y7317D01*
X45878D01*
Y7153D01*
X47062D01*
Y7245D01*
X48769D01*
X48805Y7231D01*
X48880Y7221D01*
X48955Y7231D01*
X49025Y7260D01*
X49084Y7306D01*
X49105Y7332D01*
X49155D01*
X49176Y7306D01*
X49235Y7260D01*
X49305Y7231D01*
X49380Y7221D01*
X49455Y7231D01*
X49525Y7260D01*
X49584Y7306D01*
X49605Y7332D01*
X49655D01*
X49676Y7306D01*
X49735Y7260D01*
X49805Y7231D01*
X49880Y7221D01*
X49955Y7231D01*
X50025Y7260D01*
X50071Y7295D01*
X50530D01*
X50620Y7313D01*
X50696Y7364D01*
X59797Y16465D01*
X60307D01*
X60332Y16432D01*
X60411Y16372D01*
X60502Y16334D01*
X60600Y16321D01*
X60698Y16334D01*
X60789Y16372D01*
X60868Y16432D01*
X60928Y16511D01*
X60966Y16602D01*
X60979Y16700D01*
X60966Y16798D01*
X60928Y16889D01*
X60868Y16968D01*
X60789Y17028D01*
X60698Y17066D01*
X60600Y17079D01*
D02*
G37*
G36*
X57800D02*
X57702Y17066D01*
X57611Y17028D01*
X57532Y16968D01*
X57472Y16889D01*
X57434Y16798D01*
X57421Y16700D01*
X57427Y16659D01*
X50413Y9645D01*
X47555D01*
X47535Y9660D01*
X47465Y9689D01*
X47390Y9699D01*
X47315Y9689D01*
X47245Y9660D01*
X47186Y9614D01*
X47165Y9588D01*
X47115D01*
X47094Y9614D01*
X47035Y9660D01*
X46965Y9689D01*
X46890Y9699D01*
X46815Y9689D01*
X46745Y9660D01*
X46686Y9614D01*
X46665Y9588D01*
X46615D01*
X46594Y9614D01*
X46535Y9660D01*
X46465Y9689D01*
X46390Y9699D01*
X46315Y9689D01*
X46245Y9660D01*
X46225Y9645D01*
X39687D01*
Y10152D01*
X39093D01*
Y8968D01*
X39499D01*
X41299Y7168D01*
X41305Y7138D01*
X41349Y7072D01*
X41415Y7028D01*
X41492Y7013D01*
X41826D01*
X41904Y7028D01*
X41969Y7072D01*
X42013Y7138D01*
X42028Y7215D01*
X42013Y7292D01*
X41969Y7358D01*
X41904Y7402D01*
X41826Y7417D01*
X41492D01*
X41436Y7406D01*
X39717Y9125D01*
X39737Y9175D01*
X46225D01*
X46245Y9160D01*
X46315Y9131D01*
X46390Y9121D01*
X46447Y9128D01*
X46471Y9081D01*
X45968Y8578D01*
X42557D01*
X42506Y8568D01*
X42463Y8539D01*
X41839Y7915D01*
X41826Y7917D01*
X41492D01*
X41415Y7902D01*
X41349Y7858D01*
X41305Y7792D01*
X41290Y7715D01*
X41305Y7638D01*
X41349Y7572D01*
X41415Y7528D01*
X41492Y7513D01*
X41826D01*
X41904Y7528D01*
X41969Y7572D01*
X42013Y7638D01*
X42028Y7715D01*
X42026Y7727D01*
X42612Y8313D01*
X46022D01*
X46073Y8323D01*
X46116Y8352D01*
X46820Y9056D01*
X46845Y9093D01*
X46875Y9123D01*
X46890Y9121D01*
X46965Y9131D01*
X47035Y9160D01*
X47094Y9206D01*
X47115Y9232D01*
X47165D01*
X47186Y9206D01*
X47245Y9160D01*
X47315Y9131D01*
X47390Y9121D01*
X47465Y9131D01*
X47535Y9160D01*
X47555Y9175D01*
X50510D01*
X50600Y9193D01*
X50676Y9244D01*
X57759Y16327D01*
X57800Y16321D01*
X57898Y16334D01*
X57989Y16372D01*
X58068Y16432D01*
X58128Y16511D01*
X58166Y16602D01*
X58179Y16700D01*
X58166Y16798D01*
X58128Y16889D01*
X58068Y16968D01*
X57989Y17028D01*
X57898Y17066D01*
X57800Y17079D01*
D02*
G37*
G36*
X55000D02*
X54902Y17066D01*
X54811Y17028D01*
X54732Y16968D01*
X54672Y16889D01*
X54634Y16798D01*
X54621Y16700D01*
X54634Y16602D01*
X54672Y16511D01*
X54732Y16432D01*
X54811Y16372D01*
X54902Y16334D01*
X55000Y16321D01*
X55098Y16334D01*
X55189Y16372D01*
X55268Y16432D01*
X55328Y16511D01*
X55366Y16602D01*
X55379Y16700D01*
X55366Y16798D01*
X55328Y16889D01*
X55268Y16968D01*
X55189Y17028D01*
X55098Y17066D01*
X55000Y17079D01*
D02*
G37*
G36*
X19859Y16353D02*
X19497D01*
X19505Y16295D01*
X19546Y16194D01*
X19613Y16108D01*
X19700Y16041D01*
X19800Y15999D01*
X19859Y15992D01*
Y16353D01*
D02*
G37*
G36*
X20321D02*
X19959D01*
Y15991D01*
X20017Y15999D01*
X20118Y16041D01*
X20205Y16108D01*
X20271Y16194D01*
X20313Y16295D01*
X20321Y16353D01*
D02*
G37*
G36*
X66200Y16079D02*
X66102Y16066D01*
X66011Y16028D01*
X65932Y15968D01*
X65872Y15889D01*
X65834Y15798D01*
X65821Y15700D01*
X65834Y15602D01*
X65872Y15511D01*
X65932Y15432D01*
X66011Y15372D01*
X66102Y15334D01*
X66200Y15321D01*
X66298Y15334D01*
X66389Y15372D01*
X66468Y15432D01*
X66528Y15511D01*
X66566Y15602D01*
X66579Y15700D01*
X66566Y15798D01*
X66528Y15889D01*
X66468Y15968D01*
X66389Y16028D01*
X66298Y16066D01*
X66200Y16079D01*
D02*
G37*
G36*
X63400D02*
X63302Y16066D01*
X63211Y16028D01*
X63132Y15968D01*
X63072Y15889D01*
X63034Y15798D01*
X63021Y15700D01*
X63034Y15602D01*
X63072Y15511D01*
X63132Y15432D01*
X63211Y15372D01*
X63302Y15334D01*
X63400Y15321D01*
X63498Y15334D01*
X63589Y15372D01*
X63668Y15432D01*
X63728Y15511D01*
X63766Y15602D01*
X63779Y15700D01*
X63766Y15798D01*
X63728Y15889D01*
X63668Y15968D01*
X63589Y16028D01*
X63498Y16066D01*
X63400Y16079D01*
D02*
G37*
G36*
X60600D02*
X60502Y16066D01*
X60411Y16028D01*
X60332Y15968D01*
X60272Y15889D01*
X60234Y15798D01*
X60221Y15700D01*
X60234Y15602D01*
X60272Y15511D01*
X60332Y15432D01*
X60411Y15372D01*
X60502Y15334D01*
X60600Y15321D01*
X60698Y15334D01*
X60789Y15372D01*
X60868Y15432D01*
X60928Y15511D01*
X60966Y15602D01*
X60979Y15700D01*
X60966Y15798D01*
X60928Y15889D01*
X60868Y15968D01*
X60789Y16028D01*
X60698Y16066D01*
X60600Y16079D01*
D02*
G37*
G36*
X55000D02*
X54902Y16066D01*
X54811Y16028D01*
X54732Y15968D01*
X54672Y15889D01*
X54634Y15798D01*
X54621Y15700D01*
X54634Y15602D01*
X54672Y15511D01*
X54732Y15432D01*
X54811Y15372D01*
X54902Y15334D01*
X55000Y15321D01*
X55098Y15334D01*
X55189Y15372D01*
X55268Y15432D01*
X55328Y15511D01*
X55366Y15602D01*
X55379Y15700D01*
X55366Y15798D01*
X55328Y15889D01*
X55268Y15968D01*
X55189Y16028D01*
X55098Y16066D01*
X55000Y16079D01*
D02*
G37*
G36*
X26550Y15266D02*
X26509Y15261D01*
X26423Y15226D01*
X26350Y15170D01*
X26294Y15097D01*
X26259Y15011D01*
X26254Y14970D01*
X26550D01*
Y15266D01*
D02*
G37*
G36*
X38663Y16726D02*
X38347D01*
X38030D01*
Y16164D01*
X38138D01*
Y14783D01*
X37967D01*
X37950Y14833D01*
X37965Y14845D01*
X38018Y14914D01*
X38052Y14994D01*
X38063Y15080D01*
X38052Y15166D01*
X38018Y15246D01*
X37965Y15315D01*
X37896Y15368D01*
X37816Y15402D01*
X37730Y15413D01*
X37644Y15402D01*
X37564Y15368D01*
X37495Y15315D01*
X37442Y15246D01*
X37415Y15183D01*
X37228D01*
X37177Y15172D01*
X37134Y15144D01*
X36800Y14809D01*
X36754Y14829D01*
Y14878D01*
X36531D01*
Y15176D01*
X36565Y15190D01*
X36633Y15243D01*
X36686Y15312D01*
X36720Y15392D01*
X36731Y15478D01*
X36720Y15564D01*
X36686Y15645D01*
X36633Y15713D01*
X36565Y15766D01*
X36484Y15800D01*
X36398Y15811D01*
X36312Y15800D01*
X36232Y15766D01*
X36163Y15713D01*
X36110Y15645D01*
X36077Y15564D01*
X36065Y15478D01*
X36077Y15392D01*
X36110Y15312D01*
X36163Y15243D01*
X36232Y15190D01*
X36266Y15176D01*
Y14878D01*
X36043D01*
Y14504D01*
X36023D01*
Y14461D01*
X36018Y14460D01*
X35975Y14431D01*
X35746Y14202D01*
X35717Y14159D01*
X35707Y14108D01*
Y13566D01*
X35543D01*
Y13260D01*
X35840D01*
X36137D01*
Y13566D01*
X35972D01*
Y14036D01*
X35993Y14051D01*
X36043Y14027D01*
Y13812D01*
X36566D01*
X36837Y13541D01*
Y13412D01*
X36804Y13398D01*
X36735Y13345D01*
X36682Y13276D01*
X36648Y13196D01*
X36637Y13110D01*
X36648Y13024D01*
X36682Y12944D01*
X36735Y12875D01*
X36804Y12822D01*
X36884Y12788D01*
X36970Y12777D01*
X37056Y12788D01*
X37136Y12822D01*
X37205Y12875D01*
X37258Y12944D01*
X37292Y13024D01*
X37303Y13110D01*
X37292Y13196D01*
X37258Y13276D01*
X37205Y13345D01*
X37136Y13398D01*
X37103Y13412D01*
Y13596D01*
X37092Y13647D01*
X37064Y13690D01*
X36788Y13966D01*
X36809Y14016D01*
X37360D01*
X37374Y13982D01*
X37427Y13913D01*
X37495Y13860D01*
X37576Y13827D01*
X37662Y13815D01*
X37748Y13827D01*
X37828Y13860D01*
X37897Y13913D01*
X37950Y13982D01*
X37983Y14062D01*
X37995Y14148D01*
X37983Y14234D01*
X37950Y14315D01*
X37897Y14383D01*
X37828Y14436D01*
X37748Y14470D01*
X37758Y14517D01*
X38138D01*
Y13072D01*
X38030D01*
Y12510D01*
X38347D01*
X38664D01*
Y13072D01*
X38607D01*
Y14650D01*
Y16164D01*
X38663D01*
Y16726D01*
D02*
G37*
G36*
X22960Y14830D02*
X22664D01*
X22669Y14789D01*
X22704Y14703D01*
X22760Y14630D01*
X22833Y14574D01*
X22919Y14539D01*
X22960Y14534D01*
Y14830D01*
D02*
G37*
G36*
X47182Y14335D02*
X46620D01*
Y14069D01*
X47182D01*
Y14335D01*
D02*
G37*
G36*
X46520D02*
X45958D01*
Y14034D01*
X45944Y14019D01*
X45831D01*
X45820Y14035D01*
X45747Y14091D01*
X45661Y14126D01*
X45620Y14131D01*
Y13785D01*
Y13439D01*
X45661Y13444D01*
X45747Y13479D01*
X45820Y13535D01*
X45831Y13550D01*
X46041D01*
X46131Y13568D01*
X46207Y13619D01*
X46285Y13698D01*
X46335Y13691D01*
Y12697D01*
X46008D01*
Y12430D01*
X47232D01*
Y12697D01*
X46804D01*
Y13702D01*
X47182D01*
Y13969D01*
X46570D01*
Y14019D01*
X46520D01*
Y14335D01*
D02*
G37*
G36*
X31900Y14256D02*
Y13960D01*
X32196D01*
X32191Y14001D01*
X32156Y14087D01*
X32100Y14160D01*
X32027Y14216D01*
X31941Y14251D01*
X31900Y14256D01*
D02*
G37*
G36*
X31800D02*
X31759Y14251D01*
X31673Y14216D01*
X31600Y14160D01*
X31544Y14087D01*
X31509Y14001D01*
X31504Y13960D01*
X31800D01*
Y14256D01*
D02*
G37*
G36*
X24337Y16997D02*
X23596D01*
Y16719D01*
Y16325D01*
Y15931D01*
Y15604D01*
X22952D01*
X22901Y15594D01*
X22858Y15566D01*
X20846Y13554D01*
X20818Y13511D01*
X20807Y13460D01*
Y11557D01*
X20604D01*
Y11003D01*
X21276D01*
Y11557D01*
X21073D01*
Y13405D01*
X22616Y14948D01*
X22652Y14930D01*
X23010D01*
Y14880D01*
X23060D01*
Y14534D01*
X23101Y14539D01*
X23187Y14574D01*
X23260Y14630D01*
X23316Y14703D01*
X23336Y14752D01*
X23577D01*
Y14730D01*
X23596D01*
Y14553D01*
X23837D01*
Y14438D01*
X23783Y14430D01*
X23702Y14397D01*
X23633Y14344D01*
X23581Y14275D01*
X23547Y14195D01*
X23536Y14109D01*
X23547Y14023D01*
X23581Y13942D01*
X23633Y13873D01*
X23702Y13821D01*
X23783Y13787D01*
X23869Y13776D01*
X23955Y13787D01*
X24035Y13821D01*
X24104Y13873D01*
X24157Y13942D01*
X24190Y14023D01*
X24202Y14109D01*
X24190Y14195D01*
X24157Y14275D01*
X24104Y14344D01*
X24103Y14345D01*
Y14553D01*
X24337D01*
Y14730D01*
X24357D01*
Y14839D01*
X23967D01*
Y14939D01*
X24357D01*
Y15048D01*
X24337D01*
Y15537D01*
Y15931D01*
Y16325D01*
Y16719D01*
Y16997D01*
D02*
G37*
G36*
X32196Y13860D02*
X31900D01*
Y13564D01*
X31941Y13569D01*
X32027Y13604D01*
X32100Y13660D01*
X32156Y13733D01*
X32191Y13819D01*
X32196Y13860D01*
D02*
G37*
G36*
X31800D02*
X31504D01*
X31509Y13819D01*
X31544Y13733D01*
X31600Y13660D01*
X31673Y13604D01*
X31759Y13569D01*
X31800Y13564D01*
Y13860D01*
D02*
G37*
G36*
X40710Y14663D02*
X40624Y14652D01*
X40544Y14618D01*
X40475Y14565D01*
X40422Y14496D01*
X40388Y14416D01*
X40377Y14330D01*
X40388Y14244D01*
X40422Y14164D01*
X40475Y14095D01*
X40544Y14042D01*
X40624Y14008D01*
X40704Y13998D01*
X40718Y13975D01*
X40724Y13949D01*
X40674Y13884D01*
X40641Y13804D01*
X40630Y13717D01*
X40641Y13631D01*
X40674Y13551D01*
X40713Y13500D01*
X40699Y13449D01*
X40695Y13445D01*
X40685Y13443D01*
X40137Y13990D01*
X40152Y14024D01*
X40163Y14110D01*
X40152Y14196D01*
X40118Y14276D01*
X40065Y14345D01*
X39996Y14398D01*
X39916Y14432D01*
X39830Y14443D01*
X39744Y14432D01*
X39664Y14398D01*
X39595Y14345D01*
X39542Y14276D01*
X39508Y14196D01*
X39497Y14110D01*
X39508Y14024D01*
X39542Y13944D01*
X39595Y13875D01*
X39664Y13822D01*
X39744Y13788D01*
X39830Y13777D01*
X39916Y13788D01*
X39950Y13803D01*
X40561Y13191D01*
X40604Y13162D01*
X40655Y13152D01*
X41315D01*
X41322Y13142D01*
X41387Y13098D01*
X41465Y13083D01*
X41799D01*
X41877Y13098D01*
X41942Y13142D01*
X41986Y13208D01*
X42001Y13285D01*
X41986Y13362D01*
X41942Y13428D01*
X41877Y13472D01*
X41799Y13487D01*
X41465D01*
X41387Y13472D01*
X41322Y13428D01*
X41315Y13418D01*
X41196D01*
X41179Y13468D01*
X41198Y13482D01*
X41251Y13551D01*
X41273Y13604D01*
X41379D01*
X41387Y13598D01*
X41465Y13583D01*
X41799D01*
X41877Y13598D01*
X41942Y13642D01*
X41986Y13708D01*
X42001Y13785D01*
X41986Y13862D01*
X41942Y13928D01*
X41877Y13972D01*
X41799Y13987D01*
X41465D01*
X41387Y13972D01*
X41386Y13971D01*
X41174D01*
X41129Y14006D01*
X41049Y14039D01*
X40969Y14050D01*
X40955Y14073D01*
X40949Y14099D01*
X40998Y14164D01*
X41003Y14175D01*
X41300D01*
X41322Y14142D01*
X41387Y14098D01*
X41465Y14083D01*
X41799D01*
X41877Y14098D01*
X41942Y14142D01*
X41986Y14208D01*
X42001Y14285D01*
X41986Y14362D01*
X41942Y14428D01*
X41877Y14472D01*
X41799Y14487D01*
X41465D01*
X41387Y14472D01*
X41340Y14440D01*
X41022D01*
X40998Y14496D01*
X40945Y14565D01*
X40876Y14618D01*
X40796Y14652D01*
X40710Y14663D01*
D02*
G37*
G36*
X36137Y13160D02*
X35890D01*
Y12854D01*
X36137D01*
Y13160D01*
D02*
G37*
G36*
X35790D02*
X35543D01*
Y12854D01*
X35790D01*
Y13160D01*
D02*
G37*
G36*
X39707Y13052D02*
X39113D01*
Y11868D01*
X39375D01*
X41194Y10049D01*
X41270Y9998D01*
X41360Y9980D01*
X41360Y9980D01*
X42437D01*
X42457Y9965D01*
X42527Y9936D01*
X42602Y9926D01*
X42677Y9936D01*
X42747Y9965D01*
X42806Y10010D01*
X42827Y10037D01*
X42877D01*
X42898Y10010D01*
X42957Y9965D01*
X43027Y9936D01*
X43102Y9926D01*
X43177Y9936D01*
X43247Y9965D01*
X43306Y10010D01*
X43327Y10037D01*
X43377D01*
X43397Y10010D01*
X43457Y9965D01*
X43527Y9936D01*
X43602Y9926D01*
X43677Y9936D01*
X43747Y9965D01*
X43806Y10010D01*
X43852Y10070D01*
X43881Y10140D01*
X43891Y10215D01*
X43881Y10290D01*
X43852Y10360D01*
X43806Y10419D01*
X43747Y10465D01*
X43677Y10494D01*
X43602Y10504D01*
X43527Y10494D01*
X43457Y10465D01*
X43397Y10419D01*
X43377Y10393D01*
X43327D01*
X43306Y10419D01*
X43247Y10465D01*
X43189Y10489D01*
Y10572D01*
X43179Y10622D01*
X43150Y10665D01*
X41782Y12033D01*
X41796Y12074D01*
X41802Y12084D01*
X41877Y12098D01*
X41942Y12142D01*
X41986Y12208D01*
X42001Y12285D01*
X41986Y12362D01*
X41942Y12428D01*
X41877Y12472D01*
X41799Y12487D01*
X41465D01*
X41415Y12477D01*
X41390Y12523D01*
X41453Y12585D01*
X41465Y12583D01*
X41799D01*
X41877Y12598D01*
X41942Y12642D01*
X41986Y12708D01*
X42001Y12785D01*
X41986Y12862D01*
X41942Y12928D01*
X41877Y12972D01*
X41799Y12987D01*
X41465D01*
X41387Y12972D01*
X41322Y12928D01*
X41278Y12862D01*
X41263Y12785D01*
X41265Y12773D01*
X41085Y12593D01*
X39707D01*
Y13052D01*
D02*
G37*
G36*
X47232Y12330D02*
X46670D01*
Y12063D01*
X47232D01*
Y12330D01*
D02*
G37*
G36*
X46570D02*
X46008D01*
Y12063D01*
X46570D01*
Y12330D01*
D02*
G37*
G36*
X31950Y12256D02*
Y11960D01*
X32246D01*
X32241Y12001D01*
X32206Y12087D01*
X32150Y12160D01*
X32077Y12216D01*
X31991Y12251D01*
X31950Y12256D01*
D02*
G37*
G36*
X31850D02*
X31809Y12251D01*
X31723Y12216D01*
X31650Y12160D01*
X31594Y12087D01*
X31559Y12001D01*
X31554Y11960D01*
X31850D01*
Y12256D01*
D02*
G37*
G36*
X23520Y11882D02*
X23467Y11875D01*
X23371Y11835D01*
X23288Y11772D01*
X23252Y11725D01*
X22888D01*
X22852Y11772D01*
X22769Y11835D01*
X22673Y11875D01*
X22620Y11882D01*
Y11490D01*
Y11098D01*
X22673Y11105D01*
X22769Y11145D01*
X22852Y11208D01*
X22888Y11255D01*
X23252D01*
X23288Y11208D01*
X23371Y11145D01*
X23467Y11105D01*
X23520Y11098D01*
Y11490D01*
Y11882D01*
D02*
G37*
G36*
X32246Y11860D02*
X31950D01*
Y11564D01*
X31991Y11569D01*
X32077Y11604D01*
X32150Y11660D01*
X32206Y11733D01*
X32241Y11819D01*
X32246Y11860D01*
D02*
G37*
G36*
X31850D02*
X31554D01*
X31559Y11819D01*
X31594Y11733D01*
X31650Y11660D01*
X31723Y11604D01*
X31809Y11569D01*
X31850Y11564D01*
Y11860D01*
D02*
G37*
G36*
X23620Y11882D02*
Y11540D01*
X23962D01*
X23955Y11593D01*
X23915Y11689D01*
X23852Y11772D01*
X23769Y11835D01*
X23673Y11875D01*
X23620Y11882D01*
D02*
G37*
G36*
X22520Y11882D02*
X22467Y11875D01*
X22371Y11835D01*
X22288Y11772D01*
X22225Y11689D01*
X22185Y11593D01*
X22178Y11540D01*
X22520D01*
Y11882D01*
D02*
G37*
G36*
X38664Y12410D02*
X38347D01*
X38030D01*
Y11848D01*
X38112D01*
Y11582D01*
X38070Y11550D01*
X38014Y11477D01*
X37979Y11391D01*
X37974Y11350D01*
X38666D01*
X38661Y11391D01*
X38626Y11477D01*
X38582Y11534D01*
Y11848D01*
X38664D01*
Y12410D01*
D02*
G37*
G36*
X23962Y11440D02*
X23620D01*
Y11098D01*
X23673Y11105D01*
X23769Y11145D01*
X23852Y11208D01*
X23915Y11291D01*
X23955Y11387D01*
X23962Y11440D01*
D02*
G37*
G36*
X22520D02*
X22178D01*
X22185Y11387D01*
X22225Y11291D01*
X22288Y11208D01*
X22371Y11145D01*
X22467Y11105D01*
X22520Y11098D01*
Y11440D01*
D02*
G37*
G36*
X23570Y10869D02*
X23472Y10856D01*
X23381Y10818D01*
X23302Y10758D01*
X23242Y10679D01*
X23204Y10588D01*
X23191Y10490D01*
X23204Y10392D01*
X23242Y10301D01*
X23302Y10222D01*
X23381Y10162D01*
X23472Y10124D01*
X23570Y10111D01*
X23668Y10124D01*
X23759Y10162D01*
X23838Y10222D01*
X23898Y10301D01*
X23921Y10357D01*
X24604D01*
Y10313D01*
X25276D01*
Y10867D01*
X24604D01*
Y10623D01*
X23921D01*
X23898Y10679D01*
X23838Y10758D01*
X23759Y10818D01*
X23668Y10856D01*
X23570Y10869D01*
D02*
G37*
G36*
X21276Y10927D02*
X20604D01*
Y10373D01*
X21074D01*
X21087Y10371D01*
X22213D01*
X22242Y10301D01*
X22302Y10222D01*
X22381Y10162D01*
X22472Y10124D01*
X22570Y10111D01*
X22668Y10124D01*
X22759Y10162D01*
X22838Y10222D01*
X22898Y10301D01*
X22936Y10392D01*
X22949Y10490D01*
X22936Y10588D01*
X22898Y10679D01*
X22838Y10758D01*
X22759Y10818D01*
X22668Y10856D01*
X22570Y10869D01*
X22472Y10856D01*
X22381Y10818D01*
X22302Y10758D01*
X22242Y10679D01*
X22224Y10636D01*
X21276D01*
Y10927D01*
D02*
G37*
G36*
X23570Y9869D02*
X23472Y9856D01*
X23381Y9818D01*
X23302Y9758D01*
X23242Y9679D01*
X23219Y9623D01*
X22921D01*
X22898Y9679D01*
X22838Y9758D01*
X22759Y9818D01*
X22668Y9856D01*
X22570Y9869D01*
X22472Y9856D01*
X22381Y9818D01*
X22302Y9758D01*
X22242Y9679D01*
X22204Y9588D01*
X22191Y9490D01*
X22204Y9392D01*
X22242Y9301D01*
X22302Y9222D01*
X22381Y9162D01*
X22472Y9124D01*
X22570Y9111D01*
X22668Y9124D01*
X22759Y9162D01*
X22838Y9222D01*
X22898Y9301D01*
X22921Y9357D01*
X23219D01*
X23242Y9301D01*
X23302Y9222D01*
X23381Y9162D01*
X23472Y9124D01*
X23570Y9111D01*
X23668Y9124D01*
X23759Y9162D01*
X23838Y9222D01*
X23898Y9301D01*
X23936Y9392D01*
X23949Y9490D01*
X23936Y9588D01*
X23898Y9679D01*
X23838Y9758D01*
X23759Y9818D01*
X23668Y9856D01*
X23570Y9869D01*
D02*
G37*
G36*
X38666Y11250D02*
X37974D01*
X37979Y11209D01*
X38014Y11123D01*
X38070Y11050D01*
X38143Y10994D01*
X38205Y10969D01*
Y10184D01*
X38198Y10172D01*
X38010D01*
Y9610D01*
X38327D01*
X38644D01*
Y9988D01*
X38657Y10008D01*
X38675Y10098D01*
X38675Y10098D01*
Y11126D01*
X38675Y11126D01*
X38659Y11204D01*
X38661Y11209D01*
X38666Y11250D01*
D02*
G37*
G36*
X19685Y8548D02*
X19554Y8535D01*
X19427Y8497D01*
X19311Y8434D01*
X19209Y8350D01*
X19125Y8248D01*
X19063Y8132D01*
X19024Y8005D01*
X19011Y7874D01*
X19024Y7743D01*
X19063Y7616D01*
X19125Y7500D01*
X19209Y7398D01*
X19311Y7314D01*
X19427Y7252D01*
X19554Y7213D01*
X19685Y7200D01*
X19816Y7213D01*
X19943Y7252D01*
X20059Y7314D01*
X20161Y7398D01*
X20245Y7500D01*
X20308Y7616D01*
X20346Y7743D01*
X20359Y7874D01*
X20346Y8005D01*
X20308Y8132D01*
X20245Y8248D01*
X20161Y8350D01*
X20059Y8434D01*
X19943Y8497D01*
X19816Y8535D01*
X19685Y8548D01*
D02*
G37*
G36*
X46420Y6704D02*
X45858D01*
Y6449D01*
X45631D01*
X45620Y6465D01*
X45547Y6521D01*
X45461Y6556D01*
X45420Y6561D01*
Y6215D01*
Y5869D01*
X45461Y5874D01*
X45547Y5909D01*
X45620Y5965D01*
X45631Y5980D01*
X46003D01*
X46092Y5998D01*
X46168Y6049D01*
X46185Y6066D01*
X46235Y6060D01*
Y5240D01*
X45858D01*
Y4973D01*
X47082D01*
Y5240D01*
X46705D01*
Y6070D01*
X47082D01*
Y6337D01*
X46470D01*
Y6387D01*
X46420D01*
Y6704D01*
D02*
G37*
G36*
X47082D02*
X46520D01*
Y6437D01*
X47082D01*
Y6704D01*
D02*
G37*
G36*
X36127Y6170D02*
X35880D01*
Y5864D01*
X36127D01*
Y6170D01*
D02*
G37*
G36*
X35780D02*
X35533D01*
Y5864D01*
X35780D01*
Y6170D01*
D02*
G37*
G36*
X47082Y4873D02*
X46520D01*
Y4606D01*
X47082D01*
Y4873D01*
D02*
G37*
G36*
X46420D02*
X45858D01*
Y4606D01*
X46420D01*
Y4873D01*
D02*
G37*
G36*
X30660Y4942D02*
Y4190D01*
X31412D01*
X31401Y4297D01*
X31355Y4449D01*
X31281Y4588D01*
X31181Y4710D01*
X31058Y4811D01*
X30919Y4885D01*
X30768Y4931D01*
X30660Y4942D01*
D02*
G37*
G36*
X53150Y4611D02*
X53018Y4598D01*
X52892Y4560D01*
X52775Y4497D01*
X52673Y4413D01*
X52589Y4311D01*
X52527Y4195D01*
X52489Y4068D01*
X52476Y3937D01*
X52489Y3806D01*
X52527Y3679D01*
X52589Y3563D01*
X52673Y3461D01*
X52775Y3377D01*
X52892Y3314D01*
X53018Y3276D01*
X53150Y3263D01*
X53281Y3276D01*
X53407Y3314D01*
X53524Y3377D01*
X53626Y3461D01*
X53710Y3563D01*
X53772Y3679D01*
X53810Y3806D01*
X53823Y3937D01*
X53810Y4068D01*
X53772Y4195D01*
X53710Y4311D01*
X53626Y4413D01*
X53524Y4497D01*
X53407Y4560D01*
X53281Y4598D01*
X53150Y4611D01*
D02*
G37*
G36*
X33870Y1412D02*
Y1070D01*
X34212D01*
X34205Y1123D01*
X34165Y1219D01*
X34102Y1302D01*
X34019Y1365D01*
X33923Y1405D01*
X33870Y1412D01*
D02*
G37*
G36*
X20023Y1770D02*
X19560D01*
Y893D01*
X20023D01*
Y1770D01*
D02*
G37*
G36*
X19460D02*
X18997D01*
Y893D01*
X19460D01*
Y1770D01*
D02*
G37*
G36*
X35820Y1399D02*
X35722Y1386D01*
X35631Y1348D01*
X35552Y1288D01*
X35492Y1209D01*
X35454Y1118D01*
X35441Y1020D01*
X35454Y922D01*
X35492Y831D01*
X35552Y752D01*
X35631Y692D01*
X35722Y654D01*
X35820Y641D01*
X35918Y654D01*
X36009Y692D01*
X36088Y752D01*
X36148Y831D01*
X36186Y922D01*
X36199Y1020D01*
X36186Y1118D01*
X36148Y1209D01*
X36088Y1288D01*
X36009Y1348D01*
X35918Y1386D01*
X35820Y1399D01*
D02*
G37*
G36*
X34820D02*
X34722Y1386D01*
X34631Y1348D01*
X34552Y1288D01*
X34492Y1209D01*
X34454Y1118D01*
X34441Y1020D01*
X34454Y922D01*
X34492Y831D01*
X34552Y752D01*
X34631Y692D01*
X34722Y654D01*
X34820Y641D01*
X34918Y654D01*
X35009Y692D01*
X35088Y752D01*
X35148Y831D01*
X35186Y922D01*
X35199Y1020D01*
X35186Y1118D01*
X35148Y1209D01*
X35088Y1288D01*
X35009Y1348D01*
X34918Y1386D01*
X34820Y1399D01*
D02*
G37*
G36*
X34212Y970D02*
X33870D01*
Y628D01*
X33923Y635D01*
X34019Y675D01*
X34102Y738D01*
X34165Y821D01*
X34205Y917D01*
X34212Y970D01*
D02*
G37*
%LPD*%
G36*
X29564Y28843D02*
X29767D01*
Y20686D01*
X29683D01*
Y20014D01*
X29828D01*
Y19337D01*
X27892Y17402D01*
X27844Y17425D01*
X27853Y17490D01*
X27842Y17576D01*
X27808Y17656D01*
X27755Y17725D01*
X27686Y17778D01*
X27606Y17812D01*
X27520Y17823D01*
X27434Y17812D01*
X27354Y17778D01*
X27285Y17725D01*
X27232Y17656D01*
X27198Y17576D01*
X27187Y17490D01*
X27198Y17404D01*
X27232Y17324D01*
X27250Y17299D01*
X27210Y17259D01*
X27181Y17216D01*
X27171Y17166D01*
Y16997D01*
X27121D01*
X26857Y17261D01*
Y17814D01*
X26654D01*
Y18051D01*
X26644Y18101D01*
X26619Y18138D01*
X26638Y18164D01*
X26672Y18244D01*
X26683Y18330D01*
X26672Y18416D01*
X26638Y18496D01*
X26585Y18565D01*
X26516Y18618D01*
X26436Y18652D01*
X26350Y18663D01*
X26264Y18652D01*
X26184Y18618D01*
X26115Y18565D01*
X26105Y18553D01*
X26055Y18570D01*
Y20738D01*
X26078Y20761D01*
X26157D01*
X26164Y20744D01*
X26211Y20682D01*
X26273Y20634D01*
X26345Y20604D01*
X26423Y20594D01*
X26500Y20604D01*
X26572Y20634D01*
X26634Y20682D01*
X26682Y20744D01*
X26712Y20816D01*
X26722Y20893D01*
X26712Y20970D01*
X26682Y21043D01*
X26634Y21105D01*
X26572Y21152D01*
X26500Y21182D01*
X26423Y21192D01*
X26345Y21182D01*
X26273Y21152D01*
X26211Y21105D01*
X26164Y21043D01*
X26157Y21026D01*
X26023D01*
X26023Y21026D01*
X25972Y21016D01*
X25929Y20987D01*
X25829Y20887D01*
X25800Y20844D01*
X25790Y20793D01*
Y19857D01*
X25744Y19838D01*
X24783Y20799D01*
X24790Y20816D01*
X24801Y20893D01*
X24790Y20970D01*
X24761Y21043D01*
X24713Y21105D01*
X24651Y21152D01*
X24579Y21182D01*
X24501Y21192D01*
X24424Y21182D01*
X24352Y21152D01*
X24290Y21105D01*
X24242Y21043D01*
X24213Y20970D01*
X24202Y20893D01*
X24213Y20816D01*
X24242Y20744D01*
X24290Y20682D01*
X24352Y20634D01*
X24424Y20604D01*
X24501Y20594D01*
X24579Y20604D01*
X24596Y20611D01*
X25601Y19606D01*
Y18573D01*
X25551Y18563D01*
X25546Y18577D01*
X25490Y18650D01*
X25417Y18706D01*
X25331Y18741D01*
X25290Y18746D01*
Y18400D01*
X25190D01*
Y18746D01*
X25149Y18741D01*
X25063Y18706D01*
X24990Y18650D01*
X24934Y18577D01*
X24924Y18551D01*
X24865Y18541D01*
X24816Y18578D01*
X24736Y18612D01*
X24650Y18623D01*
X24564Y18612D01*
X24530Y18597D01*
X24143Y18985D01*
Y27845D01*
X25020Y28723D01*
X25054Y28708D01*
X25140Y28697D01*
X25226Y28708D01*
X25306Y28742D01*
X25375Y28795D01*
X25392Y28816D01*
X25700D01*
Y28778D01*
X26332D01*
Y28904D01*
X29564D01*
Y28843D01*
D02*
G37*
G36*
X29828Y18897D02*
Y16909D01*
X29834Y16876D01*
X29804Y16826D01*
X29610D01*
X29574Y16865D01*
X29583Y16930D01*
X29572Y17016D01*
X29538Y17097D01*
X29485Y17165D01*
X29416Y17218D01*
X29336Y17252D01*
X29250Y17263D01*
X29164Y17252D01*
X29084Y17218D01*
X29015Y17165D01*
X28962Y17097D01*
X28928Y17016D01*
X28917Y16930D01*
X28928Y16844D01*
X28962Y16764D01*
X29015Y16695D01*
X29077Y16646D01*
X29076Y16625D01*
X29064Y16596D01*
X28319D01*
X28300Y16643D01*
X29225Y17567D01*
X29269Y17549D01*
X29310Y17544D01*
Y17840D01*
X29014D01*
X29019Y17799D01*
X29037Y17755D01*
X28076Y16793D01*
X27729D01*
X27708Y16843D01*
X29781Y18916D01*
X29828Y18897D01*
D02*
G37*
%LPC*%
G36*
X27559Y26264D02*
X27428Y26251D01*
X27301Y26213D01*
X27185Y26151D01*
X27083Y26067D01*
X26999Y25965D01*
X26937Y25848D01*
X26898Y25722D01*
X26885Y25591D01*
X26898Y25459D01*
X26937Y25333D01*
X26999Y25216D01*
X27083Y25114D01*
X27185Y25030D01*
X27301Y24968D01*
X27428Y24930D01*
X27559Y24917D01*
X27691Y24930D01*
X27817Y24968D01*
X27933Y25030D01*
X28036Y25114D01*
X28119Y25216D01*
X28182Y25333D01*
X28220Y25459D01*
X28233Y25591D01*
X28220Y25722D01*
X28182Y25848D01*
X28119Y25965D01*
X28036Y26067D01*
X27933Y26151D01*
X27817Y26213D01*
X27691Y26251D01*
X27559Y26264D01*
D02*
G37*
G36*
X29410Y18236D02*
Y17940D01*
X29706D01*
X29701Y17981D01*
X29666Y18067D01*
X29610Y18140D01*
X29537Y18196D01*
X29451Y18231D01*
X29410Y18236D01*
D02*
G37*
G36*
X29310D02*
X29269Y18231D01*
X29183Y18196D01*
X29110Y18140D01*
X29054Y18067D01*
X29019Y17981D01*
X29014Y17940D01*
X29310D01*
Y18236D01*
D02*
G37*
G36*
X29706Y17840D02*
X29410D01*
Y17544D01*
X29451Y17549D01*
X29537Y17584D01*
X29610Y17640D01*
X29666Y17713D01*
X29701Y17799D01*
X29706Y17840D01*
D02*
G37*
%LPD*%
G36*
X41540Y19575D02*
X41530Y19525D01*
X41545Y19448D01*
X41589Y19382D01*
X41655Y19338D01*
X41732Y19323D01*
X42066D01*
X42079Y19325D01*
X43778Y17626D01*
X43821Y17598D01*
X43871Y17587D01*
X46804D01*
X46807Y17537D01*
X46745Y17529D01*
X46675Y17500D01*
X46655Y17485D01*
X41573D01*
X39658Y19400D01*
Y19527D01*
X41367D01*
X41418Y19538D01*
X41461Y19566D01*
X41494Y19599D01*
X41540Y19575D01*
D02*
G37*
%LPC*%
G36*
X41170Y19386D02*
Y19090D01*
X41466D01*
X41461Y19131D01*
X41426Y19217D01*
X41370Y19290D01*
X41297Y19346D01*
X41211Y19381D01*
X41170Y19386D01*
D02*
G37*
G36*
X41070D02*
X41029Y19381D01*
X40943Y19346D01*
X40870Y19290D01*
X40814Y19217D01*
X40779Y19131D01*
X40774Y19090D01*
X41070D01*
Y19386D01*
D02*
G37*
G36*
X41466Y18990D02*
X41170D01*
Y18694D01*
X41211Y18699D01*
X41297Y18734D01*
X41370Y18790D01*
X41426Y18863D01*
X41461Y18949D01*
X41466Y18990D01*
D02*
G37*
G36*
X41070D02*
X40774D01*
X40779Y18949D01*
X40814Y18863D01*
X40870Y18790D01*
X40943Y18734D01*
X41029Y18699D01*
X41070Y18694D01*
Y18990D01*
D02*
G37*
%LPD*%
G36*
X41505Y26632D02*
X41500Y26605D01*
X41515Y26528D01*
X41559Y26462D01*
X41625Y26418D01*
X41702Y26403D01*
X42036D01*
X42114Y26418D01*
X42179Y26462D01*
X42228Y26445D01*
X42909Y25763D01*
Y24880D01*
X42897Y24875D01*
X42838Y24829D01*
X42817Y24803D01*
X42767D01*
X42746Y24829D01*
X42687Y24875D01*
X42617Y24904D01*
X42542Y24914D01*
X42467Y24904D01*
X42397Y24875D01*
X42377Y24859D01*
X41510D01*
X39850Y26520D01*
Y26647D01*
X41402D01*
X41453Y26658D01*
X41460Y26663D01*
X41505Y26632D01*
D02*
G37*
%LPC*%
G36*
X41510Y26176D02*
Y25880D01*
X41806D01*
X41801Y25921D01*
X41766Y26007D01*
X41710Y26080D01*
X41637Y26136D01*
X41551Y26171D01*
X41510Y26176D01*
D02*
G37*
G36*
X41410D02*
X41369Y26171D01*
X41283Y26136D01*
X41210Y26080D01*
X41154Y26007D01*
X41119Y25921D01*
X41114Y25880D01*
X41410D01*
Y26176D01*
D02*
G37*
G36*
X41806Y25780D02*
X41510D01*
Y25484D01*
X41551Y25489D01*
X41637Y25524D01*
X41710Y25580D01*
X41766Y25653D01*
X41801Y25739D01*
X41806Y25780D01*
D02*
G37*
G36*
X41410D02*
X41114D01*
X41119Y25739D01*
X41154Y25653D01*
X41210Y25580D01*
X41283Y25524D01*
X41369Y25489D01*
X41410Y25484D01*
Y25780D01*
D02*
G37*
%LPD*%
G36*
X41248Y12354D02*
X41273Y12335D01*
X41263Y12285D01*
X41278Y12208D01*
X41322Y12142D01*
X41387Y12098D01*
X41465Y12083D01*
X41499D01*
Y11996D01*
X41510Y11945D01*
X41538Y11902D01*
X42924Y10517D01*
Y10440D01*
X42898Y10419D01*
X42877Y10393D01*
X42827D01*
X42806Y10419D01*
X42747Y10465D01*
X42677Y10494D01*
X42602Y10504D01*
X42527Y10494D01*
X42457Y10465D01*
X42437Y10449D01*
X41457D01*
X40275Y11631D01*
X40304Y11674D01*
X40339Y11659D01*
X40380Y11654D01*
Y12000D01*
X40430D01*
Y12050D01*
X40776D01*
X40771Y12091D01*
X40736Y12177D01*
X40680Y12250D01*
X40643Y12277D01*
X40660Y12327D01*
X41140D01*
X41190Y12338D01*
X41227Y12362D01*
X41248Y12354D01*
D02*
G37*
%LPC*%
G36*
X40776Y11950D02*
X40480D01*
Y11654D01*
X40521Y11659D01*
X40607Y11694D01*
X40680Y11750D01*
X40736Y11823D01*
X40771Y11909D01*
X40776Y11950D01*
D02*
G37*
%LPD*%
G54D10*
X39240Y20580D02*
X39300Y20520D01*
X41894D01*
X41899Y20525D01*
X25730Y29000D02*
X25760Y28970D01*
X25961Y29000D02*
X26016Y29054D01*
X25140Y36750D02*
X25217Y36827D01*
X25726Y13489D02*
Y14114D01*
X25100Y13150D02*
X25140Y13190D01*
X25426D01*
X25726Y13489D01*
Y14114D02*
X25734Y14106D01*
X21829Y18831D02*
X23420D01*
X24010Y27900D02*
X25140Y29030D01*
X23869Y14109D02*
X23970Y14210D01*
X25529Y14114D02*
X25537Y14106D01*
X25529Y14114D02*
Y14471D01*
X24850Y15150D02*
X25529Y14471D01*
X37368Y24570D02*
X38350D01*
X24940Y11220D02*
X25430Y11710D01*
Y12380D01*
X43972Y4715D02*
X45337Y3350D01*
X49005D01*
X49178Y3523D02*
X49191D01*
X49267Y3599D01*
X49005Y3350D02*
X49178Y3523D01*
X49267Y3599D02*
Y3612D01*
X49430Y3775D01*
X44009Y7715D02*
X44294Y8000D01*
X48975D01*
X49128Y7847D01*
X49141D01*
X49217Y7771D01*
Y7758D02*
Y7771D01*
Y7758D02*
X49380Y7595D01*
X27610Y8110D02*
X27660Y8160D01*
X26909Y8110D02*
X27610D01*
X26850Y8169D02*
X26909Y8110D01*
X26850Y8169D02*
Y8411D01*
X26791Y8470D02*
X26850Y8411D01*
X26389Y8470D02*
X26791D01*
X25989Y8160D02*
X26271D01*
X26330Y8411D02*
X26389Y8470D01*
X26330Y8219D02*
Y8411D01*
X26271Y8160D02*
X26330Y8219D01*
X25931D02*
Y14106D01*
Y8219D02*
X25989Y8160D01*
X26127Y13003D02*
Y14106D01*
Y11900D02*
Y13003D01*
Y10568D02*
Y11900D01*
Y10568D02*
X28561Y8135D01*
X25923Y20793D02*
X26023Y20893D01*
X26423D01*
X25923Y17451D02*
X25931Y17443D01*
X25923Y17451D02*
Y20793D01*
X24501Y20893D02*
X25734Y19661D01*
Y17443D02*
Y19661D01*
X25240Y18292D02*
Y18400D01*
X24650Y18290D02*
X25135Y17805D01*
X24010Y18930D02*
X24650Y18290D01*
X25135Y17451D02*
Y17805D01*
X25240Y18292D02*
X25340Y18192D01*
X28620Y8135D02*
X29715D01*
X28561D02*
X28620D01*
X28695Y8910D02*
Y11105D01*
X26324Y13476D02*
X28695Y11105D01*
X26324Y13476D02*
Y14106D01*
X44488Y5702D02*
X44500Y5690D01*
X43805Y5715D02*
X43817Y5702D01*
X44488D01*
X44191Y6715D02*
X44211Y6695D01*
X43805Y6715D02*
X44191D01*
X45413Y11317D02*
X46620D01*
X45410Y10820D02*
X48837D01*
X43778Y12285D02*
X43945D01*
X45410Y10820D01*
X43945Y12785D02*
X45413Y11317D01*
X32600Y6380D02*
X33328Y7108D01*
X31427Y5207D02*
X32600Y6380D01*
Y6330D02*
X33470Y5460D01*
X32600Y6330D02*
Y6380D01*
X33470Y5460D02*
X38257D01*
X36820Y1020D02*
Y1410D01*
X32730Y5500D02*
X36820Y1410D01*
X36780Y6220D02*
Y6671D01*
X26050Y16287D02*
X26303D01*
X25340Y16996D02*
X26050Y16287D01*
X26303D02*
X26380Y16210D01*
X25340Y16996D02*
Y17443D01*
X24010Y18930D02*
Y27900D01*
X30350Y15370D02*
X30450Y15270D01*
Y14100D02*
Y15270D01*
X29820Y14090D02*
X29985D01*
X29720D02*
X29820D01*
Y14100D02*
X29870Y14150D01*
Y14690D01*
X44777Y14297D02*
X44790Y14310D01*
X43790Y14297D02*
X44777D01*
X44170Y7450D02*
X46470D01*
X43805Y7715D02*
X44009D01*
X43935Y7215D02*
X44170Y7450D01*
X49380Y7510D02*
Y7595D01*
X43805Y7215D02*
X43935D01*
X39670Y38529D02*
Y38670D01*
Y38529D02*
X39787Y38412D01*
X39928D01*
X41395Y36945D02*
X41934D01*
X39928Y38412D02*
X41395Y36945D01*
X40140Y36310D02*
X40248D01*
X40383Y36445D01*
X41766D01*
X40442Y35471D02*
X41740D01*
X39766Y36147D02*
X40442Y35471D01*
X39247Y36147D02*
X39766D01*
X45142Y35465D02*
X45180D01*
X45136Y35471D02*
X45142Y35465D01*
X43934Y36467D02*
X45157D01*
X43912Y36945D02*
X45584D01*
X45157Y36467D02*
X45180Y36490D01*
X45584Y36945D02*
X46237Y37598D01*
X45118Y37422D02*
X45200Y37340D01*
X44818Y27592D02*
X44830Y27580D01*
X44027Y27592D02*
X44818D01*
X41013Y27540D02*
X41065Y27592D01*
X41857D01*
X41869Y27605D01*
X44025Y28595D02*
X44970D01*
X44041Y29131D02*
X44956D01*
X44990Y29165D01*
X44970Y28595D02*
X44980Y28585D01*
X44015Y27605D02*
X44027Y27592D01*
X44045Y21525D02*
X44070Y21500D01*
X45150D01*
X31220Y18880D02*
X32630Y20290D01*
X30350Y18880D02*
X31220D01*
X28131Y16661D02*
X29360Y17890D01*
X27304Y16661D02*
X28131D01*
X21770Y18890D02*
X21829Y18831D01*
X26831Y16661D02*
X27304D01*
X26380Y16210D02*
X26831Y16661D01*
X25914Y16730D02*
X26130D01*
X26137Y16737D01*
X28343Y16267D02*
X28765Y15845D01*
X29240Y15370D01*
X29720D01*
X27770Y15866D02*
X29532Y14104D01*
X29706D01*
X27304Y16464D02*
X29664D01*
X27304Y16267D02*
X28343D01*
X29664Y16464D02*
X29690Y16490D01*
X29706Y14104D02*
X29720Y14090D01*
X27312Y15866D02*
X27770D01*
X29142Y13082D02*
Y14175D01*
X27648Y15669D02*
X29142Y14175D01*
X27312Y15669D02*
X27648D01*
X32330Y22160D02*
Y32739D01*
X31319Y33750D02*
X32330Y32739D01*
X31260Y33750D02*
X31319D01*
X34972Y20911D02*
X34981Y20902D01*
Y19877D02*
Y20902D01*
Y19877D02*
X37048Y17810D01*
X34756Y20911D02*
X34972D01*
X37048Y17810D02*
X38389D01*
X34724Y27214D02*
X37368Y24570D01*
X34724Y27214D02*
Y28106D01*
X35149Y34879D02*
X37598Y32430D01*
X38598D01*
X35149Y34879D02*
Y35897D01*
X34924Y35906D02*
X35140D01*
X35149Y35897D01*
X26600Y14920D02*
Y14920D01*
X26815Y16065D02*
X27299D01*
X26370Y15620D02*
X26815Y16065D01*
X25545Y17099D02*
X25914Y16730D01*
X27304Y16858D02*
Y17166D01*
X27520Y17382D01*
Y17490D01*
X26521Y14106D02*
Y14841D01*
X26600Y14920D01*
X23970Y14210D02*
Y14689D01*
X23967Y14692D02*
X23970Y14689D01*
X25529Y14099D02*
X25537Y14106D01*
X31850Y6450D02*
Y6571D01*
X30390Y8031D02*
Y8090D01*
Y8031D02*
X31850Y6571D01*
X30470Y8170D02*
Y12330D01*
X30390Y8090D02*
X30470Y8170D01*
X27649Y14661D02*
X28140Y14170D01*
Y13920D02*
Y14170D01*
X27527Y14700D02*
X27544Y14683D01*
X27581D01*
X27603Y14661D01*
X27649D01*
X27260Y14700D02*
X27527D01*
X28281Y12313D02*
X28299Y12330D01*
X28280Y12313D02*
X28281D01*
X26718Y13875D02*
X28280Y12313D01*
X26718Y13875D02*
Y14019D01*
X28299Y12330D02*
X30470D01*
X26718Y14019D02*
Y14106D01*
Y14019D02*
X26727Y14010D01*
X27210D01*
X27299Y16065D02*
X27304Y16070D01*
X30500Y20330D02*
X31590D01*
X25537Y17443D02*
X25545Y17436D01*
Y17099D02*
Y17436D01*
X30590Y20350D02*
Y20970D01*
X26521Y17443D02*
Y18051D01*
X26350Y18222D02*
X26521Y18051D01*
X26350Y18222D02*
Y18330D01*
X18909Y16403D02*
Y17059D01*
X20650Y18800D02*
X21010D01*
X18909Y17059D02*
X20650Y18800D01*
X25340Y17443D02*
Y18192D01*
X25135Y17451D02*
X25143Y17443D01*
X23962Y14885D02*
X23967Y14889D01*
X23015Y14885D02*
X23962D01*
X23010Y14880D02*
X23015Y14885D01*
X20940Y11280D02*
Y13460D01*
X22952Y15472D02*
X23959D01*
X20940Y13460D02*
X22952Y15472D01*
X34666Y6911D02*
X34674Y6919D01*
X35027D01*
X35200Y7092D01*
X36398Y7305D02*
X37313D01*
X37658Y7650D01*
X38347D01*
X33328Y7108D02*
X34666D01*
X28732Y5207D02*
X31427D01*
X36656Y36300D02*
X37123D01*
X37413Y36590D01*
X38584D01*
X36456Y28500D02*
X38500D01*
X38530Y28470D01*
X33110Y14480D02*
Y21270D01*
X34924Y21297D02*
X34932Y21305D01*
X34924Y21297D02*
X35085D01*
X35315Y21067D01*
X36488Y21305D02*
X37318D01*
X37663Y21650D01*
X38403D01*
X37666Y21116D02*
X37700Y21150D01*
X36496Y21116D02*
X37666D01*
X36398Y14345D02*
X37321D01*
X37626Y14650D01*
X38373D01*
X36728Y14550D02*
X37228Y15050D01*
X37700D02*
X37730Y15080D01*
X37228Y15050D02*
X37700D01*
X36406Y14550D02*
X36728D01*
X36398Y14542D02*
X36406Y14550D01*
X33920Y7926D02*
X34336Y7510D01*
X33920Y7926D02*
Y8760D01*
X34640Y7778D02*
Y8200D01*
Y7778D02*
X34710Y7708D01*
X34658Y7510D02*
X34666Y7502D01*
X34336Y7510D02*
X34658D01*
X34666Y7699D02*
X34701D01*
X34710Y7708D01*
X33110Y21270D02*
Y32589D01*
Y8280D02*
Y14480D01*
X34077Y7313D02*
X34658D01*
X33110Y8280D02*
X34077Y7313D01*
X34666Y7305D02*
X34674Y7297D01*
X34658Y7313D02*
X34666Y7305D01*
X28561Y7505D02*
X28620D01*
X28414Y7358D02*
X28561Y7505D01*
X28414Y7299D02*
Y7358D01*
X28290Y7175D02*
X28414Y7299D01*
X28290Y5749D02*
Y7175D01*
X27748Y5207D02*
X28290Y5749D01*
X33130Y29463D02*
X33135Y29458D01*
Y28415D02*
Y29458D01*
X33533Y29597D02*
X34020D01*
X34582Y28894D02*
X34724D01*
X34573Y28903D02*
X34582Y28894D01*
X34573Y28903D02*
Y29044D01*
X34020Y29597D02*
X34573Y29044D01*
X34298Y28697D02*
X34724D01*
X34065Y28930D02*
X34298Y28697D01*
X34040Y28930D02*
X34065D01*
X33510Y29620D02*
X33533Y29597D01*
X33252Y28508D02*
X34716D01*
X33240Y28520D02*
X33252Y28508D01*
X34716D02*
X34724Y28500D01*
X31319Y34380D02*
X33130Y32569D01*
Y29463D02*
Y32569D01*
X34040Y21750D02*
X34280Y21510D01*
X34748D01*
X33530Y22480D02*
X34200D01*
X34756Y21924D01*
Y21699D02*
Y21924D01*
X33110Y21270D02*
X33145Y21305D01*
X34756D01*
X33490Y15540D02*
X33550Y15480D01*
X34310D01*
X34666Y15124D01*
X34748Y21510D02*
X34756Y21502D01*
X34748Y21691D02*
X34756Y21699D01*
X33135Y28415D02*
X33240Y28520D01*
X34707Y36694D02*
X34924D01*
X34031Y37370D02*
X34707Y36694D01*
X33990Y37370D02*
X34031D01*
X31319Y34380D02*
X33239Y36300D01*
X34924D01*
X34020Y36680D02*
X34128D01*
X34311Y36497D02*
X34924D01*
X34128Y36680D02*
X34311Y36497D01*
X29250Y16930D02*
X29309D01*
X29690Y16549D01*
Y16490D02*
Y16549D01*
X33110Y14480D02*
X33240Y14350D01*
X34238Y14542D02*
X34666D01*
X34020Y14760D02*
X34238Y14542D01*
X34666Y14739D02*
Y15124D01*
Y13951D02*
Y14148D01*
Y14345D01*
X34661Y14350D02*
X34666Y14345D01*
X33240Y14350D02*
X34661D01*
X29250Y13082D02*
X29404Y12928D01*
X29142Y13082D02*
X29250D01*
X29404Y12928D02*
X29822D01*
X30470Y12330D02*
Y12910D01*
X29715Y8135D02*
X29760Y8090D01*
X30450Y12930D02*
Y14100D01*
Y12930D02*
X30470Y12910D01*
X30320Y16490D02*
Y16549D01*
X29960Y16909D02*
X30320Y16549D01*
X29960Y16909D02*
Y19283D01*
X26718Y17212D02*
Y17443D01*
Y17212D02*
X27073Y16858D01*
X27304D01*
X29960Y19283D02*
Y20350D01*
X27535Y16858D02*
X29960Y19283D01*
X27304Y16858D02*
X27535D01*
X30320Y15400D02*
Y16490D01*
Y15400D02*
X30350Y15370D01*
X29822Y12928D02*
X29840Y12910D01*
X27304Y15677D02*
X27312Y15669D01*
X27304Y15873D02*
X27312Y15866D01*
X29900Y20410D02*
Y29120D01*
Y20410D02*
X29960Y20350D01*
X32630Y20290D02*
Y20320D01*
X32330Y20620D02*
X32630Y20320D01*
X42715Y33700D02*
X42790D01*
X41970Y34445D02*
X42715Y33700D01*
X41766Y34945D02*
X42315D01*
X44850Y32410D02*
X45817D01*
X42315Y34945D02*
X44850Y32410D01*
X40925Y34945D02*
X41766D01*
X40310Y27320D02*
Y28150D01*
X40739Y28579D02*
X41843D01*
X40310Y28150D02*
X40739Y28579D01*
X40969Y21551D02*
X41873D01*
X40930Y21590D02*
X40969Y21551D01*
X45112Y20522D02*
X45130Y20540D01*
X44047Y20522D02*
X45112D01*
X43800Y13262D02*
X44798D01*
X44820Y13240D01*
X43778Y13285D02*
X43800Y13262D01*
X40655Y13285D02*
X41632D01*
X39830Y14110D02*
X40655Y13285D01*
X40846Y5595D02*
X40886Y5635D01*
X40910D01*
X40964Y5689D02*
X41633D01*
X40910Y5635D02*
X40964Y5689D01*
X40942Y6794D02*
X40998Y6737D01*
X41637D01*
X46117Y1730D02*
X46527Y1321D01*
X41832Y4542D02*
X44644Y1730D01*
X46117D01*
X41832Y4542D02*
Y4652D01*
X41659Y4715D02*
X41769D01*
X41832Y4652D01*
X23959Y15472D02*
X23967Y15480D01*
X22570Y9490D02*
X23570D01*
Y10490D02*
X24840D01*
X24940Y10590D01*
X20940Y10650D02*
X21087Y10503D01*
X22557D01*
X22570Y10490D01*
X36540Y6911D02*
X36780Y6671D01*
X36398Y6911D02*
X36540D01*
X41637Y6737D02*
X41659Y6715D01*
X36398Y7108D02*
X37672D01*
X36390Y7297D02*
X36398Y7305D01*
X36069Y7297D02*
X36390D01*
X35830Y7058D02*
X36069Y7297D01*
X35830Y6220D02*
Y7058D01*
X36750Y7510D02*
X37160Y7920D01*
X36406Y7510D02*
X36750D01*
X36398Y7948D02*
X36980Y8530D01*
X41633Y5689D02*
X41659Y5715D01*
X36398Y7502D02*
X36406Y7510D01*
X42557Y8445D02*
X46022D01*
X41826Y7715D02*
X42557Y8445D01*
X46022D02*
X46727Y9149D01*
X41414Y7241D02*
X41633D01*
X39390Y9265D02*
X41414Y7241D01*
X36398Y7699D02*
Y7948D01*
X46690Y1060D02*
Y1145D01*
X46527Y1308D02*
X46690Y1145D01*
X46527Y1308D02*
Y1321D01*
X39320Y5382D02*
X39487Y5215D01*
X41659D01*
X39390Y9477D02*
Y9560D01*
Y9265D02*
Y9477D01*
X41633Y7241D02*
X41659Y7215D01*
X46890Y9325D02*
Y9410D01*
X46727Y9162D02*
X46890Y9325D01*
X46727Y9149D02*
Y9162D01*
X41659Y7715D02*
X41826D01*
X43778Y12785D02*
X43945D01*
X41632Y11996D02*
Y12285D01*
Y11996D02*
X43056Y10572D01*
Y10261D02*
Y10572D01*
Y10261D02*
X43102Y10215D01*
X39410Y12460D02*
X41140D01*
X41465Y12785D01*
X41632D01*
X36398Y14148D02*
X37662D01*
X41609Y14307D02*
X41632Y14285D01*
X40733Y14307D02*
X41609D01*
X40710Y14330D02*
X40733Y14307D01*
X36970Y13110D02*
Y13596D01*
X36615Y13951D02*
X36970Y13596D01*
X36398Y13951D02*
X36615D01*
X43778Y14285D02*
X43790Y14297D01*
X36398Y14739D02*
Y15478D01*
X45327Y3860D02*
X46470D01*
X43972Y5215D02*
X45327Y3860D01*
X43805Y5215D02*
X43972D01*
X43805Y4715D02*
X43972D01*
X49430Y3775D02*
Y3860D01*
X49540Y11535D02*
Y11620D01*
X49377Y11372D02*
X49540Y11535D01*
X49377Y11359D02*
Y11372D01*
X48837Y10820D02*
X49377Y11359D01*
X44045Y19525D02*
X44212D01*
X45737Y18000D01*
X48837D01*
X49510Y18685D02*
Y18770D01*
X49347Y18522D02*
X49510Y18685D01*
X49347Y18509D02*
Y18522D01*
X48837Y18000D02*
X49347Y18509D01*
X43778Y15285D02*
X43945D01*
X44260Y15600D01*
X49127D01*
X49770Y14860D02*
Y14945D01*
X49607Y15108D02*
X49770Y14945D01*
X49607Y15108D02*
Y15121D01*
X49127Y15600D02*
X49607Y15121D01*
X43778Y14785D02*
X45978D01*
X46275Y15081D01*
X46570D01*
X49211Y33573D02*
X49287Y33649D01*
Y33662D01*
X43912Y34445D02*
X44079D01*
X49287Y33662D02*
X49450Y33825D01*
X44079Y34445D02*
X44951Y33573D01*
X49450Y33825D02*
Y33910D01*
X44951Y33573D02*
X49211D01*
X44045Y22525D02*
X44155D01*
X44218Y22588D01*
Y22698D01*
X44570Y23050D01*
X45954Y23230D02*
X46412Y23688D01*
X42772Y23230D02*
X45954D01*
X44570Y23050D02*
X49357D01*
X42066Y22525D02*
X42772Y23230D01*
X46412Y23785D02*
X46472Y23845D01*
X46412Y23688D02*
Y23785D01*
X49610Y22700D02*
Y22785D01*
X49447Y22948D02*
X49610Y22785D01*
X49447Y22948D02*
Y22961D01*
X49357Y23050D02*
X49447Y22961D01*
X44015Y26605D02*
X44182D01*
X45247Y25540D01*
X48877D01*
X49550Y26225D02*
Y26310D01*
X49387Y26062D02*
X49550Y26225D01*
X49387Y26049D02*
Y26062D01*
X48877Y25540D02*
X49387Y26049D01*
X41899Y22525D02*
X42066D01*
X41899Y19525D02*
X42066D01*
X43871Y17720D01*
X46947D01*
X47320Y17250D02*
Y17335D01*
X47157Y17498D02*
X47320Y17335D01*
X47157Y17498D02*
Y17511D01*
X46947Y17720D02*
X47157Y17511D01*
X39362Y19660D02*
X41367D01*
X41732Y20025D01*
X41899D01*
X41632Y15285D02*
X41799D01*
X42748Y16233D01*
Y16548D01*
X42790Y16590D01*
X39410Y16657D02*
Y16776D01*
Y16480D02*
Y16657D01*
X41105Y14785D02*
X41632D01*
X39410Y16480D02*
X41105Y14785D01*
X41873Y21551D02*
X41899Y21525D01*
X36705Y20911D02*
X37106Y20510D01*
X36488Y20911D02*
X36705D01*
X36488Y21108D02*
X36496Y21116D01*
X36818Y21510D02*
X37278Y21970D01*
X36496Y21510D02*
X36818D01*
X37278Y21970D02*
X37390D01*
X39698Y22798D02*
X39698D01*
X40471Y22025D02*
X41899D01*
X39698Y22798D02*
X40471Y22025D01*
X39532Y22965D02*
Y23260D01*
Y22965D02*
X39698Y22798D01*
X34658Y6919D02*
X34666Y6911D01*
X34674Y7297D02*
X34995D01*
X35200Y7092D01*
Y6220D02*
Y7092D01*
X35840Y13210D02*
Y14108D01*
X36069Y14337D01*
X36390D01*
X36398Y14345D01*
X35210Y13210D02*
Y14240D01*
X35105Y14345D02*
X35210Y14240D01*
X34666Y14345D02*
X35105D01*
X36480Y21297D02*
X36488Y21305D01*
X36159Y21297D02*
X36480D01*
X35945Y21083D02*
X36159Y21297D01*
X35945Y20180D02*
Y21083D01*
X35315Y20180D02*
Y21067D01*
X34756Y20911D02*
Y21108D01*
X32330Y20620D02*
Y22160D01*
X31590Y20330D02*
X31630Y20290D01*
X31700Y20360D02*
Y22160D01*
X31630Y20290D02*
X31700Y20360D01*
X34924Y36300D02*
X34932Y36292D01*
X35253D01*
X35505Y36040D01*
Y35160D02*
Y36040D01*
X34724Y28500D02*
X34940D01*
X35375Y28065D01*
Y27400D02*
Y28065D01*
X36005Y27400D02*
Y28370D01*
X36127Y28492D01*
X36448D01*
X36456Y28500D01*
X36135Y35160D02*
X36251Y35276D01*
Y36276D01*
X36488Y21502D02*
X36496Y21510D01*
X36550Y21761D02*
Y22380D01*
X36488Y21699D02*
X36550Y21761D01*
X44045Y20525D02*
X44047Y20522D01*
X27670Y7520D02*
X27748Y7442D01*
Y5994D02*
Y7442D01*
X44045Y22025D02*
X45937D01*
X46245Y22333D01*
X44045Y20025D02*
X44987D01*
X46285Y18727D01*
X46580D01*
X46245Y22333D02*
X46540D01*
X43042Y24625D02*
Y25818D01*
X41869Y26605D02*
X42255D01*
X43042Y25818D01*
X41843Y28579D02*
X41869Y28605D01*
X39553Y26780D02*
X41402D01*
X41727Y27105D02*
X41869D01*
X41402Y26780D02*
X41727Y27105D01*
X37160Y27250D02*
X37520D01*
X36456Y27954D02*
X37160Y27250D01*
X37117Y28303D02*
X37480Y27940D01*
X36456Y28303D02*
X37117D01*
X36786Y28705D02*
X37451Y29370D01*
X37520D01*
X36410Y28903D02*
Y29550D01*
X36640Y29780D01*
X36410Y28903D02*
X36419Y28894D01*
X36456D01*
Y28697D02*
X36464Y28705D01*
X36786D01*
X39652Y30348D02*
X40895Y29105D01*
X41869D01*
X36456Y27954D02*
Y28106D01*
X34724Y28303D02*
Y28500D01*
X31260Y34380D02*
X31319D01*
X44015Y28605D02*
X44025Y28595D01*
X44015Y29105D02*
X44041Y29131D01*
X44015Y29605D02*
X48365D01*
X48765Y29205D01*
X36274Y36300D02*
X36656D01*
X36251Y36276D02*
X36274Y36300D01*
X44015Y26605D02*
X44019Y26601D01*
X45823Y26187D02*
X46680D01*
X44905Y27105D02*
X45823Y26187D01*
X44015Y27105D02*
X44905D01*
X48765Y29205D02*
X49552D01*
X41869Y29605D02*
Y29991D01*
X42800Y30922D01*
Y31330D01*
X39652Y30348D02*
Y31310D01*
X37319Y35460D02*
X37430D01*
X36656Y35906D02*
X36873D01*
X37319Y35460D01*
X41740Y35471D02*
X41766Y35445D01*
X36656Y36103D02*
X37463D01*
X36656Y36497D02*
X37047D01*
X37303Y36893D02*
X37380Y36970D01*
X37047Y36497D02*
X37303Y36753D01*
Y36893D01*
X36760Y37281D02*
Y37540D01*
X36670Y37191D02*
X36760Y37281D01*
X36656Y36694D02*
X36665Y36703D01*
X36670D01*
Y37191D01*
X34924Y35906D02*
Y36103D01*
X43912Y35445D02*
X43938Y35471D01*
X45136D01*
X43912Y36445D02*
X43934Y36467D01*
X41766Y34445D02*
X41970D01*
X43912D02*
X43938Y34419D01*
X43912Y34945D02*
X45284D01*
X46247Y33982D01*
X46542D01*
X43934Y37422D02*
X45118D01*
X43912Y37445D02*
X43934Y37422D01*
X45220Y38080D02*
X45240Y38060D01*
X41934Y36945D02*
X43069Y38080D01*
X45220D01*
X28402Y37205D02*
X29844D01*
X29884Y37245D01*
X28497Y34525D02*
X28522Y34500D01*
X29834D02*
X29944Y34390D01*
X28522Y34500D02*
X29834D01*
X39671Y34040D02*
X40020D01*
X40925Y34945D01*
X46237Y37598D02*
X46532D01*
X42929Y38440D02*
X46091D01*
X46302Y38651D02*
Y39255D01*
X46091Y38440D02*
X46302Y38651D01*
X41766Y37445D02*
X41934D01*
X42929Y38440D01*
X45817Y32410D02*
X45832Y32395D01*
G54D17*
X46470Y6387D02*
D03*
Y7450D02*
D03*
Y4923D02*
D03*
Y3860D02*
D03*
X46580Y18727D02*
D03*
Y19790D02*
D03*
X46540Y22333D02*
D03*
Y21270D02*
D03*
X46542Y35045D02*
D03*
Y33982D02*
D03*
X46532Y36535D02*
D03*
Y37598D02*
D03*
X46570Y15081D02*
D03*
Y14018D02*
D03*
X46620Y11317D02*
D03*
Y12380D02*
D03*
X46670Y30011D02*
D03*
Y28949D02*
D03*
X46680Y26187D02*
D03*
Y27250D02*
D03*
G54D18*
X38468Y23260D02*
D03*
X39532D02*
D03*
X38298Y19660D02*
D03*
X39362D02*
D03*
X38327Y9560D02*
D03*
X39390D02*
D03*
X39671Y34040D02*
D03*
X38609D02*
D03*
X39620Y38790D02*
D03*
X38557D02*
D03*
X39410Y12460D02*
D03*
X38347D02*
D03*
X39410Y16776D02*
D03*
X38347D02*
D03*
X39553Y26780D02*
D03*
X38490D02*
D03*
X39652Y31310D02*
D03*
X38589D02*
D03*
X39320Y5460D02*
D03*
X38257D02*
D03*
G54D19*
X29900Y29750D02*
D03*
Y29120D02*
D03*
X24882Y34780D02*
D03*
Y35410D02*
D03*
X29944Y33760D02*
D03*
Y34390D02*
D03*
X24940Y10590D02*
D03*
Y11220D02*
D03*
X28620Y8135D02*
D03*
Y7505D02*
D03*
X20940Y11280D02*
D03*
Y10650D02*
D03*
X27670Y8150D02*
D03*
Y7520D02*
D03*
X21470Y31700D02*
D03*
Y31070D02*
D03*
X22290Y4740D02*
D03*
Y4110D02*
D03*
X24842Y30905D02*
D03*
Y30275D02*
D03*
X31260Y34380D02*
D03*
Y33750D02*
D03*
X29884Y37245D02*
D03*
Y36615D02*
D03*
G54D20*
X26362Y36025D02*
D03*
Y35525D02*
D03*
Y35025D02*
D03*
Y34525D02*
D03*
X28497D02*
D03*
Y35025D02*
D03*
Y35525D02*
D03*
Y36025D02*
D03*
G54D21*
X27772Y37205D02*
D03*
X28402D02*
D03*
X36135Y35160D02*
D03*
X35505D02*
D03*
X36005Y27400D02*
D03*
X35375D02*
D03*
X35945Y20180D02*
D03*
X35315D02*
D03*
X29690Y16490D02*
D03*
X30320D02*
D03*
X29720Y15370D02*
D03*
X30350D02*
D03*
X29820Y14100D02*
D03*
X30450D02*
D03*
X29840Y12910D02*
D03*
X30470D02*
D03*
X35840Y13210D02*
D03*
X35210D02*
D03*
X35830Y6220D02*
D03*
X35200D02*
D03*
X29760Y8090D02*
D03*
X30390D02*
D03*
X30590Y20350D02*
D03*
X29960D02*
D03*
X31700Y22160D02*
D03*
X32330D02*
D03*
X21140Y18890D02*
D03*
X21770D02*
D03*
G54D22*
X26718Y17443D02*
D03*
X26521D02*
D03*
X26324D02*
D03*
X26127D02*
D03*
X25931D02*
D03*
X25734D02*
D03*
X25537D02*
D03*
X25340D02*
D03*
X25143D02*
D03*
X24946D02*
D03*
X24750D02*
D03*
X24553D02*
D03*
Y14106D02*
D03*
X24750D02*
D03*
X24946D02*
D03*
X25143D02*
D03*
X25340D02*
D03*
X25537D02*
D03*
X25734D02*
D03*
X25931D02*
D03*
X26127D02*
D03*
X26324D02*
D03*
X26521D02*
D03*
X26718D02*
D03*
G54D23*
X23967Y16858D02*
D03*
Y16661D02*
D03*
Y16464D02*
D03*
Y16267D02*
D03*
Y16070D02*
D03*
Y15873D02*
D03*
Y15677D02*
D03*
Y15480D02*
D03*
Y15283D02*
D03*
Y15086D02*
D03*
Y14889D02*
D03*
Y14692D02*
D03*
X27304D02*
D03*
Y14889D02*
D03*
Y15086D02*
D03*
Y15283D02*
D03*
Y15480D02*
D03*
Y15677D02*
D03*
Y15873D02*
D03*
Y16070D02*
D03*
Y16267D02*
D03*
Y16464D02*
D03*
Y16661D02*
D03*
Y16858D02*
D03*
G54D24*
X41899Y22525D02*
D03*
Y22025D02*
D03*
Y21525D02*
D03*
Y21025D02*
D03*
Y20525D02*
D03*
Y20025D02*
D03*
Y19525D02*
D03*
X44045Y22525D02*
D03*
Y22025D02*
D03*
Y21525D02*
D03*
Y21025D02*
D03*
Y20525D02*
D03*
Y20025D02*
D03*
Y19525D02*
D03*
X41869Y29605D02*
D03*
Y29105D02*
D03*
Y28605D02*
D03*
Y28105D02*
D03*
Y27605D02*
D03*
Y27105D02*
D03*
Y26605D02*
D03*
X44015Y29605D02*
D03*
Y29105D02*
D03*
Y28605D02*
D03*
Y28105D02*
D03*
Y27605D02*
D03*
Y27105D02*
D03*
Y26605D02*
D03*
X41632Y15285D02*
D03*
Y14785D02*
D03*
Y14285D02*
D03*
Y13785D02*
D03*
Y13285D02*
D03*
Y12785D02*
D03*
Y12285D02*
D03*
X43778Y15285D02*
D03*
Y14785D02*
D03*
Y14285D02*
D03*
Y13785D02*
D03*
Y13285D02*
D03*
Y12785D02*
D03*
Y12285D02*
D03*
X43912Y34445D02*
D03*
Y34945D02*
D03*
Y35445D02*
D03*
Y35945D02*
D03*
Y36445D02*
D03*
Y36945D02*
D03*
Y37445D02*
D03*
X41766Y34445D02*
D03*
Y34945D02*
D03*
Y35445D02*
D03*
Y35945D02*
D03*
Y36445D02*
D03*
Y36945D02*
D03*
Y37445D02*
D03*
X43805Y4715D02*
D03*
Y5215D02*
D03*
Y5715D02*
D03*
Y6215D02*
D03*
Y6715D02*
D03*
Y7215D02*
D03*
Y7715D02*
D03*
X41659Y4715D02*
D03*
Y5215D02*
D03*
Y5715D02*
D03*
Y6215D02*
D03*
Y6715D02*
D03*
Y7215D02*
D03*
Y7715D02*
D03*
G54D25*
X19510Y4733D02*
D03*
Y1820D02*
D03*
X18530Y32820D02*
D03*
Y29907D02*
D03*
G54D26*
X26016Y30866D02*
D03*
Y29960D02*
D03*
Y29054D02*
D03*
G54D27*
X28693Y29960D02*
D03*
G54D28*
X36656Y35906D02*
D03*
Y36103D02*
D03*
Y36300D02*
D03*
Y36497D02*
D03*
Y36694D02*
D03*
X34924D02*
D03*
Y36497D02*
D03*
Y36300D02*
D03*
Y36103D02*
D03*
Y35906D02*
D03*
X36398Y13951D02*
D03*
Y14148D02*
D03*
Y14345D02*
D03*
Y14542D02*
D03*
Y14739D02*
D03*
X34666D02*
D03*
Y14542D02*
D03*
Y14345D02*
D03*
Y14148D02*
D03*
Y13951D02*
D03*
X36456Y28106D02*
D03*
Y28303D02*
D03*
Y28500D02*
D03*
Y28697D02*
D03*
Y28894D02*
D03*
X34724D02*
D03*
Y28697D02*
D03*
Y28500D02*
D03*
Y28303D02*
D03*
Y28106D02*
D03*
X36398Y6911D02*
D03*
Y7108D02*
D03*
Y7305D02*
D03*
Y7502D02*
D03*
Y7699D02*
D03*
X34666D02*
D03*
Y7502D02*
D03*
Y7305D02*
D03*
Y7108D02*
D03*
Y6911D02*
D03*
X36488Y20911D02*
D03*
Y21108D02*
D03*
Y21305D02*
D03*
Y21502D02*
D03*
Y21699D02*
D03*
X34756D02*
D03*
Y21502D02*
D03*
Y21305D02*
D03*
Y21108D02*
D03*
Y20911D02*
D03*
G54D51*
X46557Y37623D02*
X48593D01*
X46532Y37598D02*
X46557Y37623D01*
X48593D02*
X48802Y37832D01*
X38389Y18180D02*
Y20080D01*
X38350Y18160D02*
Y18550D01*
X38394Y9627D02*
Y10051D01*
X38347Y11300D02*
Y12460D01*
X38320Y11246D02*
Y11300D01*
X38394Y10051D02*
X38440Y10098D01*
Y11126D01*
X38403Y23260D02*
Y24300D01*
X38320Y11246D02*
X38440Y11126D01*
X38327Y9560D02*
X38394Y9627D01*
X38403Y21650D02*
Y23260D01*
X38347Y7650D02*
Y9560D01*
X38584Y36590D02*
Y38763D01*
X38530Y28470D02*
Y31251D01*
X38389Y16610D02*
Y17810D01*
X51240Y2421D02*
Y5260D01*
X52200Y6220D02*
X55433D01*
X51240Y5260D02*
X52200Y6220D01*
X55433D02*
X65767Y16555D01*
X49879Y1060D02*
X51240Y2421D01*
X59700Y14580D02*
X61230D01*
X49930Y4810D02*
X59700Y14580D01*
X61230D02*
X63205Y16555D01*
X63255D02*
X63380Y16680D01*
X63205Y16555D02*
X63255D01*
X49930Y3860D02*
Y4810D01*
X51305Y34998D02*
X52452D01*
X60580Y26320D02*
X60600Y26300D01*
X52452Y34998D02*
X60580Y26870D01*
Y26320D02*
Y26870D01*
X49472Y36832D02*
X51305Y34998D01*
X50421Y34618D02*
X51189Y33850D01*
X52070D02*
X60600Y25320D01*
X51189Y33850D02*
X52070D01*
X60600Y25300D02*
Y25320D01*
X57800Y25300D02*
X60600D01*
X51330Y36072D02*
X51762Y35640D01*
X46802Y39255D02*
X51154D01*
X51330Y39079D01*
Y36072D02*
Y39079D01*
X54911Y35640D02*
X63400Y27151D01*
X51762Y35640D02*
X54911D01*
X50212Y33888D02*
X57320Y26780D01*
X49972Y33888D02*
X50212D01*
X49950Y33910D02*
X49972Y33888D01*
X57320Y26780D02*
X57320D01*
X63400Y26300D02*
Y27151D01*
X66055Y16555D02*
X66200Y16700D01*
X65767Y16555D02*
X66055D01*
X47190Y1060D02*
X49879D01*
X57750Y17600D02*
X60030Y19880D01*
X60580D02*
X60600Y19900D01*
X60030Y19880D02*
X60580D01*
X56976Y17600D02*
X57750D01*
X50530Y7530D02*
X59700Y16700D01*
X60600D01*
X56800Y17424D02*
X56976Y17600D01*
X56800Y16500D02*
Y17424D01*
X51920Y11620D02*
X56800Y16500D01*
X50040Y11620D02*
X51920D01*
X53190Y21550D02*
X64550D01*
X66200Y19900D02*
X66200D01*
X66055Y20045D02*
X66200Y19900D01*
X66055Y20045D02*
Y20045D01*
X64550Y21550D02*
X66055Y20045D01*
X66200Y18900D02*
X67349D01*
X67525Y19076D01*
Y22100D01*
X54127Y19900D02*
X55000D01*
X50270Y14860D02*
X51703D01*
X56743Y19900D02*
X57800D01*
X51703Y14860D02*
X56743Y19900D01*
X57800Y22100D02*
X60600D01*
X55000D02*
X57800D01*
X60600D02*
X63400D01*
X66200D02*
X67525D01*
X63400D02*
X66200D01*
X66780Y25300D02*
X67525Y24555D01*
Y22100D02*
Y24555D01*
X54420Y23680D02*
X55000Y23100D01*
X57250Y23650D02*
X57800Y23100D01*
X55650Y23650D02*
X57250D01*
X49552Y28705D02*
X50595D01*
X55650Y23650D01*
X55000Y25300D02*
X57800D01*
X60600D02*
X63400D01*
X66200D01*
X66780D01*
X57320Y26780D02*
X57800Y26300D01*
X55000D02*
Y26740D01*
X44922Y6215D02*
X44922Y6215D01*
X45370D01*
X49874Y7530D02*
X50530D01*
X47390Y9410D02*
X50510D01*
X57900Y16800D01*
X38389Y17810D02*
Y18160D01*
X45570Y13785D02*
X46041D01*
X43778D02*
X45570D01*
X45370Y6215D02*
X46003D01*
X46175Y6387D02*
X46470D01*
X46003Y6215D02*
X46175Y6387D01*
X43805Y6215D02*
X44922D01*
X38530Y37050D02*
X38550Y37070D01*
X38530Y37040D02*
Y37050D01*
X38557Y38790D02*
X38584Y38763D01*
X46237Y36535D02*
X46532D01*
X45647Y35945D02*
X46237Y36535D01*
X43912Y35945D02*
X45647D01*
X46532Y35055D02*
Y36535D01*
X41125Y28107D02*
X41867D01*
X41123Y28110D02*
X41125Y28107D01*
X41867D02*
X41869Y28105D01*
X45662Y21000D02*
X45975D01*
X45349D02*
X45662D01*
X38403Y24570D02*
Y26398D01*
X38598Y32430D02*
Y34030D01*
Y31320D02*
Y32430D01*
X38347Y5845D02*
Y7650D01*
X38584Y34065D02*
Y36590D01*
X38530Y26820D02*
Y28470D01*
X38403Y20115D02*
Y21650D01*
X38373Y14650D02*
Y16574D01*
Y12486D02*
Y14650D01*
X38589Y31310D02*
X38598Y31320D01*
X38530Y31251D02*
X38589Y31310D01*
X38490Y26780D02*
X38530Y26820D01*
X40895Y35945D02*
X41766D01*
X41315Y21025D02*
X41899D01*
X40905Y6215D02*
X41659D01*
X39320Y5165D02*
X43425Y1060D01*
X46190D01*
X22570Y11490D02*
X23570D01*
X38257Y5755D02*
X38347Y5845D01*
X38257Y5460D02*
Y5755D01*
X38230Y5050D02*
X38239Y5059D01*
X46470Y4923D02*
Y6387D01*
X39320Y5165D02*
Y5382D01*
X39457Y9410D02*
X46390D01*
X39390Y9477D02*
X39457Y9410D01*
X38347Y12460D02*
X38373Y12486D01*
X46470Y3860D02*
X48930D01*
X48850Y7480D02*
X48880Y7510D01*
X46500Y7480D02*
X48850D01*
X46470Y7450D02*
X46500Y7480D01*
X46620Y11317D02*
X48737D01*
X49040Y11620D01*
X48988Y18749D02*
X49010Y18770D01*
X46602Y18749D02*
X48988D01*
X46580Y18727D02*
X46602Y18749D01*
X50817Y16590D02*
X54127Y19900D01*
X43290Y16590D02*
X50817D01*
X46570Y15081D02*
X49049D01*
X49270Y14860D01*
X46542Y33982D02*
X48878D01*
X48950Y33910D01*
X52040Y22700D02*
X53190Y21550D01*
X50110Y22700D02*
X52040D01*
X46540Y22333D02*
X48743D01*
X49110Y22700D01*
X50050Y26310D02*
X52680Y23680D01*
X54420D01*
X46680Y26187D02*
X48927D01*
X49050Y26310D01*
X46041Y13785D02*
X46275Y14018D01*
X46570D01*
Y12430D02*
Y14018D01*
Y12430D02*
X46620Y12380D01*
X41360Y10215D02*
X42602D01*
X39410Y12165D02*
X41360Y10215D01*
X39410Y12165D02*
Y12460D01*
X41476Y17250D02*
X46820D01*
X39362Y19365D02*
X41476Y17250D01*
X39362Y19365D02*
Y19660D01*
X39410Y16657D02*
X39476Y16590D01*
X42290D01*
X38379Y20090D02*
X38389Y20080D01*
X38379Y20090D02*
X38403Y20115D01*
Y26398D02*
X38490Y26485D01*
Y26780D01*
X39821Y23845D02*
X45972D01*
X39586Y23610D02*
X39821Y23845D01*
X39586Y23315D02*
Y23610D01*
X45329Y21020D02*
X45349Y21000D01*
X44931Y21020D02*
X45329D01*
X44911Y21000D02*
X44931Y21020D01*
X44180Y21000D02*
X44911D01*
X44155Y21025D02*
X44180Y21000D01*
X45975D02*
X46178Y21203D01*
X44045Y21025D02*
X44155D01*
X46178Y21203D02*
X46473D01*
X46540Y21270D01*
Y19830D02*
Y21270D01*
Y19830D02*
X46580Y19790D01*
X39553Y26485D02*
Y26780D01*
Y26485D02*
X41413Y24625D01*
X42542D01*
X38598Y34030D02*
X38609Y34040D01*
X38584Y34065D02*
X38609Y34040D01*
X46670Y27260D02*
Y28949D01*
Y27260D02*
X46680Y27250D01*
X44015Y28105D02*
X45531D01*
X46375Y28949D01*
X46670D01*
X49472Y37832D02*
X49472Y37832D01*
X48802Y37832D02*
X49472D01*
X48950Y33910D02*
X49007Y33853D01*
X46670Y30011D02*
X49245D01*
X49552Y29705D01*
X46832Y32395D02*
X49345D01*
X55000Y26740D01*
X39652Y31310D02*
X39671Y31330D01*
X42300D01*
X38373Y16574D02*
X38398Y16600D01*
X38389Y16610D02*
X38398Y16600D01*
G54D52*
X25140Y29030D02*
X25170Y29000D01*
X25730D01*
X25961D01*
X25527Y36827D02*
X26750Y38050D01*
X25217Y36827D02*
X25527D01*
X27772Y37205D02*
Y39944D01*
X27165Y40551D02*
X27772Y39944D01*
X21470Y31070D02*
X23690D01*
X21411D02*
X21470D01*
X20247Y29907D02*
X21411Y31070D01*
X18530Y29907D02*
X20247D01*
X29922Y33738D02*
X29944Y33760D01*
X29922Y29772D02*
Y33738D01*
X29900Y29750D02*
X29922Y29772D01*
X28693Y29960D02*
X28703Y29970D01*
X29621D02*
X29841Y29750D01*
X28703Y29970D02*
X29621D01*
X26016Y29960D02*
X28693D01*
X40963Y13717D02*
Y13790D01*
X25155Y35510D02*
X26347D01*
X25152Y35507D02*
X25155Y35510D01*
X24979Y35507D02*
X25152D01*
X24785Y35313D02*
X24979Y35507D01*
X26347Y35510D02*
X26362Y35525D01*
X22918Y35313D02*
X24785D01*
X20387Y32782D02*
X22918Y35313D01*
X20387Y32782D02*
X21344Y31826D01*
X21470Y31700D01*
X21314Y31797D02*
Y31856D01*
X41629Y13787D02*
X41632Y13785D01*
X40963Y13790D02*
X40965Y13787D01*
X41629D01*
X41892Y21032D02*
X41899Y21025D01*
X46532Y35055D02*
X46542Y35045D01*
X27299Y33760D02*
X29944D01*
X26534Y34525D02*
X27299Y33760D01*
X26362Y34525D02*
X26534D01*
X26704Y34694D01*
X26714D01*
X27772Y35752D01*
Y37205D01*
X26016Y29054D02*
X26049Y29087D01*
X29867D01*
X29900Y29120D01*
X29841Y29750D02*
X29900D01*
X24842Y30275D02*
X25662D01*
X25977Y29960D01*
X26016D01*
X24827Y30260D02*
X24842Y30275D01*
X24500Y30260D02*
X24827D01*
X23690Y31070D02*
X24500Y30260D01*
X28849Y35194D02*
X29880Y36225D01*
Y36611D01*
X29884Y36615D01*
X28670Y35025D02*
X30556D01*
X28497D02*
X28670D01*
X28839Y35194D01*
X28849D01*
X31201Y34380D02*
X31260D01*
X30556Y35025D02*
X31201Y34380D01*
X29944Y33760D02*
X29950Y33755D01*
X31255D01*
X31260Y33750D01*
X24882Y34780D02*
X25486D01*
X25741Y34525D01*
X26362D01*
X20350Y32820D02*
X21314Y31856D01*
X21470Y31700D02*
X21560Y31790D01*
X23898D02*
X24783Y30905D01*
X21560Y31790D02*
X23898D01*
X18530Y32820D02*
X20350D01*
X24842Y30905D02*
X24862Y30885D01*
X25996D01*
X26016Y30866D01*
X24783Y30905D02*
X24842D01*
G54D53*
X1250Y14850D02*
X1300Y14800D01*
X1250Y14850D02*
Y21750D01*
X3686Y2396D02*
Y6333D01*
Y11614D01*
X1300Y8700D02*
Y12200D01*
Y14000D02*
Y14800D01*
Y14000D02*
X3686Y11614D01*
X3300Y38547D02*
Y40049D01*
X28732Y5207D02*
X29607Y4332D01*
X30418D01*
X30610Y4140D01*
X25870D02*
X27665D01*
X28732Y5207D01*
X32910Y1020D02*
X33820D01*
X30721Y3209D02*
X32910Y1020D01*
X30721Y3209D02*
Y4029D01*
X30610Y4140D02*
X30721Y4029D01*
X22290Y4110D02*
X22293Y4113D01*
X25843D01*
X25870Y4140D01*
X19510Y2065D02*
Y2233D01*
Y1820D02*
Y2065D01*
Y2233D02*
X19723Y2447D01*
X20574D01*
X22237Y4110D01*
X22290D01*
X19510Y4733D02*
X22231D01*
X22237Y4740D01*
X22290D01*
X14620Y27790D02*
X18317Y31487D01*
Y32607D01*
X18530Y32820D01*
X14620Y25790D02*
X18110Y29280D01*
X18317D01*
X18530Y29493D01*
Y29907D01*
X10371Y2873D02*
X12231Y4733D01*
X19510D01*
X7221Y2873D02*
X9529D01*
X10124Y2279D01*
X19297D01*
X19510Y2065D01*
X5340Y40095D02*
Y40120D01*
Y40095D02*
X7620Y37815D01*
Y37790D02*
Y37815D01*
X3306Y40054D02*
Y40148D01*
X3300Y40049D02*
X3306Y40054D01*
X3300Y34610D02*
Y38547D01*
Y23783D02*
Y27720D01*
X5228Y21740D02*
X14260D01*
X15410Y20590D01*
X3686Y17160D02*
Y21314D01*
X3260Y21740D02*
X3686Y21314D01*
X3283Y23783D02*
X3300D01*
X1250Y21750D02*
X3283Y23783D01*
X3686Y13223D02*
Y17160D01*
G54D54*
X36820Y1020D02*
D03*
X35820D02*
D03*
X34820D02*
D03*
X33820D02*
D03*
X29165Y40551D02*
D03*
X28165D02*
D03*
X27165D02*
D03*
X26165D02*
D03*
X25165D02*
D03*
X24165D02*
D03*
X1300Y8700D02*
D03*
X22570Y11490D02*
D03*
X23570D02*
D03*
X22570Y10490D02*
D03*
X23570D02*
D03*
X22570Y9490D02*
D03*
X23570D02*
D03*
X55000Y15700D02*
D03*
Y16700D02*
D03*
X57800Y15700D02*
D03*
Y16700D02*
D03*
X60600Y15700D02*
D03*
Y16700D02*
D03*
X63400Y15700D02*
D03*
Y16700D02*
D03*
X66200Y15700D02*
D03*
Y16700D02*
D03*
Y18900D02*
D03*
Y19900D02*
D03*
X63400Y18900D02*
D03*
Y19900D02*
D03*
X60600Y18900D02*
D03*
Y19900D02*
D03*
X57800Y18900D02*
D03*
Y19900D02*
D03*
X55000Y18900D02*
D03*
Y19900D02*
D03*
Y22100D02*
D03*
Y23100D02*
D03*
X57800Y22100D02*
D03*
Y23100D02*
D03*
X60600Y22100D02*
D03*
Y23100D02*
D03*
X63400Y22100D02*
D03*
Y23100D02*
D03*
X66200Y25300D02*
D03*
Y26300D02*
D03*
X63400Y25300D02*
D03*
Y26300D02*
D03*
X60600Y25300D02*
D03*
Y26300D02*
D03*
X57800Y25300D02*
D03*
Y26300D02*
D03*
X55000Y25300D02*
D03*
Y26300D02*
D03*
X1300Y14800D02*
D03*
Y12200D02*
D03*
Y5500D02*
D03*
X1250Y2250D02*
D03*
X66200Y23100D02*
D03*
Y22100D02*
D03*
X31630Y20290D02*
D03*
X32630D02*
D03*
X28732Y5207D02*
D03*
X27748D02*
D03*
Y5994D02*
D03*
X28732D02*
D03*
G54D55*
X27559Y25591D02*
D03*
X19685Y37402D02*
D03*
Y7874D02*
D03*
X53150Y3937D02*
D03*
Y37402D02*
D03*
G54D56*
X3260Y21740D02*
D03*
X5228Y21740D02*
D03*
X3366Y40150D02*
D03*
X5334Y40150D02*
D03*
G54D57*
X47390Y9410D02*
D03*
X46890D02*
D03*
X46390D02*
D03*
X46832Y32395D02*
D03*
X46332D02*
D03*
X45832D02*
D03*
X50270Y14860D02*
D03*
X49770D02*
D03*
X49270D02*
D03*
X50010Y18770D02*
D03*
X49510D02*
D03*
X49010D02*
D03*
X47820Y17250D02*
D03*
X47320D02*
D03*
X46820D02*
D03*
X50050Y26310D02*
D03*
X49550D02*
D03*
X49050D02*
D03*
X43542Y24625D02*
D03*
X43042D02*
D03*
X42542D02*
D03*
X43602Y10215D02*
D03*
X43102D02*
D03*
X42602D02*
D03*
X50110Y22700D02*
D03*
X49610D02*
D03*
X49110D02*
D03*
X45802Y39255D02*
D03*
X46302D02*
D03*
X46802D02*
D03*
X49472Y37832D02*
D03*
Y37332D02*
D03*
Y36832D02*
D03*
X48950Y33910D02*
D03*
X49450D02*
D03*
X49950D02*
D03*
X42290Y16590D02*
D03*
X42790D02*
D03*
X43290D02*
D03*
X49040Y11620D02*
D03*
X49540D02*
D03*
X50040D02*
D03*
X42300Y31330D02*
D03*
X42800D02*
D03*
X43300D02*
D03*
X49552Y29705D02*
D03*
Y29205D02*
D03*
Y28705D02*
D03*
X46190Y1060D02*
D03*
X46690D02*
D03*
X47190D02*
D03*
X48880Y7510D02*
D03*
X49380D02*
D03*
X49880D02*
D03*
X48930Y3860D02*
D03*
X49430D02*
D03*
X49930D02*
D03*
X45972Y23845D02*
D03*
X46472D02*
D03*
X46972D02*
D03*
G54D58*
X3686Y2396D02*
D03*
Y6333D02*
D03*
Y13223D02*
D03*
Y17160D02*
D03*
X3300Y38547D02*
D03*
Y34610D02*
D03*
Y27720D02*
D03*
Y23783D02*
D03*
G54D59*
X7620Y37790D02*
D03*
Y35790D02*
D03*
Y25790D02*
D03*
X14620D02*
D03*
Y27790D02*
D03*
G54D60*
X15410Y20590D02*
D03*
X7221D02*
D03*
Y2873D02*
D03*
X10371D02*
D03*
X18909Y16403D02*
D03*
X19909D02*
D03*
G54D61*
X26423Y20893D02*
D03*
X24501D02*
D03*
G54D62*
X25870Y4140D02*
D03*
X30610D02*
D03*
G54D63*
X39240Y20580D02*
D03*
X38350Y18550D02*
D03*
X38320Y11300D02*
D03*
X41460Y25830D02*
D03*
X40430Y12000D02*
D03*
X41120Y19040D02*
D03*
X31900Y11910D02*
D03*
X31850Y13910D02*
D03*
X26750Y38050D02*
D03*
X25140Y36750D02*
D03*
X25100Y13150D02*
D03*
X23420Y18831D02*
D03*
X25140Y29030D02*
D03*
X23869Y14109D02*
D03*
X24850Y15150D02*
D03*
X50421Y34618D02*
D03*
X25430Y12380D02*
D03*
X25240Y18400D02*
D03*
X24650Y18290D02*
D03*
X45370Y6215D02*
D03*
X44500Y5690D02*
D03*
X44211Y6695D02*
D03*
X32730Y5500D02*
D03*
X36780Y6220D02*
D03*
X29870Y14690D02*
D03*
X44790Y14310D02*
D03*
X45570Y13785D02*
D03*
X38550Y37070D02*
D03*
X45647Y35945D02*
D03*
X40140Y36310D02*
D03*
X45180Y35465D02*
D03*
Y36490D02*
D03*
X45200Y37340D02*
D03*
X38500Y29160D02*
D03*
X44830Y27580D02*
D03*
X45531Y28105D02*
D03*
X41123Y28110D02*
D03*
X41013Y27540D02*
D03*
X44990Y29165D02*
D03*
X44980Y28585D02*
D03*
X38350Y24300D02*
D03*
X45150Y21500D02*
D03*
X45662Y21000D02*
D03*
X30350Y18880D02*
D03*
X29360Y17890D02*
D03*
X28765Y15845D02*
D03*
X26380Y16210D02*
D03*
X26137Y16737D02*
D03*
X23060Y31120D02*
D03*
X26600Y14920D02*
D03*
X26370Y15620D02*
D03*
X27520Y17490D02*
D03*
X31850Y6450D02*
D03*
X28140Y13920D02*
D03*
X29142Y13082D02*
D03*
X34640Y8200D02*
D03*
X33920Y8760D02*
D03*
X28695Y8910D02*
D03*
X27210Y14010D02*
D03*
X30590Y20970D02*
D03*
X26350Y18330D02*
D03*
X23010Y14880D02*
D03*
X37700Y21150D02*
D03*
X34040Y28930D02*
D03*
X33510Y29620D02*
D03*
X34040Y21750D02*
D03*
X33530Y22480D02*
D03*
X33490Y15540D02*
D03*
X33990Y37370D02*
D03*
X34020Y36680D02*
D03*
X29250Y16930D02*
D03*
X34020Y14760D02*
D03*
X42790Y33700D02*
D03*
X40895Y35945D02*
D03*
X41315Y21025D02*
D03*
X40930Y21590D02*
D03*
X45130Y20540D02*
D03*
X44820Y13240D02*
D03*
X40963Y13717D02*
D03*
X40846Y5595D02*
D03*
X40905Y6215D02*
D03*
X40942Y6794D02*
D03*
X37672Y7108D02*
D03*
X37160Y7920D02*
D03*
X36980Y8530D02*
D03*
X39830Y14110D02*
D03*
X37662Y14148D02*
D03*
X40710Y14330D02*
D03*
X36970Y13110D02*
D03*
X37730Y15080D02*
D03*
X36398Y15478D02*
D03*
X37106Y20510D02*
D03*
X37390Y21970D02*
D03*
X36550Y22380D02*
D03*
X40310Y27320D02*
D03*
X37520Y27250D02*
D03*
X37480Y27940D02*
D03*
X37520Y29370D02*
D03*
X36640Y29780D02*
D03*
X39247Y36147D02*
D03*
X37430Y35460D02*
D03*
X37463Y36103D02*
D03*
X37380Y36970D02*
D03*
X36760Y37540D02*
D03*
X45240Y38060D02*
D03*
M02*
